<svg id="svg" version="1.1" xmlns="http://www.w3.org/2000/svg" xmlns:xlink="http://www.w3.org/1999/xlink" width="400" height="400" viewBox="0, 0, 400,400"><g id="svgg"><path id="path0" d="M200.800 200.800 L 200.800 232.400 245.205 232.400 L 289.609 232.400 289.363 234.100 C 286.933 250.831,273.649 271.601,259.100 281.417 C 257.053 282.798,256.785 282.451,264.500 288.430 C 288.346 306.914,307.496 321.798,308.087 322.308 C 308.711 322.846,309.034 322.650,311.629 320.150 C 337.035 295.681,353.335 259.114,356.363 219.800 C 357.692 202.542,356.787 181.906,354.183 170.100 L 353.985 169.200 277.392 169.200 L 200.800 169.200 200.800 200.800 " stroke="none" fill="#4484f3" fill-rule="evenodd"></path><path id="path1" d="M89.996 246.036 C 79.548 254.148,68.955 262.364,66.456 264.293 C 59.178 269.910,56.000 272.457,56.000 272.673 C 56.000 275.658,71.480 298.220,80.349 308.163 C 131.149 365.109,219.226 378.935,285.159 340.313 C 293.236 335.581,308.400 324.187,308.400 322.849 C 308.400 322.572,298.325 314.667,267.122 290.460 L 257.243 282.796 253.229 285.221 C 244.099 290.737,230.986 295.468,220.600 296.994 C 218.156 297.353,213.873 297.912,213.200 297.959 C 212.870 297.983,211.070 298.133,209.200 298.294 C 167.177 301.905,127.231 276.730,111.063 236.446 L 108.992 231.287 89.996 246.036 " stroke="none" fill="#34ac54" fill-rule="evenodd"></path><path id="path2" d="M54.521 129.302 C 53.818 130.676,52.893 132.700,52.464 133.800 C 52.036 134.900,51.235 136.790,50.685 138.000 C 48.905 141.911,45.173 152.961,43.963 157.900 C 43.680 159.055,43.333 160.000,43.191 160.000 C 43.050 160.000,42.963 160.404,43.000 160.898 C 43.036 161.392,42.650 163.417,42.141 165.398 C 41.632 167.379,41.212 169.555,41.208 170.233 C 41.204 170.912,41.085 171.582,40.944 171.723 C 40.803 171.864,40.615 172.839,40.526 173.889 C 40.436 174.940,40.223 175.849,40.052 175.910 C 39.881 175.970,39.813 176.510,39.901 177.110 C 39.989 177.709,39.864 179.460,39.624 181.000 C 39.383 182.540,39.112 184.700,39.020 185.800 C 38.928 186.900,38.739 189.150,38.600 190.800 C 38.275 194.654,38.279 204.027,38.608 208.400 C 38.749 210.270,38.914 212.520,38.975 213.400 C 39.036 214.280,39.205 215.273,39.350 215.606 C 39.495 215.940,39.656 217.783,39.707 219.702 C 39.758 221.622,39.912 223.194,40.048 223.196 C 40.269 223.200,40.582 224.905,41.040 228.600 C 41.121 229.260,41.402 230.700,41.663 231.800 C 41.925 232.900,42.172 234.070,42.214 234.400 C 42.255 234.730,42.385 235.270,42.503 235.600 C 42.621 235.930,43.118 237.820,43.608 239.800 C 46.028 249.580,53.347 269.038,55.853 272.350 C 55.915 272.432,57.304 271.442,58.939 270.150 C 60.574 268.857,63.957 266.222,66.456 264.293 C 77.637 255.663,108.234 231.895,108.550 231.594 C 108.748 231.405,108.196 228.512,107.277 224.930 C 103.982 212.075,103.045 196.015,104.924 184.600 C 105.567 180.697,108.570 168.496,108.992 168.074 C 109.184 167.883,56.857 127.152,56.099 126.902 C 55.934 126.847,55.225 127.927,54.521 129.302 " stroke="none" fill="#fbbc06" fill-rule="evenodd"></path><path id="path3" d="M194.000 37.064 C 192.017 37.202,182.385 38.048,180.800 38.224 C 175.667 38.794,164.587 40.994,158.800 42.593 C 115.264 54.622,79.239 83.277,57.802 122.932 C 56.192 125.911,55.979 126.545,56.446 126.981 C 56.751 127.265,60.690 130.344,65.200 133.824 C 69.710 137.304,81.351 146.328,91.069 153.876 C 100.787 161.424,108.823 167.600,108.925 167.600 C 109.028 167.600,109.881 165.665,110.822 163.300 C 124.605 128.640,155.420 104.793,191.343 100.987 C 199.662 100.106,205.499 100.212,215.200 101.421 C 230.744 103.358,247.268 110.750,260.015 121.470 L 264.095 124.902 286.830 102.170 C 305.784 83.218,309.484 79.341,309.082 78.851 C 308.280 77.872,300.810 71.546,297.400 68.958 C 276.268 52.917,251.043 42.380,224.615 38.554 C 215.651 37.257,201.304 36.558,194.000 37.064 " stroke="none" fill="#ec4434" fill-rule="evenodd"></path><path id="path4" d="M185.400 37.012 C 176.780 37.945,170.386 38.825,169.338 39.223 C 168.794 39.431,167.766 39.600,167.054 39.600 C 166.342 39.600,165.548 39.812,165.290 40.070 C 165.031 40.329,163.960 40.668,162.910 40.822 C 160.171 41.226,152.825 43.152,151.621 43.783 C 151.060 44.077,148.710 44.905,146.400 45.624 C 144.090 46.342,140.903 47.531,139.318 48.265 C 137.734 48.999,136.321 49.600,136.179 49.600 C 135.689 49.600,131.060 51.690,129.600 52.570 C 129.050 52.901,127.340 53.741,125.800 54.437 C 124.260 55.132,122.901 55.856,122.779 56.046 C 122.658 56.236,121.128 57.128,119.379 58.029 C 117.631 58.931,115.840 59.986,115.400 60.374 C 114.960 60.763,114.330 61.199,114.000 61.343 C 112.882 61.832,110.451 63.396,109.467 64.259 C 108.929 64.732,108.131 65.232,107.694 65.370 C 107.257 65.509,106.256 66.247,105.470 67.011 C 104.683 67.775,103.894 68.400,103.715 68.400 C 103.537 68.400,102.673 69.027,101.796 69.792 C 100.918 70.558,100.060 71.188,99.889 71.192 C 99.577 71.200,97.922 72.616,95.239 75.171 C 94.448 75.924,93.077 77.097,92.193 77.776 C 90.425 79.135,82.440 87.120,79.600 90.370 C 78.610 91.503,77.170 93.101,76.400 93.921 C 75.630 94.741,74.509 96.130,73.910 97.006 C 73.310 97.883,72.393 99.058,71.870 99.618 C 71.348 100.177,70.400 101.437,69.764 102.418 C 69.128 103.398,68.385 104.342,68.113 104.515 C 67.841 104.688,66.852 106.128,65.917 107.715 C 64.981 109.302,64.071 110.662,63.895 110.737 C 63.719 110.813,63.134 111.745,62.595 112.809 C 62.056 113.873,61.432 114.857,61.208 114.995 C 60.983 115.134,60.800 115.577,60.800 115.981 C 60.800 116.384,60.575 116.801,60.300 116.908 C 60.025 117.014,58.931 118.788,57.870 120.850 C 56.808 122.913,55.628 125.140,55.246 125.800 C 54.865 126.460,54.035 128.260,53.403 129.800 C 52.771 131.340,52.038 132.870,51.775 133.200 C 51.512 133.530,50.719 135.420,50.014 137.400 C 49.309 139.380,48.463 141.533,48.135 142.185 C 47.236 143.975,45.338 149.879,44.756 152.700 C 44.472 154.075,44.115 155.200,43.963 155.200 C 43.811 155.200,43.557 155.695,43.398 156.300 C 42.590 159.384,41.101 166.525,40.761 168.950 C 40.548 170.463,40.200 172.026,39.987 172.424 C 39.479 173.374,39.488 176.000,40.000 176.000 C 40.220 176.000,40.431 175.415,40.468 174.700 C 40.599 172.217,40.626 172.041,40.912 171.755 C 41.070 171.596,41.204 170.912,41.208 170.233 C 41.212 169.555,41.632 167.379,42.141 165.398 C 42.650 163.417,43.036 161.392,43.000 160.898 C 42.963 160.404,43.050 160.000,43.191 160.000 C 43.333 160.000,43.680 159.055,43.963 157.900 C 45.204 152.834,48.923 141.859,50.775 137.800 C 51.377 136.480,52.201 134.525,52.606 133.454 C 53.638 130.732,58.964 120.617,62.007 115.600 C 83.774 79.721,118.083 53.843,158.800 42.593 C 163.275 41.357,174.053 39.110,178.000 38.590 C 192.602 36.668,203.829 36.461,218.600 37.841 C 243.044 40.125,269.833 49.858,290.400 63.929 C 296.896 68.373,307.315 76.695,309.082 78.851 C 309.484 79.341,305.784 83.218,286.830 102.170 L 264.095 124.902 260.015 121.470 C 247.268 110.750,230.744 103.358,215.200 101.421 C 190.378 98.328,168.947 103.124,148.946 116.246 C 102.838 146.497,90.084 208.659,120.571 254.542 C 140.516 284.559,171.850 300.178,208.600 298.422 C 215.487 298.093,212.071 297.648,202.482 297.625 C 192.106 297.600,184.982 296.978,183.036 295.926 C 182.616 295.699,181.356 295.365,180.236 295.183 C 179.116 295.002,177.120 294.559,175.800 294.201 C 174.480 293.842,172.860 293.407,172.200 293.234 C 171.540 293.062,170.190 292.551,169.200 292.099 C 168.210 291.646,165.690 290.604,163.600 289.782 C 161.510 288.960,159.707 288.145,159.593 287.971 C 159.479 287.797,158.309 287.138,156.993 286.507 C 154.363 285.247,147.684 281.008,145.814 279.412 C 145.162 278.855,144.474 278.400,144.285 278.400 C 144.097 278.400,143.707 278.175,143.418 277.900 C 143.130 277.625,142.136 276.770,141.211 276.000 C 139.730 274.769,130.772 265.916,128.258 263.200 C 127.749 262.650,126.633 261.210,125.778 260.000 C 124.924 258.790,123.994 257.656,123.712 257.480 C 123.430 257.304,123.200 257.004,123.200 256.812 C 123.200 256.516,119.878 251.409,118.899 250.200 C 118.721 249.980,118.107 248.804,117.534 247.588 C 116.962 246.371,116.202 245.134,115.847 244.839 C 115.491 244.544,115.200 244.000,115.200 243.631 C 115.200 243.262,115.024 242.784,114.809 242.569 C 114.594 242.354,114.053 241.116,113.606 239.817 C 113.159 238.518,112.559 237.173,112.272 236.828 C 111.722 236.165,109.998 231.003,109.008 227.052 C 108.684 225.761,108.213 224.456,107.961 224.152 C 107.708 223.849,107.636 223.600,107.800 223.600 C 107.964 223.600,107.904 223.367,107.668 223.082 C 107.431 222.796,107.160 221.761,107.066 220.782 C 106.971 219.802,106.804 218.730,106.694 218.400 C 104.766 212.622,104.491 193.516,106.194 183.600 C 106.553 181.510,106.949 179.035,107.075 178.100 C 107.201 177.165,107.471 176.400,107.676 176.400 C 107.880 176.400,107.931 176.212,107.789 175.982 C 107.647 175.753,107.711 175.348,107.932 175.082 C 108.152 174.817,108.704 173.141,109.160 171.357 C 109.615 169.574,110.347 167.324,110.785 166.357 C 111.224 165.391,111.586 164.195,111.591 163.700 C 111.596 163.205,111.758 162.800,111.951 162.800 C 112.145 162.800,112.523 162.215,112.792 161.500 C 114.011 158.259,114.976 156.238,117.232 152.200 C 118.092 150.660,118.914 149.130,119.058 148.800 C 119.202 148.470,119.626 147.840,120.002 147.400 C 120.377 146.960,121.026 145.975,121.442 145.212 C 122.292 143.655,122.407 143.484,123.732 141.800 C 124.252 141.140,125.355 139.700,126.184 138.600 C 130.162 133.319,138.453 124.930,142.100 122.495 C 142.925 121.944,143.600 121.338,143.600 121.147 C 143.600 120.956,143.825 120.797,144.100 120.793 C 144.375 120.789,145.019 120.344,145.532 119.804 C 146.044 119.263,146.584 118.860,146.732 118.908 C 147.023 119.003,148.532 117.996,150.533 116.372 C 151.230 115.806,153.150 114.656,154.800 113.816 C 156.450 112.976,157.860 112.134,157.933 111.945 C 158.007 111.755,158.412 111.600,158.833 111.600 C 159.255 111.600,159.600 111.420,159.600 111.200 C 159.600 110.980,159.798 110.800,160.040 110.800 C 160.281 110.800,161.046 110.550,161.740 110.244 C 162.433 109.938,163.809 109.382,164.799 109.007 C 165.788 108.633,166.688 108.208,166.799 108.061 C 166.977 107.825,169.611 106.948,177.800 104.398 C 188.219 101.152,215.172 100.726,222.356 103.694 C 222.930 103.931,223.580 104.149,223.800 104.179 C 224.603 104.288,231.283 106.187,233.000 106.795 C 233.440 106.951,234.937 107.646,236.327 108.339 C 237.717 109.033,239.096 109.600,239.390 109.600 C 239.920 109.600,244.013 111.568,244.400 112.008 C 244.769 112.428,247.641 114.000,248.040 114.000 C 248.256 114.000,248.651 114.182,248.917 114.405 C 250.276 115.544,252.473 117.108,253.966 118.000 C 254.886 118.550,256.569 119.855,257.704 120.900 C 258.840 121.945,259.971 122.800,260.218 122.800 C 260.464 122.800,261.245 123.520,261.952 124.400 C 263.142 125.881,265.200 126.671,265.200 125.647 C 265.200 125.454,275.460 115.041,288.000 102.508 C 300.540 89.976,310.800 79.533,310.800 79.302 C 310.800 78.677,300.560 69.611,299.846 69.604 C 299.651 69.602,299.098 69.175,298.616 68.655 C 298.135 68.136,297.214 67.372,296.570 66.958 C 295.927 66.545,295.220 66.070,295.000 65.903 C 293.307 64.617,289.516 61.999,288.200 61.206 C 287.320 60.676,286.510 60.123,286.400 59.977 C 286.290 59.832,284.760 58.945,283.000 58.008 C 281.240 57.070,279.530 56.074,279.200 55.793 C 278.870 55.513,277.160 54.603,275.400 53.773 C 273.640 52.942,271.750 51.958,271.200 51.587 C 270.650 51.215,269.480 50.683,268.600 50.403 C 267.720 50.124,266.820 49.757,266.600 49.587 C 266.380 49.417,265.435 49.074,264.500 48.824 C 263.565 48.574,262.800 48.219,262.800 48.036 C 262.800 47.575,253.567 44.400,252.225 44.400 C 251.881 44.400,251.600 44.249,251.600 44.064 C 251.600 43.739,250.018 43.191,246.900 42.437 C 246.075 42.237,244.394 41.787,243.165 41.437 C 241.936 41.087,240.523 40.800,240.025 40.800 C 239.528 40.800,238.554 40.554,237.860 40.253 C 235.875 39.392,229.339 38.322,219.000 37.165 C 212.597 36.449,191.495 36.353,185.400 37.012 M200.800 168.800 C 200.800 169.065,226.597 169.200,277.392 169.200 L 353.985 169.200 354.183 170.100 C 358.052 187.639,357.883 218.533,353.807 239.000 C 338.926 313.720,283.928 359.424,206.000 361.831 C 130.191 364.173,61.630 312.652,43.608 239.800 C 43.118 237.820,42.621 235.930,42.503 235.600 C 42.385 235.270,42.255 234.730,42.214 234.400 C 42.172 234.070,41.925 232.900,41.663 231.800 C 41.402 230.700,41.121 229.260,41.040 228.600 C 40.551 224.653,40.257 223.200,39.948 223.200 C 39.410 223.200,39.536 225.988,40.156 227.787 C 40.462 228.674,40.925 230.660,41.186 232.200 C 41.644 234.903,41.788 235.653,42.760 240.377 C 43.007 241.574,43.470 242.952,43.789 243.440 C 44.109 243.927,44.443 244.928,44.532 245.663 C 44.620 246.398,44.791 247.270,44.910 247.600 C 45.112 248.158,45.369 248.958,47.008 254.150 C 47.347 255.222,47.889 256.477,48.212 256.939 C 48.535 257.400,48.800 258.017,48.800 258.309 C 48.800 259.043,51.233 265.263,51.808 266.000 C 52.065 266.330,52.555 267.320,52.896 268.200 C 54.042 271.157,55.687 274.544,56.249 275.107 C 56.556 275.413,56.713 275.818,56.597 276.005 C 56.482 276.192,56.574 276.460,56.802 276.601 C 57.031 276.743,57.777 277.970,58.461 279.329 C 59.144 280.688,59.835 281.890,59.996 282.000 C 60.157 282.110,60.609 282.830,61.001 283.600 C 61.674 284.921,65.209 290.534,65.914 291.400 C 66.093 291.620,66.585 292.385,67.006 293.100 C 67.428 293.815,67.897 294.400,68.048 294.400 C 68.200 294.400,68.802 295.216,69.387 296.214 C 69.971 297.211,70.970 298.606,71.606 299.314 C 72.242 300.021,73.571 301.655,74.561 302.944 C 78.386 307.928,92.843 322.800,93.864 322.800 C 93.954 322.800,94.523 323.295,95.130 323.900 C 96.372 325.139,100.568 328.491,102.754 329.992 C 103.549 330.538,104.565 331.359,105.011 331.817 C 105.458 332.275,106.442 332.999,107.199 333.425 C 108.718 334.280,108.868 334.381,110.600 335.707 C 112.358 337.053,116.650 339.600,117.160 339.600 C 117.402 339.600,117.600 339.757,117.600 339.948 C 117.600 340.140,118.815 340.905,120.300 341.648 C 121.785 342.392,123.060 343.135,123.133 343.300 C 123.207 343.465,123.592 343.600,123.991 343.600 C 124.389 343.600,124.806 343.839,124.918 344.131 C 125.030 344.423,125.994 344.989,127.061 345.390 C 128.127 345.791,129.478 346.452,130.062 346.859 C 130.646 347.267,131.396 347.600,131.728 347.600 C 132.061 347.600,132.393 347.748,132.467 347.928 C 132.540 348.109,134.400 348.937,136.600 349.770 C 138.800 350.602,141.454 351.716,142.498 352.245 C 143.543 352.773,144.490 353.198,144.603 353.188 C 145.027 353.152,148.246 354.121,149.460 354.650 C 150.154 354.953,151.059 355.200,151.471 355.200 C 151.884 355.200,152.577 355.437,153.011 355.726 C 153.793 356.247,157.488 357.362,159.800 357.775 C 160.460 357.892,162.338 358.351,163.973 358.794 C 165.608 359.237,167.633 359.600,168.473 359.600 C 169.313 359.600,170.000 359.762,170.000 359.961 C 170.000 360.159,171.125 360.445,172.500 360.597 C 173.875 360.748,175.805 361.046,176.790 361.258 C 178.350 361.594,181.254 361.898,189.400 362.577 C 192.154 362.807,213.148 362.879,213.509 362.660 C 213.669 362.562,215.780 362.362,218.200 362.214 C 220.620 362.067,223.770 361.768,225.200 361.551 C 226.630 361.333,229.237 360.993,230.994 360.795 C 232.751 360.597,234.251 360.247,234.327 360.018 C 234.404 359.788,234.955 359.600,235.552 359.600 C 237.665 359.600,250.480 356.667,251.400 355.973 C 251.620 355.807,252.520 355.542,253.400 355.383 C 254.280 355.224,255.287 354.947,255.638 354.766 C 255.989 354.586,256.709 354.345,257.238 354.231 C 259.358 353.774,262.565 352.505,262.711 352.066 C 262.797 351.810,263.381 351.600,264.010 351.600 C 264.638 351.600,265.255 351.434,265.381 351.231 C 265.506 351.028,266.140 350.745,266.788 350.603 C 267.437 350.460,268.874 349.906,269.982 349.372 C 271.090 348.837,272.177 348.400,272.398 348.400 C 272.619 348.400,272.800 348.244,272.800 348.054 C 272.800 347.864,273.655 347.388,274.700 346.996 C 276.705 346.244,279.399 344.886,281.400 343.619 C 282.060 343.201,282.915 342.845,283.300 342.829 C 283.685 342.813,284.000 342.620,284.000 342.400 C 284.000 342.180,284.185 342.000,284.411 342.000 C 285.430 342.000,299.229 332.672,301.239 330.625 C 301.658 330.198,302.000 329.965,302.000 330.106 C 302.000 330.248,302.420 329.967,302.934 329.482 C 305.408 327.146,307.610 325.200,307.780 325.200 C 307.964 325.200,315.368 317.778,319.428 313.525 C 320.544 312.356,322.213 310.410,323.137 309.200 C 325.328 306.331,327.414 303.649,328.426 302.400 C 328.872 301.850,329.573 300.770,329.984 300.000 C 330.394 299.230,331.114 298.194,331.583 297.697 C 332.052 297.201,333.185 295.401,334.100 293.697 C 335.015 291.994,335.990 290.369,336.267 290.087 C 336.543 289.804,337.449 288.184,338.280 286.487 C 339.111 284.789,339.990 283.190,340.234 282.933 C 340.477 282.676,341.358 280.876,342.190 278.933 C 343.022 276.990,343.839 275.310,344.005 275.200 C 344.170 275.090,344.604 274.100,344.969 273.000 C 345.334 271.900,345.925 270.370,346.283 269.600 C 346.640 268.830,346.933 267.975,346.933 267.700 C 346.933 267.425,347.094 267.200,347.290 267.200 C 347.487 267.200,347.531 267.012,347.389 266.782 C 347.247 266.553,347.388 265.968,347.702 265.482 C 348.016 264.997,348.598 263.520,348.995 262.200 C 349.391 260.880,350.069 258.720,350.500 257.400 C 351.242 255.129,351.396 254.502,351.681 252.600 C 351.746 252.160,351.938 251.698,352.106 251.573 C 352.584 251.218,354.588 241.725,355.215 236.844 C 355.424 235.219,355.765 233.683,355.974 233.431 C 356.953 232.252,358.953 202.277,358.258 199.200 C 358.134 198.650,357.927 195.230,357.800 191.600 C 357.672 187.970,357.405 183.830,357.206 182.400 C 357.007 180.970,356.735 178.547,356.601 177.015 C 356.467 175.484,356.212 174.044,356.033 173.815 C 355.855 173.587,355.682 173.130,355.648 172.800 C 355.322 169.583,355.082 168.862,354.261 168.642 C 352.669 168.215,200.800 168.371,200.800 168.800 M38.819 180.300 C 38.286 184.592,38.241 185.237,38.350 187.000 C 38.462 188.809,39.231 187.267,39.190 185.316 C 39.172 184.482,39.334 182.810,39.549 181.600 C 40.051 178.785,40.098 176.400,39.651 176.400 C 39.460 176.400,39.085 178.155,38.819 180.300 M38.028 191.476 C 38.048 193.369,38.161 193.956,38.400 193.400 C 38.881 192.280,38.881 189.298,38.400 189.000 C 38.147 188.844,38.010 189.756,38.028 191.476 M38.028 207.524 C 38.010 209.377,38.146 210.357,38.400 210.200 C 38.882 209.902,38.882 206.521,38.400 205.400 C 38.164 204.851,38.047 205.519,38.028 207.524 M38.412 213.373 C 38.395 216.709,39.227 222.800,39.700 222.800 C 40.170 222.800,39.703 215.984,39.197 215.453 C 39.015 215.262,38.961 214.517,39.078 213.798 C 39.195 213.078,39.095 212.155,38.857 211.745 C 38.511 211.149,38.422 211.475,38.412 213.373 M200.800 232.800 C 200.800 233.064,215.750 233.200,244.851 233.200 L 288.902 233.200 288.655 234.747 C 288.519 235.598,288.137 236.813,287.806 237.447 C 287.476 238.081,287.204 238.905,287.202 239.277 C 287.200 239.853,285.261 246.148,284.515 248.000 C 284.382 248.330,284.302 248.735,284.336 248.900 C 284.371 249.065,284.242 249.200,284.049 249.200 C 283.855 249.200,283.474 249.785,283.202 250.500 C 282.257 252.979,281.577 254.367,281.189 254.607 C 280.975 254.739,280.800 255.190,280.800 255.608 C 280.800 256.026,280.470 256.691,280.066 257.084 C 279.662 257.478,278.748 258.836,278.035 260.102 C 277.322 261.368,276.519 262.628,276.250 262.902 C 275.980 263.176,274.980 264.480,274.027 265.800 C 273.074 267.120,271.508 268.931,270.547 269.825 C 269.586 270.718,268.800 271.643,268.800 271.879 C 268.800 272.115,268.305 272.631,267.700 273.025 C 266.389 273.879,264.400 275.939,264.400 276.442 C 264.400 276.639,264.040 276.800,263.600 276.800 C 263.160 276.800,262.800 276.949,262.800 277.132 C 262.800 277.315,262.035 278.017,261.100 278.691 C 260.165 279.366,258.950 280.320,258.400 280.810 C 257.850 281.300,256.860 281.939,256.200 282.230 C 255.540 282.520,254.528 283.172,253.950 283.679 C 253.373 284.185,251.393 285.320,249.550 286.200 C 247.708 287.080,246.103 287.928,245.985 288.085 C 245.867 288.242,244.337 288.932,242.585 289.617 C 240.833 290.302,238.410 291.284,237.200 291.799 C 234.954 292.754,226.765 294.946,223.700 295.412 C 222.765 295.554,222.000 295.834,222.000 296.035 C 222.000 296.236,221.415 296.399,220.700 296.397 C 218.601 296.393,213.200 297.309,213.200 297.669 C 213.200 298.109,212.725 298.152,220.600 296.994 C 255.275 291.897,284.906 264.795,289.363 234.100 L 289.609 232.400 245.205 232.400 C 215.868 232.400,200.800 232.536,200.800 232.800 " stroke="none" fill="#e4e4e2" fill-rule="evenodd"></path></g></svg>