<svg id="svg" version="1.1" xmlns="http://www.w3.org/2000/svg" xmlns:xlink="http://www.w3.org/1999/xlink" width="400" height="345.5" viewBox="0, 0, 400,345.5"><g id="svgg"><path id="path0" d="M90.917 0.198 C 86.309 0.564,81.063 1.278,77.583 2.012 C 76.667 2.205,75.739 2.397,75.523 2.438 C 72.575 2.999,62.794 6.006,62.258 6.516 C 62.171 6.599,62.002 6.667,61.882 6.667 C 61.761 6.667,61.308 6.824,60.873 7.017 C 60.439 7.209,59.933 7.425,59.750 7.497 C 54.582 9.517,45.087 14.876,41.255 17.935 C 40.631 18.433,40.574 18.477,39.750 19.087 C 38.933 19.691,36.448 21.679,36.333 21.820 C 36.287 21.876,35.987 22.136,35.667 22.397 C 33.657 24.033,30.214 27.373,27.667 30.158 C 26.887 31.010,26.035 31.941,25.772 32.228 C 24.583 33.527,21.171 37.877,20.069 39.500 C 19.726 40.004,19.401 40.454,19.345 40.500 C 19.234 40.591,16.352 44.896,16.083 45.371 C 15.992 45.533,15.345 46.622,14.647 47.791 C 12.632 51.163,10.322 55.596,8.503 59.583 C 7.829 61.059,5.955 65.860,5.248 67.917 C 3.978 71.617,2.549 76.972,1.824 80.750 C 1.736 81.208,1.626 81.771,1.578 82.000 C 1.255 83.567,0.581 88.391,0.402 90.417 C 0.345 91.058,0.262 91.808,0.217 92.083 C 0.171 92.358,0.110 95.508,0.080 99.083 C 0.031 104.891,0.106 107.456,0.407 110.292 C 0.458 110.773,0.543 111.598,0.595 112.125 C 0.674 112.921,1.237 116.898,1.591 119.167 C 1.985 121.695,3.725 129.354,4.506 132.000 C 5.706 136.067,6.691 139.150,7.594 141.667 C 7.808 142.262,8.128 143.162,8.306 143.667 C 8.701 144.789,10.578 149.488,11.015 150.449 C 11.190 150.834,11.333 151.190,11.333 151.240 C 11.333 151.291,11.567 151.839,11.852 152.458 C 12.137 153.077,12.506 153.883,12.671 154.250 C 16.504 162.741,21.490 171.953,26.729 180.220 C 27.474 181.395,28.158 182.488,28.250 182.648 C 28.525 183.128,33.934 191.121,35.221 192.949 C 36.479 194.735,38.804 197.966,39.036 198.250 C 39.499 198.815,39.780 199.179,40.000 199.500 C 40.137 199.700,40.362 200.000,40.500 200.167 C 40.637 200.333,40.862 200.634,41.000 200.836 C 41.137 201.038,41.836 201.963,42.553 202.893 C 43.269 203.823,44.144 204.966,44.497 205.433 C 44.851 205.900,45.241 206.388,45.365 206.516 C 45.488 206.645,46.145 207.458,46.824 208.323 C 47.502 209.189,48.152 210.014,48.269 210.157 C 48.385 210.300,49.039 211.109,49.724 211.954 C 50.408 212.800,51.069 213.594,51.192 213.719 C 51.316 213.843,51.679 214.273,52.000 214.673 C 52.855 215.740,55.325 218.671,55.856 219.250 C 56.606 220.067,57.046 220.573,57.750 221.426 C 58.343 222.144,59.770 223.771,60.241 224.268 C 60.338 224.369,60.867 224.969,61.417 225.601 C 61.967 226.233,62.658 226.999,62.953 227.303 C 63.249 227.608,63.690 228.095,63.934 228.387 C 64.609 229.194,67.413 232.205,72.330 237.403 C 75.138 240.372,88.646 253.838,91.909 256.922 C 96.251 261.025,96.836 261.571,100.481 264.917 C 101.080 265.467,102.136 266.440,102.827 267.081 C 103.518 267.721,104.166 268.321,104.267 268.414 C 104.368 268.507,104.997 269.071,105.665 269.667 C 106.333 270.262,107.084 270.938,107.333 271.167 C 107.776 271.573,109.166 272.792,109.998 273.504 C 110.227 273.699,111.044 274.434,111.814 275.138 C 112.584 275.841,113.372 276.554,113.565 276.721 C 113.759 276.888,114.142 277.228,114.417 277.475 C 114.692 277.723,115.404 278.327,116.000 278.817 C 116.596 279.308,117.533 280.120,118.083 280.622 C 119.212 281.653,119.262 281.696,121.667 283.764 C 122.629 284.592,123.575 285.377,123.769 285.509 C 123.962 285.642,124.491 286.087,124.945 286.500 C 125.398 286.912,126.290 287.681,126.926 288.208 C 127.563 288.735,129.535 290.385,131.309 291.875 C 133.083 293.365,134.699 294.696,134.901 294.833 C 135.103 294.971,135.451 295.259,135.676 295.473 C 136.101 295.878,139.705 298.838,140.474 299.414 C 140.718 299.596,141.055 299.870,141.224 300.024 C 141.393 300.178,141.902 300.592,142.355 300.944 C 142.808 301.296,143.869 302.145,144.714 302.832 C 146.176 304.020,148.865 306.172,150.235 307.250 C 151.172 307.987,151.554 308.297,151.833 308.547 C 151.971 308.670,152.571 309.141,153.167 309.594 C 153.762 310.046,154.287 310.457,154.333 310.506 C 154.379 310.556,154.901 310.968,155.493 311.423 C 156.085 311.878,156.723 312.376,156.910 312.529 C 157.209 312.775,160.775 315.538,163.060 317.294 C 163.506 317.636,163.956 317.994,164.060 318.089 C 164.165 318.184,164.512 318.444,164.833 318.667 C 165.154 318.890,165.498 319.150,165.597 319.245 C 165.697 319.339,165.986 319.567,166.241 319.750 C 166.495 319.933,166.789 320.162,166.893 320.258 C 166.998 320.355,167.533 320.763,168.083 321.167 C 168.633 321.570,169.174 321.979,169.286 322.075 C 169.397 322.171,169.585 322.325,169.703 322.418 C 171.647 323.940,172.187 324.333,172.330 324.333 C 172.423 324.333,172.500 324.401,172.500 324.484 C 172.500 324.567,172.846 324.864,173.268 325.144 C 173.691 325.424,174.336 325.900,174.703 326.201 C 175.070 326.503,175.686 326.975,176.071 327.250 C 176.787 327.761,181.281 331.122,181.583 331.372 C 181.675 331.448,182.800 332.294,184.083 333.252 C 185.367 334.209,186.502 335.064,186.606 335.151 C 186.709 335.239,187.347 335.708,188.022 336.195 C 188.697 336.682,189.596 337.344,190.019 337.665 C 190.441 337.987,190.954 338.362,191.159 338.500 C 191.364 338.637,191.666 338.862,191.831 339.000 C 191.997 339.137,192.856 339.775,193.742 340.417 C 194.628 341.058,195.867 341.977,196.494 342.458 C 197.122 342.940,197.718 343.333,197.818 343.333 C 197.918 343.333,198.001 343.390,198.001 343.458 C 198.002 343.527,198.264 343.762,198.584 343.980 C 199.056 344.301,199.167 344.483,199.167 344.938 C 199.167 345.535,199.336 345.649,199.652 345.267 C 199.852 345.027,200.500 345.092,200.500 345.353 C 200.500 345.434,200.575 345.500,200.667 345.500 C 200.758 345.500,200.833 345.251,200.833 344.947 C 200.833 344.389,202.195 343.194,204.583 341.656 C 204.950 341.420,205.362 341.116,205.500 340.980 C 205.637 340.845,206.123 340.479,206.580 340.166 C 207.036 339.854,207.523 339.506,207.663 339.393 C 208.013 339.111,209.180 338.248,210.666 337.174 C 211.353 336.677,211.990 336.207,212.082 336.130 C 212.486 335.791,215.122 333.794,215.500 333.541 C 216.149 333.107,221.240 329.297,221.333 329.175 C 221.379 329.116,221.679 328.884,222.000 328.661 C 222.321 328.438,222.696 328.164,222.833 328.053 C 222.971 327.942,224.021 327.154,225.167 326.303 C 227.659 324.451,227.375 324.665,228.500 323.790 C 229.004 323.398,229.717 322.856,230.083 322.586 C 230.450 322.316,230.831 322.018,230.931 321.923 C 231.030 321.828,231.321 321.600,231.576 321.417 C 231.832 321.233,233.063 320.303,234.312 319.349 C 236.252 317.867,237.092 317.210,238.667 315.945 C 238.804 315.835,239.217 315.521,239.583 315.248 C 239.950 314.975,240.287 314.708,240.333 314.655 C 240.379 314.602,241.054 314.078,241.833 313.491 C 243.091 312.543,245.245 310.866,245.860 310.356 C 246.139 310.124,247.652 308.926,250.519 306.667 C 251.739 305.705,252.904 304.767,253.106 304.584 C 253.309 304.400,253.680 304.100,253.931 303.917 C 254.627 303.408,255.571 302.652,255.665 302.527 C 255.712 302.465,256.050 302.193,256.417 301.921 C 257.060 301.445,261.391 297.939,261.768 297.588 C 261.870 297.494,262.208 297.216,262.518 296.970 C 263.420 296.257,274.408 287.131,274.500 287.018 C 274.546 286.962,275.033 286.546,275.583 286.092 C 276.133 285.639,276.704 285.151,276.852 285.009 C 277.000 284.866,277.482 284.450,277.923 284.083 C 278.364 283.717,278.892 283.267,279.097 283.083 C 279.301 282.900,279.823 282.450,280.256 282.083 C 280.689 281.717,281.172 281.304,281.329 281.167 C 281.485 281.029,282.086 280.504,282.663 280.000 C 283.240 279.496,283.796 279.004,283.898 278.907 C 284.000 278.810,284.608 278.291,285.250 277.754 C 285.892 277.217,286.536 276.659,286.683 276.514 C 286.829 276.369,287.463 275.800,288.091 275.250 C 290.478 273.161,293.634 270.335,294.234 269.750 C 294.423 269.567,294.878 269.165,295.247 268.857 C 295.615 268.549,296.446 267.799,297.092 267.190 C 297.739 266.581,299.050 265.371,300.005 264.500 C 300.960 263.629,302.299 262.392,302.980 261.750 C 303.661 261.108,304.459 260.358,304.753 260.083 C 312.000 253.311,325.773 239.542,331.501 233.344 C 332.555 232.204,333.911 230.741,334.516 230.094 C 335.120 229.446,335.907 228.585,336.266 228.179 C 336.624 227.773,337.067 227.282,337.250 227.089 C 337.433 226.895,337.958 226.301,338.417 225.769 C 338.875 225.237,339.475 224.557,339.750 224.259 C 340.813 223.104,341.445 222.383,342.167 221.502 C 342.579 220.999,343.067 220.436,343.250 220.252 C 343.727 219.772,345.473 217.729,346.241 216.750 C 346.601 216.292,347.013 215.798,347.156 215.652 C 347.603 215.198,348.911 213.640,349.997 212.271 C 350.569 211.549,351.632 210.237,352.359 209.354 C 353.087 208.472,353.737 207.675,353.804 207.583 C 354.135 207.131,355.094 205.907,355.175 205.833 C 355.226 205.787,355.489 205.450,355.759 205.083 C 356.176 204.518,356.642 203.916,357.892 202.333 C 358.001 202.196,358.897 200.996,359.884 199.667 C 360.870 198.338,361.735 197.175,361.805 197.083 C 361.874 196.992,362.116 196.657,362.341 196.340 C 362.566 196.022,362.881 195.614,363.042 195.433 C 363.202 195.252,363.333 195.048,363.333 194.980 C 363.333 194.913,363.431 194.758,363.551 194.637 C 364.139 194.041,372.216 182.111,373.065 180.583 C 373.658 179.516,374.221 178.580,374.316 178.500 C 374.372 178.454,374.507 178.267,374.616 178.083 C 374.726 177.900,375.112 177.262,375.473 176.667 C 375.834 176.071,376.335 175.208,376.586 174.750 C 376.838 174.292,377.136 173.804,377.249 173.667 C 377.362 173.529,377.776 172.817,378.169 172.083 C 378.562 171.350,379.010 170.563,379.165 170.333 C 379.320 170.104,379.559 169.692,379.696 169.417 C 379.833 169.142,380.271 168.317,380.671 167.583 C 382.636 163.978,384.716 159.875,386.080 156.917 C 386.334 156.367,386.821 155.317,387.164 154.583 C 387.506 153.850,387.884 152.987,388.004 152.667 C 388.124 152.346,388.277 152.008,388.343 151.917 C 389.004 151.000,393.171 139.783,394.503 135.333 C 394.709 134.646,394.986 133.746,395.119 133.333 C 395.381 132.519,396.932 126.500,397.158 125.417 C 397.235 125.050,397.421 124.188,397.572 123.502 C 398.038 121.378,398.729 117.375,399.067 114.833 C 400.663 102.866,400.159 89.198,397.732 78.583 C 396.663 73.908,394.737 67.389,393.842 65.417 C 393.759 65.233,393.490 64.558,393.245 63.917 C 391.919 60.441,391.584 59.685,389.482 55.417 C 387.967 52.341,387.483 51.442,385.429 47.883 C 384.268 45.871,381.171 41.113,380.966 41.028 C 380.893 40.997,380.833 40.903,380.833 40.818 C 380.833 40.662,378.629 37.609,378.219 37.196 C 378.099 37.075,377.999 36.925,377.997 36.863 C 377.996 36.801,377.762 36.487,377.477 36.167 C 377.193 35.846,376.763 35.322,376.522 35.003 C 373.841 31.455,367.827 25.265,363.848 21.959 C 362.453 20.800,362.068 20.492,360.583 19.350 C 360.217 19.068,359.842 18.777,359.750 18.704 C 358.257 17.507,353.095 14.032,352.125 13.569 C 351.781 13.406,351.500 13.210,351.500 13.136 C 351.500 13.061,351.423 13.000,351.330 13.000 C 351.236 13.000,350.880 12.818,350.538 12.596 C 349.664 12.027,347.011 10.607,345.333 9.810 C 344.554 9.440,343.392 8.887,342.750 8.581 C 342.108 8.275,340.983 7.791,340.250 7.504 C 339.517 7.218,338.617 6.847,338.250 6.679 C 337.582 6.375,335.128 5.481,333.250 4.858 C 331.091 4.142,326.467 2.861,324.750 2.503 C 320.110 1.536,316.581 0.939,313.500 0.600 C 309.319 0.140,308.200 0.089,302.083 0.086 C 295.215 0.083,292.981 0.173,289.250 0.600 C 288.058 0.737,286.446 0.922,285.667 1.012 C 284.887 1.102,284.137 1.208,284.000 1.248 C 283.862 1.288,283.375 1.368,282.917 1.425 C 280.597 1.717,274.883 2.906,271.250 3.855 C 269.875 4.214,268.578 4.545,268.367 4.592 C 268.156 4.638,267.669 4.778,267.284 4.903 C 266.898 5.028,266.133 5.260,265.583 5.420 C 264.097 5.849,260.005 7.211,257.917 7.970 C 256.279 8.566,255.512 8.862,254.417 9.321 C 254.233 9.398,253.558 9.669,252.917 9.923 C 249.583 11.241,240.055 15.777,237.833 17.103 C 237.421 17.349,236.596 17.809,236.000 18.126 C 234.714 18.809,232.343 20.204,231.440 20.808 C 230.744 21.273,230.510 21.415,229.647 21.899 C 229.140 22.183,227.802 23.058,225.667 24.499 C 224.434 25.331,220.786 27.866,220.594 28.024 C 220.497 28.104,219.554 28.817,218.500 29.608 C 216.500 31.108,214.664 32.551,213.661 33.411 C 213.337 33.689,212.759 34.167,212.377 34.473 C 211.995 34.780,211.537 35.155,211.359 35.307 C 211.181 35.459,210.671 35.894,210.226 36.273 C 209.781 36.653,209.222 37.140,208.983 37.356 C 208.745 37.573,207.967 38.275,207.255 38.917 C 205.103 40.855,204.839 41.106,202.373 43.548 L 199.996 45.902 198.123 44.037 C 195.192 41.118,193.249 39.292,191.257 37.583 C 190.722 37.125,190.127 36.595,189.934 36.405 C 189.626 36.102,186.924 33.858,184.830 32.167 C 184.433 31.846,183.240 30.934,182.179 30.140 C 181.118 29.346,180.030 28.521,179.762 28.306 C 178.136 27.007,172.097 22.944,169.524 21.417 C 169.369 21.325,169.020 21.092,168.747 20.899 C 168.278 20.568,165.868 19.168,163.833 18.045 C 163.329 17.766,162.354 17.223,161.667 16.837 C 158.138 14.855,150.174 11.109,146.417 9.664 C 145.408 9.276,144.358 8.861,144.083 8.742 C 143.017 8.281,136.074 5.868,135.458 5.744 C 135.297 5.712,135.104 5.648,135.030 5.602 C 134.955 5.556,134.337 5.364,133.655 5.176 C 132.974 4.988,131.892 4.685,131.250 4.503 C 129.684 4.059,125.560 3.041,124.833 2.920 C 124.513 2.866,124.025 2.754,123.750 2.670 C 123.475 2.587,122.960 2.476,122.606 2.424 C 122.251 2.372,121.914 2.301,121.856 2.266 C 121.797 2.231,121.380 2.153,120.928 2.092 C 120.476 2.032,120.062 1.955,120.008 1.922 C 119.954 1.888,118.861 1.702,117.580 1.507 C 116.298 1.313,115.056 1.120,114.818 1.079 C 109.553 0.172,97.048 -0.289,90.917 0.198 " stroke="none" fill="#cc0404" fill-rule="evenodd"></path><path id="path1" d="M198.958 44.833 L 200.000 45.913 201.042 44.833 L 202.083 43.754 201.042 44.747 L 200.000 45.740 198.958 44.747 L 197.917 43.754 198.958 44.833 " stroke="none" fill="#d00404" fill-rule="evenodd"></path><path id="path2" d="M198.958 44.833 L 200.000 45.913 201.042 44.833 L 202.083 43.754 201.042 44.747 L 200.000 45.740 198.958 44.747 L 197.917 43.754 198.958 44.833 " stroke="none" fill="#d00404" fill-rule="evenodd"></path><path id="path3" d="M198.958 44.833 L 200.000 45.913 201.042 44.833 L 202.083 43.754 201.042 44.747 L 200.000 45.740 198.958 44.747 L 197.917 43.754 198.958 44.833 " stroke="none" fill="#d00404" fill-rule="evenodd"></path><path id="path4" d="M198.958 44.833 L 200.000 45.913 201.042 44.833 L 202.083 43.754 201.042 44.747 L 200.000 45.740 198.958 44.747 L 197.917 43.754 198.958 44.833 " stroke="none" fill="#d00404" fill-rule="evenodd"></path></g></svg>