<svg id="svg" version="1.1" xmlns="http://www.w3.org/2000/svg" xmlns:xlink="http://www.w3.org/1999/xlink" width="400" height="399.609375" viewBox="0, 0, 400,399.609375"><g id="svgg"><path id="path0" d="M100.586 93.043 L 93.945 93.388 92.123 95.318 C 85.851 101.960,80.582 112.577,78.070 123.633 L 77.182 127.539 77.055 176.886 C 76.933 224.079,76.958 226.224,77.624 226.032 C 78.710 225.719,86.224 224.284,89.258 223.810 C 97.122 222.582,101.955 222.201,112.207 221.998 C 118.384 221.876,123.438 221.662,123.438 221.524 C 123.438 221.385,123.007 219.195,122.480 216.656 C 111.703 164.684,152.125 116.863,203.906 120.326 C 218.256 121.286,228.702 123.937,239.648 129.398 C 290.754 154.893,293.292 231.741,244.141 265.430 C 242.314 266.682,240.593 267.985,240.315 268.326 C 240.037 268.666,239.774 268.885,239.729 268.812 C 239.685 268.738,239.168 268.897,238.580 269.165 L 237.511 269.651 241.705 273.988 C 255.259 288.006,265.410 302.155,273.748 318.651 C 275.403 321.926,276.955 324.607,277.196 324.608 C 278.201 324.611,284.043 322.487,287.427 320.887 C 305.605 312.293,318.619 295.097,322.323 274.778 C 323.276 269.551,323.312 266.171,323.092 203.125 L 322.986 172.852 320.230 170.508 C 304.286 156.950,294.122 149.261,281.339 141.088 C 227.580 106.718,163.789 89.762,100.586 93.043 M63.638 97.039 C 63.547 97.130,60.749 97.753,57.420 98.423 C 39.370 102.059,21.494 107.281,5.096 113.709 L 0.000 115.706 0.000 190.518 C -0.000 263.793,0.015 265.319,0.738 264.794 C 1.144 264.499,3.209 262.837,5.328 261.101 C 17.710 250.951,35.373 240.522,50.195 234.609 L 54.492 232.895 54.710 180.022 C 54.869 141.388,55.055 126.426,55.399 124.465 C 57.085 114.854,59.456 106.697,62.427 100.293 C 63.882 97.155,64.096 96.581,63.638 97.039 M189.897 147.868 C 156.889 153.657,137.764 192.026,152.917 222.060 L 154.883 225.956 160.352 227.372 C 177.868 231.908,197.167 240.225,210.293 248.896 L 212.578 250.406 214.785 249.769 C 243.447 241.499,259.256 209.702,249.723 179.500 C 244.513 162.996,230.767 151.817,211.484 148.402 C 205.366 147.319,194.551 147.051,189.897 147.868 M345.573 203.161 C 345.431 206.901,345.314 223.195,345.314 239.371 C 345.313 256.895,345.149 270.314,344.909 272.574 C 341.374 305.792,319.308 333.581,287.452 344.934 L 284.864 345.856 285.606 348.416 C 289.979 363.505,292.408 378.923,292.666 393.226 L 292.773 399.148 307.031 399.052 C 337.872 398.844,356.839 391.485,375.221 372.595 C 393.699 353.607,399.988 335.221,399.996 300.165 L 400.000 284.900 398.985 282.392 C 387.414 253.777,369.244 223.894,349.049 200.265 C 348.098 199.152,346.985 197.819,346.576 197.302 C 345.833 196.365,345.830 196.384,345.573 203.161 " stroke="none" fill="#cc4276" fill-rule="evenodd"></path><path id="path1" d="M75.586 0.624 C 49.942 4.113,27.390 18.711,13.295 40.944 C 10.538 45.293,7.641 50.740,7.930 51.029 C 8.022 51.121,8.311 50.682,8.572 50.053 C 9.694 47.344,42.947 39.531,68.555 35.960 C 117.391 29.150,173.773 33.718,221.094 48.317 L 228.320 50.546 247.852 50.813 C 267.322 51.079,269.487 51.221,277.287 52.754 C 306.206 58.435,332.606 81.986,340.882 109.484 C 341.191 110.511,341.603 111.253,341.797 111.132 C 342.847 110.484,367.662 132.360,377.539 142.641 C 383.428 148.770,391.639 157.889,396.096 163.249 L 399.805 167.709 399.914 123.991 C 400.010 85.687,399.946 79.717,399.400 75.781 C 393.888 36.077,363.486 5.889,323.658 0.570 C 317.499 -0.252,81.648 -0.201,75.586 0.624 " stroke="none" fill="#6968ae" fill-rule="evenodd"></path><path id="path2" d="M168.488 51.074 C 185.639 51.130,213.588 51.130,230.597 51.074 C 247.607 51.018,233.574 50.972,199.414 50.972 C 165.254 50.972,151.337 51.018,168.488 51.074 M81.421 74.316 L 80.273 75.586 81.543 74.439 C 82.726 73.369,82.992 73.047,82.690 73.047 C 82.623 73.047,82.052 73.618,81.421 74.316 M78.104 77.637 L 76.758 79.102 78.223 77.755 C 79.586 76.502,79.867 76.172,79.569 76.172 C 79.504 76.172,78.844 76.831,78.104 77.637 M305.078 91.602 C 305.807 92.354,306.491 92.969,306.599 92.969 C 306.706 92.969,306.198 92.354,305.469 91.602 C 304.740 90.850,304.056 90.234,303.948 90.234 C 303.841 90.234,304.349 90.850,305.078 91.602 M194.238 120.582 C 194.614 120.680,195.229 120.680,195.605 120.582 C 195.981 120.484,195.674 120.403,194.922 120.403 C 194.170 120.403,193.862 120.484,194.238 120.582 M345.113 200.781 C 345.113 236.982,345.159 251.792,345.215 233.691 C 345.271 215.591,345.271 185.972,345.215 167.871 C 345.159 149.771,345.113 164.580,345.113 200.781 M201.660 147.144 C 202.036 147.243,202.651 147.243,203.027 147.144 C 203.403 147.046,203.096 146.966,202.344 146.966 C 201.592 146.966,201.284 147.046,201.660 147.144 M54.877 216.406 C 54.877 245.518,54.924 257.427,54.980 242.871 C 55.037 228.315,55.037 204.497,54.980 189.941 C 54.924 175.386,54.877 187.295,54.877 216.406 M76.751 223.438 C 76.751 248.467,76.798 258.706,76.855 246.191 C 76.913 233.677,76.913 213.198,76.855 200.684 C 76.798 188.169,76.751 198.408,76.751 223.438 M121.184 191.016 C 121.184 191.768,121.265 192.075,121.363 191.699 C 121.461 191.323,121.461 190.708,121.363 190.332 C 121.265 189.956,121.184 190.264,121.184 191.016 M252.442 193.164 C 252.447 194.023,252.527 194.329,252.620 193.843 C 252.713 193.357,252.710 192.654,252.612 192.281 C 252.514 191.907,252.438 192.305,252.442 193.164 M279.005 193.164 C 279.009 194.023,279.089 194.329,279.183 193.843 C 279.276 193.357,279.272 192.654,279.175 192.281 C 279.077 191.907,279.000 192.305,279.005 193.164 M120.860 199.609 C 120.860 202.939,120.920 204.302,120.993 202.637 C 121.067 200.972,121.067 198.247,120.993 196.582 C 120.920 194.917,120.860 196.279,120.860 199.609 M147.406 199.609 C 147.406 201.650,147.472 202.485,147.553 201.465 C 147.633 200.444,147.633 198.774,147.553 197.754 C 147.472 196.733,147.406 197.568,147.406 199.609 M252.434 201.953 C 252.434 202.705,252.515 203.013,252.613 202.637 C 252.711 202.261,252.711 201.646,252.613 201.270 C 252.515 200.894,252.434 201.201,252.434 201.953 M279.013 202.734 C 279.013 203.701,279.089 204.097,279.182 203.613 C 279.275 203.130,279.275 202.339,279.182 201.855 C 279.089 201.372,279.013 201.768,279.013 202.734 M147.747 205.859 C 147.747 206.611,147.827 206.919,147.926 206.543 C 148.024 206.167,148.024 205.552,147.926 205.176 C 147.827 204.800,147.747 205.107,147.747 205.859 M121.192 208.398 C 121.197 209.258,121.277 209.563,121.370 209.077 C 121.463 208.592,121.460 207.888,121.362 207.515 C 121.264 207.142,121.188 207.539,121.192 208.398 M121.575 211.328 C 121.575 212.080,121.655 212.388,121.754 212.012 C 121.852 211.636,121.852 211.021,121.754 210.645 C 121.655 210.269,121.575 210.576,121.575 211.328 M150.224 216.797 C 150.368 217.334,150.648 218.037,150.847 218.359 C 151.099 218.767,151.130 218.647,150.948 217.969 C 150.804 217.432,150.524 216.729,150.325 216.406 C 150.073 215.999,150.042 216.118,150.224 216.797 M154.695 226.458 C 157.313 231.213,164.135 238.742,168.882 242.114 C 171.722 244.132,171.022 243.321,167.779 240.838 C 163.860 237.836,159.528 233.162,156.610 228.788 C 153.868 224.677,153.401 224.109,154.695 226.458 M125.224 226.172 C 125.368 226.709,125.648 227.412,125.847 227.734 C 126.099 228.142,126.130 228.022,125.948 227.344 C 125.804 226.807,125.524 226.104,125.325 225.781 C 125.073 225.374,125.042 225.493,125.224 226.172 M241.577 231.122 C 240.975 231.910,240.683 232.432,240.927 232.282 C 241.427 231.973,243.118 229.688,242.846 229.688 C 242.750 229.688,242.179 230.333,241.577 231.122 M126.986 230.664 C 126.986 230.879,127.323 231.670,127.734 232.422 C 128.146 233.174,128.483 233.613,128.483 233.398 C 128.483 233.184,128.146 232.393,127.734 231.641 C 127.323 230.889,126.986 230.449,126.986 230.664 M239.233 234.082 L 238.086 235.352 239.355 234.204 C 240.054 233.573,240.625 233.002,240.625 232.935 C 240.625 232.633,240.303 232.899,239.233 234.082 M236.499 237.207 L 235.352 238.477 236.621 237.329 C 237.319 236.698,237.891 236.127,237.891 236.060 C 237.891 235.758,237.568 236.024,236.499 237.207 M130.469 237.891 C 130.907 238.750,131.354 239.453,131.461 239.453 C 131.569 239.453,131.298 238.750,130.859 237.891 C 130.421 237.031,129.974 236.328,129.867 236.328 C 129.760 236.328,130.030 237.031,130.469 237.891 M131.981 240.430 C 132.192 240.859,132.651 241.563,133.001 241.992 L 133.637 242.773 133.253 241.992 C 133.042 241.563,132.583 240.859,132.234 240.430 L 131.598 239.648 131.981 240.430 M171.680 243.941 C 172.552 244.667,175.027 246.005,174.414 245.420 C 174.199 245.215,173.320 244.652,172.461 244.170 C 171.602 243.687,171.250 243.584,171.680 243.941 M135.533 245.879 C 136.191 246.834,136.915 247.732,137.143 247.872 C 137.371 248.013,136.913 247.231,136.125 246.134 C 134.365 243.686,133.880 243.476,135.533 245.879 M263.672 246.094 C 263.213 246.738,262.925 247.266,263.033 247.266 C 263.140 247.266,263.604 246.738,264.063 246.094 C 264.521 245.449,264.809 244.922,264.702 244.922 C 264.594 244.922,264.131 245.449,263.672 246.094 M175.000 245.895 C 175.000 246.162,177.392 247.348,177.570 247.169 C 177.655 247.084,177.112 246.723,176.362 246.365 C 175.613 246.008,175.000 245.796,175.000 245.895 M138.715 250.000 C 142.090 254.513,153.519 264.695,157.124 266.401 C 157.894 266.765,157.882 266.730,157.033 266.125 C 149.802 260.969,144.389 256.181,139.463 250.586 C 138.027 248.955,137.800 248.777,138.715 250.000 M205.957 251.832 C 206.333 251.930,206.948 251.930,207.324 251.832 C 207.700 251.734,207.393 251.653,206.641 251.653 C 205.889 251.653,205.581 251.734,205.957 251.832 M198.159 252.242 C 199.402 252.320,201.336 252.319,202.456 252.241 C 203.576 252.162,202.559 252.098,200.195 252.099 C 197.832 252.100,196.916 252.164,198.159 252.242 M255.266 255.957 L 251.367 259.961 255.371 256.062 C 257.573 253.918,259.375 252.116,259.375 252.058 C 259.375 251.776,258.887 252.238,255.266 255.957 M247.266 262.938 C 245.904 264.132,245.904 264.133,247.156 263.300 C 247.848 262.840,248.517 262.296,248.644 262.091 C 249.021 261.481,248.708 261.674,247.266 262.938 M242.584 266.072 C 239.400 268.195,238.720 268.742,240.234 267.962 C 241.579 267.270,245.703 264.465,245.703 264.243 C 245.703 263.985,245.789 263.935,242.584 266.072 M158.789 267.389 C 159.663 268.106,162.917 269.827,162.305 269.248 C 162.090 269.045,161.035 268.399,159.961 267.813 C 158.887 267.227,158.359 267.036,158.789 267.389 M237.402 269.167 C 236.597 269.593,235.938 270.028,235.938 270.134 C 235.938 270.241,236.641 269.970,237.500 269.531 C 238.359 269.093,239.063 268.650,239.063 268.547 C 239.063 268.291,239.060 268.292,237.402 269.167 M77.052 270.898 C 77.056 271.758,77.136 272.063,77.229 271.577 C 77.323 271.092,77.319 270.388,77.222 270.015 C 77.124 269.642,77.047 270.039,77.052 270.898 M55.195 271.875 C 55.195 273.057,55.268 273.540,55.358 272.949 C 55.447 272.358,55.447 271.392,55.358 270.801 C 55.268 270.210,55.195 270.693,55.195 271.875 M232.031 271.875 C 231.279 272.287,230.840 272.624,231.055 272.624 C 231.270 272.624,232.061 272.287,232.813 271.875 C 233.564 271.463,234.004 271.126,233.789 271.126 C 233.574 271.126,232.783 271.463,232.031 271.875 M166.797 271.611 C 166.797 271.883,172.699 274.306,172.892 274.113 C 172.980 274.025,171.779 273.442,170.223 272.817 C 168.667 272.191,167.260 271.621,167.096 271.549 C 166.931 271.478,166.797 271.505,166.797 271.611 M77.435 273.633 C 77.436 274.277,77.570 275.332,77.734 275.977 C 78.148 277.601,78.166 276.002,77.757 274.023 C 77.485 272.710,77.434 272.648,77.435 273.633 M55.515 275.423 C 55.540 276.157,55.704 277.285,55.879 277.930 C 56.088 278.700,56.123 278.299,55.979 276.758 C 55.739 274.175,55.442 273.321,55.515 275.423 M177.539 275.781 C 177.969 275.966,178.584 276.117,178.906 276.117 C 179.276 276.117,179.203 275.993,178.711 275.781 C 178.281 275.597,177.666 275.446,177.344 275.446 C 176.974 275.446,177.047 275.570,177.539 275.781 M182.031 276.953 C 182.568 277.125,183.359 277.266,183.789 277.266 C 184.408 277.266,184.367 277.201,183.594 276.953 C 183.057 276.781,182.266 276.640,181.836 276.640 C 181.217 276.640,181.258 276.705,182.031 276.953 M78.343 278.658 C 81.052 296.872,99.293 316.976,119.469 323.986 C 129.053 327.315,125.471 327.111,174.805 327.143 C 198.867 327.158,211.638 327.120,203.183 327.057 L 187.812 326.944 184.629 323.990 C 160.117 301.241,123.860 291.998,91.907 300.350 L 89.088 301.087 86.704 297.407 C 83.324 292.190,81.234 287.505,79.059 280.273 C 78.542 278.555,78.220 277.828,78.343 278.658 M185.742 277.734 C 186.387 277.898,187.441 278.033,188.086 278.034 C 189.071 278.035,189.009 277.984,187.695 277.712 C 185.717 277.303,184.118 277.321,185.742 277.734 M190.332 278.394 C 190.708 278.493,191.323 278.493,191.699 278.394 C 192.075 278.296,191.768 278.216,191.016 278.216 C 190.264 278.216,189.956 278.296,190.332 278.394 M208.301 278.394 C 208.677 278.493,209.292 278.493,209.668 278.394 C 210.044 278.296,209.736 278.216,208.984 278.216 C 208.232 278.216,207.925 278.296,208.301 278.394 M196.172 278.806 C 198.041 278.878,201.205 278.878,203.203 278.807 C 205.201 278.736,203.672 278.677,199.805 278.677 C 195.938 278.677,194.303 278.735,196.172 278.806 M56.335 280.078 C 56.331 280.615,56.469 281.494,56.641 282.031 C 57.061 283.344,57.061 281.926,56.641 280.273 C 56.373 279.221,56.342 279.201,56.335 280.078 M57.245 284.570 C 57.954 289.183,63.102 301.914,66.748 308.067 L 67.940 310.079 67.072 310.297 C 66.595 310.416,64.096 311.899,61.520 313.591 C 43.660 325.321,30.523 341.264,22.792 360.590 C 21.383 364.111,20.192 367.035,20.144 367.087 C 20.097 367.139,18.863 365.576,17.403 363.613 C 12.249 356.685,8.212 349.230,5.437 341.516 C 4.725 339.536,4.073 337.984,3.989 338.069 C 3.643 338.414,6.963 346.631,9.361 351.367 C 22.552 377.412,47.548 395.073,76.244 398.626 C 80.762 399.185,220.951 399.499,218.066 398.943 C 217.235 398.783,217.187 398.589,217.188 395.371 C 217.188 382.586,212.219 363.376,205.889 351.690 L 204.769 349.621 216.154 349.511 C 222.416 349.451,208.203 349.355,184.570 349.298 C 141.206 349.193,132.381 348.976,125.977 347.853 C 93.385 342.139,67.888 319.385,58.349 287.500 C 57.610 285.029,57.113 283.711,57.245 284.570 M316.211 292.969 C 315.878 293.613,315.693 294.141,315.800 294.141 C 315.908 294.141,316.268 293.613,316.602 292.969 C 316.935 292.324,317.120 291.797,317.012 291.797 C 316.905 291.797,316.544 292.324,316.211 292.969 M312.681 298.926 C 312.079 299.839,311.836 300.380,312.141 300.128 C 312.727 299.643,314.223 297.266,313.941 297.266 C 313.850 297.266,313.283 298.013,312.681 298.926 M304.480 309.082 L 302.148 311.523 304.590 309.192 C 305.933 307.910,307.031 306.811,307.031 306.751 C 307.031 306.462,306.646 306.814,304.480 309.082 M0.134 316.602 C 0.135 318.320,0.204 318.975,0.287 318.056 C 0.369 317.137,0.368 315.731,0.284 314.931 C 0.200 314.131,0.132 314.883,0.134 316.602 M295.001 316.574 C 293.187 317.857,292.932 318.223,294.464 317.346 C 295.178 316.937,295.947 316.382,296.172 316.113 C 296.749 315.423,296.478 315.530,295.001 316.574 M288.281 320.508 C 286.885 321.239,285.879 321.846,286.046 321.856 C 286.462 321.882,291.016 319.567,291.016 319.330 C 291.016 319.068,291.107 319.028,288.281 320.508 M0.481 321.875 C 0.481 322.627,0.562 322.935,0.660 322.559 C 0.758 322.183,0.758 321.567,0.660 321.191 C 0.562 320.815,0.481 321.123,0.481 321.875 M279.688 324.023 C 278.291 324.527,277.334 324.953,277.561 324.970 C 278.084 325.008,282.813 323.420,282.813 323.206 C 282.813 322.943,282.344 323.065,279.688 324.023 M319.531 324.805 C 318.582 325.771,317.894 326.563,318.001 326.563 C 318.109 326.563,318.973 325.771,319.922 324.805 C 320.871 323.838,321.559 323.047,321.452 323.047 C 321.344 323.047,320.480 323.838,319.531 324.805 M0.872 324.609 C 0.872 325.361,0.952 325.669,1.051 325.293 C 1.149 324.917,1.149 324.302,1.051 323.926 C 0.952 323.550,0.872 323.857,0.872 324.609 M1.264 326.953 C 1.264 327.490,1.398 328.457,1.563 329.102 C 1.828 330.147,1.861 330.168,1.861 329.297 C 1.861 328.760,1.727 327.793,1.563 327.148 C 1.297 326.103,1.264 326.082,1.264 326.953 M268.066 326.832 C 268.442 326.930,269.058 326.930,269.434 326.832 C 269.810 326.734,269.502 326.653,268.750 326.653 C 267.998 326.653,267.690 326.734,268.066 326.832 M263.770 327.233 C 264.360 327.322,265.327 327.322,265.918 327.233 C 266.509 327.143,266.025 327.070,264.844 327.070 C 263.662 327.070,263.179 327.143,263.770 327.233 M315.796 328.223 L 314.648 329.492 315.918 328.345 C 316.616 327.714,317.188 327.143,317.188 327.075 C 317.188 326.774,316.865 327.039,315.796 328.223 M248.145 327.631 C 249.165 327.711,250.835 327.711,251.855 327.631 C 252.876 327.550,252.041 327.485,250.000 327.485 C 247.959 327.485,247.124 327.550,248.145 327.631 M312.305 331.097 L 310.742 332.496 312.402 331.254 C 313.831 330.185,314.347 329.671,313.965 329.693 C 313.911 329.697,313.164 330.328,312.305 331.097 M2.410 332.617 C 2.404 333.047,2.550 333.750,2.734 334.180 C 3.162 335.175,3.162 334.148,2.734 332.813 C 2.483 332.027,2.419 331.989,2.410 332.617 M309.180 333.433 L 308.008 334.440 309.277 333.599 C 309.976 333.137,310.547 332.683,310.547 332.591 C 310.547 332.298,310.381 332.400,309.180 333.433 M3.180 335.547 C 3.180 335.869,3.331 336.484,3.516 336.914 C 3.727 337.406,3.851 337.479,3.851 337.109 C 3.851 336.787,3.700 336.172,3.516 335.742 C 3.304 335.250,3.180 335.178,3.180 335.547 M305.176 335.982 C 303.844 336.835,303.413 337.408,304.590 336.761 C 305.486 336.268,306.890 335.183,306.641 335.175 C 306.533 335.172,305.874 335.535,305.176 335.982 M298.047 340.039 C 296.650 340.770,295.645 341.377,295.812 341.387 C 296.227 341.413,300.781 339.098,300.781 338.862 C 300.781 338.599,300.873 338.560,298.047 340.039 M292.969 342.383 C 292.432 342.690,292.168 342.941,292.383 342.941 C 292.598 342.941,293.213 342.690,293.750 342.383 C 294.287 342.076,294.551 341.825,294.336 341.825 C 294.121 341.825,293.506 342.076,292.969 342.383 M268.848 348.707 C 269.224 348.805,269.839 348.805,270.215 348.707 C 270.591 348.609,270.283 348.528,269.531 348.528 C 268.779 348.528,268.472 348.609,268.848 348.707 M262.012 349.114 C 262.925 349.196,264.419 349.196,265.332 349.114 C 266.245 349.032,265.498 348.965,263.672 348.965 C 261.846 348.965,261.099 349.032,262.012 349.114 M322.754 398.707 C 323.130 398.805,323.745 398.805,324.121 398.707 C 324.497 398.609,324.189 398.528,323.438 398.528 C 322.686 398.528,322.378 398.609,322.754 398.707 M318.848 399.097 C 319.224 399.196,319.839 399.196,320.215 399.097 C 320.591 398.999,320.283 398.919,319.531 398.919 C 318.779 398.919,318.472 398.999,318.848 399.097 " stroke="none" fill="#f7b65f" fill-rule="evenodd"></path><path id="path3" d="M101.758 33.057 C 73.466 34.208,44.406 38.907,16.144 46.901 L 9.046 48.909 8.225 50.724 C 7.774 51.722,7.245 52.803,7.049 53.125 C 4.683 57.022,1.857 67.489,0.570 77.124 C -0.199 82.889,-0.270 115.814,0.488 115.517 C 0.757 115.412,3.065 114.507,5.617 113.507 C 21.517 107.277,39.579 102.017,57.407 98.426 C 60.729 97.757,63.565 97.136,63.709 97.047 C 63.853 96.958,63.134 98.773,62.110 101.080 C 60.326 105.103,59.444 107.446,59.869 107.031 C 59.979 106.924,60.717 105.254,61.509 103.320 C 71.745 78.311,95.743 58.214,121.680 52.931 C 131.248 50.982,128.729 51.069,180.219 50.898 C 206.829 50.809,228.526 50.662,228.435 50.570 C 228.046 50.182,213.212 45.923,205.469 43.976 C 172.053 35.577,135.203 31.697,101.758 33.057 M134.347 72.799 C 134.255 72.883,133.213 73.045,132.031 73.159 C 115.010 74.804,94.337 87.944,86.582 102.047 C 85.744 103.571,86.196 103.025,89.263 98.805 C 90.444 97.182,91.980 95.312,92.677 94.651 L 93.945 93.450 102.148 93.013 C 160.160 89.922,222.087 105.458,272.852 135.838 C 289.546 145.828,301.532 154.600,320.228 170.508 L 322.983 172.852 323.121 202.930 C 323.197 219.473,323.254 209.453,323.247 180.664 L 323.235 128.320 322.342 124.102 C 317.208 99.855,300.161 81.519,276.563 74.859 C 274.100 74.164,273.197 73.989,267.383 73.082 C 265.170 72.737,134.720 72.460,134.347 72.799 M287.455 100.801 C 296.434 103.955,301.477 113.788,298.894 123.103 C 294.071 140.499,268.999 140.777,263.658 123.494 C 259.243 109.210,273.283 95.822,287.455 100.801 M84.961 104.688 C 84.628 105.332,84.443 105.859,84.550 105.859 C 84.658 105.859,85.018 105.332,85.352 104.688 C 85.685 104.043,85.870 103.516,85.762 103.516 C 85.655 103.516,85.294 104.043,84.961 104.688 M341.670 111.195 C 341.529 111.336,341.569 111.644,341.760 111.878 C 341.950 112.113,342.191 112.945,342.294 113.728 C 342.397 114.511,342.583 115.317,342.708 115.519 C 342.931 115.880,344.241 123.351,344.747 127.148 C 344.890 128.223,345.118 146.328,345.253 167.383 C 345.388 188.438,345.589 203.590,345.699 201.055 L 345.898 196.445 348.242 199.278 C 354.945 207.379,356.739 209.628,360.654 214.836 C 374.818 233.681,387.857 256.210,396.840 277.356 C 398.160 280.464,399.400 283.359,399.594 283.789 C 399.806 284.259,399.958 261.344,399.974 226.235 L 400.000 167.899 396.020 163.149 C 381.333 145.619,363.806 128.380,346.383 114.327 C 341.882 110.696,342.054 110.811,341.670 111.195 M196.875 120.142 C 198.245 120.444,200.701 120.498,200.530 120.222 C 200.428 120.057,199.432 119.942,198.317 119.967 C 197.202 119.992,196.553 120.071,196.875 120.142 M191.309 120.588 C 191.792 120.681,192.583 120.681,193.066 120.588 C 193.550 120.495,193.154 120.419,192.188 120.419 C 191.221 120.419,190.825 120.495,191.309 120.588 M203.613 120.592 C 204.204 120.682,205.171 120.682,205.762 120.592 C 206.353 120.503,205.869 120.430,204.688 120.430 C 203.506 120.430,203.022 120.503,203.613 120.592 M208.891 120.979 C 209.377 121.073,210.080 121.069,210.454 120.972 C 210.827 120.874,210.430 120.797,209.570 120.802 C 208.711 120.806,208.405 120.886,208.891 120.979 M211.816 121.363 C 212.192 121.461,212.808 121.461,213.184 121.363 C 213.560 121.265,213.252 121.184,212.500 121.184 C 211.748 121.184,211.440 121.265,211.816 121.363 M55.169 127.344 C 55.169 128.096,55.249 128.403,55.347 128.027 C 55.446 127.651,55.446 127.036,55.347 126.660 C 55.249 126.284,55.169 126.592,55.169 127.344 M235.547 127.734 C 236.299 128.146,237.090 128.483,237.305 128.483 C 237.520 128.483,237.080 128.146,236.328 127.734 C 235.576 127.323,234.785 126.986,234.570 126.986 C 234.355 126.986,234.795 127.323,235.547 127.734 M54.866 147.266 C 54.866 156.396,54.918 160.132,54.980 155.566 C 55.043 151.001,55.043 143.530,54.980 138.965 C 54.918 134.399,54.866 138.135,54.866 147.266 M242.773 131.143 C 242.988 131.348,243.867 131.910,244.727 132.393 C 245.586 132.876,245.938 132.978,245.508 132.621 C 244.635 131.896,242.160 130.558,242.773 131.143 M76.746 155.469 C 76.746 168.037,76.795 173.179,76.855 166.895 C 76.916 160.610,76.916 150.327,76.855 144.043 C 76.795 137.759,76.746 142.900,76.746 155.469 M248.828 134.908 C 248.828 135.015,249.355 135.479,250.000 135.938 C 250.645 136.396,251.172 136.684,251.172 136.577 C 251.172 136.469,250.645 136.006,250.000 135.547 C 249.355 135.088,248.828 134.800,248.828 134.908 M252.930 138.097 C 255.584 140.635,256.988 141.797,256.049 140.679 C 255.622 140.172,254.395 139.047,253.320 138.180 L 251.367 136.604 252.930 138.097 M143.935 143.066 L 141.211 145.898 144.043 143.175 C 145.601 141.676,146.875 140.402,146.875 140.343 C 146.875 140.056,146.465 140.436,143.935 143.066 M260.179 145.082 C 261.373 146.390,263.108 148.472,264.034 149.707 C 264.961 150.942,265.797 151.953,265.892 151.953 C 266.334 151.953,263.199 148.030,260.742 145.509 C 258.803 143.519,258.639 143.395,260.179 145.082 M196.788 147.162 C 197.706 147.244,199.113 147.243,199.913 147.159 C 200.713 147.075,199.961 147.007,198.242 147.009 C 196.523 147.010,195.869 147.079,196.788 147.162 M204.785 147.535 C 205.161 147.633,205.776 147.633,206.152 147.535 C 206.528 147.437,206.221 147.356,205.469 147.356 C 204.717 147.356,204.409 147.437,204.785 147.535 M269.336 157.813 C 269.669 158.457,270.030 158.984,270.137 158.984 C 270.245 158.984,270.060 158.457,269.727 157.813 C 269.393 157.168,269.033 156.641,268.925 156.641 C 268.818 156.641,269.003 157.168,269.336 157.813 M238.857 161.648 C 240.355 163.191,241.652 164.453,241.740 164.453 C 242.026 164.453,238.899 161.159,237.500 159.988 C 236.748 159.358,237.359 160.105,238.857 161.648 M163.061 161.816 L 161.914 163.086 163.184 161.939 C 164.367 160.869,164.633 160.547,164.331 160.547 C 164.264 160.547,163.692 161.118,163.061 161.816 M278.997 190.625 C 278.997 191.377,279.077 191.685,279.176 191.309 C 279.274 190.933,279.274 190.317,279.176 189.941 C 279.077 189.565,278.997 189.873,278.997 190.625 M252.480 197.656 C 252.480 199.482,252.548 200.229,252.630 199.316 C 252.712 198.403,252.712 196.909,252.630 195.996 C 252.548 195.083,252.480 195.830,252.480 197.656 M323.172 235.938 C 323.172 237.334,323.243 237.905,323.329 237.207 C 323.416 236.509,323.416 235.366,323.329 234.668 C 323.243 233.970,323.172 234.541,323.172 235.938 M323.168 265.820 C 323.170 267.109,323.243 267.590,323.330 266.888 C 323.417 266.185,323.415 265.131,323.326 264.544 C 323.237 263.957,323.166 264.531,323.168 265.820 M345.039 268.359 C 345.039 269.541,345.112 270.024,345.202 269.434 C 345.291 268.843,345.291 267.876,345.202 267.285 C 345.112 266.694,345.039 267.178,345.039 268.359 M399.700 317.969 C 399.700 318.721,399.780 319.028,399.879 318.652 C 399.977 318.276,399.977 317.661,399.879 317.285 C 399.780 316.909,399.700 317.217,399.700 317.969 M399.309 321.875 C 399.309 322.627,399.390 322.935,399.488 322.559 C 399.586 322.183,399.586 321.567,399.488 321.191 C 399.390 320.815,399.309 321.123,399.309 321.875 M382.811 363.770 C 382.236 364.555,382.142 364.828,382.564 364.485 C 383.204 363.965,384.173 362.500,383.876 362.500 C 383.802 362.500,383.322 363.071,382.811 363.770 M374.601 373.340 L 371.289 376.758 374.707 373.446 C 377.882 370.370,378.303 369.922,378.019 369.922 C 377.960 369.922,376.422 371.460,374.601 373.340 " stroke="none" fill="#94589e" fill-rule="evenodd"></path><path id="path4" d="M123.444 221.337 C 123.439 221.646,120.115 221.841,112.207 221.998 C 101.955 222.201,97.122 222.582,89.258 223.810 C 86.246 224.281,78.715 225.718,77.637 226.028 C 76.659 226.309,76.595 266.011,77.562 272.606 C 78.930 281.941,81.895 289.984,86.704 297.407 L 89.088 301.087 91.907 300.350 C 123.861 291.997,160.117 301.241,184.630 323.991 L 187.815 326.946 226.817 327.047 C 256.791 327.125,266.499 327.034,268.750 326.656 C 273.186 325.910,277.391 324.882,277.024 324.635 C 276.843 324.513,275.206 321.514,273.384 317.969 C 264.827 301.314,255.175 287.918,241.661 273.943 L 237.424 269.561 234.434 271.060 C 192.581 292.043,139.899 269.905,124.828 225.000 C 124.070 222.744,123.448 221.096,123.444 221.337 M155.311 226.898 C 167.238 245.607,188.709 255.189,209.686 251.163 C 212.882 250.550,212.772 250.364,207.197 246.964 C 193.782 238.783,176.697 231.639,160.237 227.328 L 154.653 225.866 155.311 226.898 M50.195 234.617 C 34.185 241.039,17.451 251.043,3.554 262.500 L 0.001 265.430 0.009 288.477 C 0.022 325.551,1.084 333.065,8.573 349.023 C 11.179 354.576,19.586 367.700,20.144 367.087 C 20.192 367.035,21.383 364.111,22.792 360.590 C 30.523 341.264,43.660 325.321,61.520 313.591 C 64.096 311.899,66.595 310.416,67.072 310.297 L 67.940 310.079 66.748 308.067 C 62.588 301.046,58.279 289.964,56.681 282.176 C 55.061 274.277,54.974 272.981,54.733 252.873 L 54.492 232.894 50.195 234.617 M281.445 346.538 C 272.789 348.923,263.414 349.336,212.635 349.573 L 204.763 349.609 205.886 351.684 C 212.214 363.367,217.188 382.584,217.188 395.350 L 217.188 398.730 218.425 398.978 C 219.105 399.114,236.815 399.193,257.780 399.153 C 278.745 399.113,295.257 399.014,294.472 398.933 L 293.047 398.786 292.810 393.436 C 292.076 376.851,289.656 361.897,285.406 347.676 C 284.779 345.580,284.851 345.600,281.445 346.538 " stroke="none" fill="#f48b49" fill-rule="evenodd"></path></g></svg>