<svg id="svg" version="1.1" xmlns="http://www.w3.org/2000/svg" xmlns:xlink="http://www.w3.org/1999/xlink" width="400" height="267.5" viewBox="0, 0, 400,267.5"><g id="svgg"><path id="path0" d="M0.625 45.104 L 0.625 89.583 200.000 89.583 L 399.375 89.583 399.375 45.104 L 399.375 0.625 200.000 0.625 L 0.625 0.625 0.625 45.104 " stroke="none" fill="#fc9c34" fill-rule="evenodd"></path><path id="path1" d="M0.000 133.750 L 0.000 267.500 200.000 267.500 L 400.000 267.500 400.000 133.750 L 400.000 0.000 200.000 0.000 L 0.000 0.000 0.000 133.750 M399.583 133.750 L 399.583 267.083 200.000 267.083 L 0.417 267.083 0.417 133.750 L 0.417 0.417 200.000 0.417 L 399.583 0.417 399.583 133.750 M195.625 98.550 C 165.675 102.222,153.025 138.439,174.272 159.686 C 196.409 181.823,234.093 167.091,235.553 135.729 C 236.566 113.972,217.167 95.909,195.625 98.550 M201.615 103.256 C 201.872 103.325,202.083 103.516,202.083 103.680 C 202.083 104.935,204.334 105.438,205.348 104.409 C 205.878 103.871,207.012 103.801,207.654 104.265 C 207.682 104.285,206.403 108.193,204.813 112.949 C 202.232 120.668,201.886 121.874,201.584 124.184 C 201.088 127.979,201.056 128.125,200.720 128.125 C 200.353 128.125,200.313 125.986,200.636 123.542 C 200.887 121.636,200.174 103.298,199.861 103.611 C 199.807 103.665,199.496 107.746,199.169 112.679 L 198.574 121.650 198.973 124.627 C 199.462 128.278,199.462 128.125,198.968 128.125 C 198.518 128.125,198.576 128.343,197.919 124.167 C 197.559 121.873,192.457 104.888,191.988 104.419 C 191.234 103.664,195.307 122.205,196.537 125.123 C 197.907 128.374,197.924 128.438,197.423 128.438 C 197.124 128.438,196.734 127.766,195.733 125.521 C 194.822 123.479,193.572 121.261,191.564 118.125 C 189.987 115.661,187.800 112.247,186.704 110.537 C 185.608 108.826,184.678 107.528,184.637 107.652 C 184.413 108.323,192.735 124.204,194.501 126.474 C 196.117 128.553,196.503 129.375,195.862 129.375 C 195.756 129.375,194.796 128.273,193.730 126.927 C 192.027 124.778,180.551 113.759,178.492 112.296 C 176.098 110.596,189.686 125.733,192.520 127.924 C 193.884 128.978,195.000 129.965,195.000 130.116 C 195.000 130.794,194.414 130.533,192.029 128.794 C 189.736 127.122,184.184 124.066,174.010 118.876 C 172.037 117.870,174.104 119.380,180.990 123.975 C 187.980 128.641,188.886 129.183,191.406 130.209 C 192.924 130.827,194.165 131.384,194.163 131.448 C 194.145 132.097,193.702 132.028,191.030 130.959 C 188.300 129.866,171.409 125.691,170.461 125.875 C 169.376 126.086,187.468 131.973,190.521 132.403 C 193.512 132.824,194.236 133.135,193.470 133.668 C 193.452 133.681,192.172 133.554,190.625 133.386 C 187.900 133.091,175.132 133.438,170.208 133.941 L 168.854 134.079 170.104 134.217 C 178.861 135.183,190.228 135.298,193.177 134.452 C 193.434 134.378,193.542 134.465,193.542 134.746 C 193.542 135.098,193.200 135.200,190.677 135.608 C 188.274 135.996,170.970 141.416,170.226 142.014 C 169.100 142.917,187.768 138.488,190.929 137.102 C 193.667 135.901,193.759 135.877,193.979 136.288 C 194.283 136.856,194.249 136.879,191.163 138.221 C 189.165 139.090,186.937 140.365,182.517 143.168 C 173.825 148.680,173.066 149.177,173.182 149.293 C 173.553 149.665,189.798 141.250,192.063 139.513 C 194.287 137.808,194.780 137.554,194.931 138.034 C 194.965 138.141,193.893 139.114,192.549 140.194 C 190.368 141.947,178.258 154.773,177.943 155.663 C 177.510 156.888,191.816 143.754,193.750 141.152 C 195.646 138.601,195.582 138.663,196.023 138.943 C 196.255 139.090,195.899 139.716,194.335 141.908 C 192.432 144.575,184.123 160.442,184.455 160.774 C 184.514 160.833,185.068 160.097,185.686 159.139 C 186.305 158.180,188.520 154.776,190.610 151.573 C 194.029 146.335,194.533 145.446,195.626 142.719 C 196.822 139.737,197.216 139.230,197.847 139.861 C 197.881 139.895,197.385 141.276,196.746 142.930 C 195.632 145.814,191.484 163.168,191.745 163.851 C 191.852 164.128,191.667 164.643,194.881 155.104 C 197.614 146.993,198.542 143.211,198.542 140.176 C 198.542 140.079,198.729 140.000,198.958 140.000 C 199.462 140.000,199.461 139.982,199.044 143.438 C 198.699 146.295,199.181 164.400,199.615 164.885 C 199.715 164.998,199.797 164.682,199.803 164.156 C 199.810 163.646,200.071 159.496,200.384 154.933 C 200.950 146.689,200.951 146.620,200.587 143.891 C 200.111 140.318,200.109 139.950,200.571 140.039 C 200.869 140.097,201.029 140.701,201.473 143.440 C 201.931 146.265,207.016 163.176,207.638 163.941 C 208.522 165.029,204.272 146.213,202.894 142.940 C 201.902 140.584,201.692 139.904,201.910 139.766 C 202.403 139.454,202.550 139.667,203.804 142.512 C 205.046 145.329,214.977 161.216,215.157 160.674 C 215.399 159.947,207.056 144.212,205.135 141.771 C 203.690 139.937,203.223 139.201,203.379 139.010 C 203.727 138.586,203.794 138.644,205.934 141.267 C 207.551 143.248,209.299 144.962,214.150 149.320 C 217.540 152.365,220.617 155.141,220.990 155.490 C 222.996 157.368,220.990 154.909,215.549 148.822 C 209.900 142.503,209.238 141.836,206.903 140.112 C 204.258 138.159,204.208 138.106,204.648 137.741 C 204.857 137.568,205.498 137.937,207.360 139.302 C 210.223 141.400,227.923 150.777,226.233 149.299 C 224.557 147.835,210.642 139.008,208.821 138.256 C 205.043 136.693,205.215 136.784,205.413 136.463 C 205.562 136.224,206.116 136.365,208.474 137.243 C 210.884 138.139,212.748 138.607,219.896 140.106 C 224.594 141.091,228.672 141.951,228.958 142.017 C 229.314 142.099,229.413 142.069,229.271 141.922 C 228.531 141.159,212.098 136.181,209.081 135.806 C 205.678 135.383,205.770 135.410,205.869 134.856 C 205.935 134.479,206.033 134.478,209.063 134.809 C 212.121 135.144,218.929 134.964,229.115 134.280 L 230.833 134.164 230.833 134.982 C 230.833 136.073,230.662 136.458,230.177 136.458 C 229.455 136.458,228.750 137.385,228.750 138.333 C 228.750 139.176,229.435 140.208,229.994 140.208 C 230.243 140.208,230.166 140.670,229.574 142.719 C 229.183 144.072,229.173 144.084,228.417 144.105 C 226.731 144.153,225.895 146.337,227.149 147.416 L 227.683 147.875 226.693 149.601 L 225.703 151.328 224.703 151.347 C 223.139 151.377,221.977 153.352,222.951 154.326 C 223.135 154.510,222.998 154.782,222.378 155.461 C 220.949 157.026,220.214 157.589,219.947 157.322 C 218.877 156.252,216.769 157.562,216.926 159.200 L 217.019 160.171 215.541 161.013 C 213.728 162.045,213.333 162.201,213.333 161.887 C 213.333 161.512,211.889 160.993,211.272 161.146 C 210.359 161.373,209.792 162.061,209.792 162.944 L 209.792 163.732 208.385 164.140 C 205.844 164.877,205.694 164.885,205.543 164.286 C 205.077 162.428,201.970 162.984,201.821 164.952 C 201.769 165.646,197.708 165.684,197.708 164.990 C 197.708 163.761,196.305 162.682,195.160 163.030 C 194.494 163.232,193.750 163.961,193.750 164.411 C 193.750 164.895,193.413 164.881,191.458 164.310 L 189.896 163.854 189.862 162.960 C 189.789 161.029,187.602 160.221,186.380 161.674 L 185.890 162.257 184.117 161.211 L 182.345 160.166 182.647 159.561 C 183.536 157.779,181.380 156.165,179.546 157.240 L 178.923 157.604 177.584 156.193 L 176.244 154.781 176.663 154.330 C 177.760 153.154,176.786 151.250,175.088 151.250 C 174.595 151.250,174.129 151.351,174.053 151.474 C 173.902 151.718,173.383 151.012,172.354 149.159 L 171.714 148.006 172.315 147.333 C 173.616 145.877,172.741 144.165,170.654 144.083 C 170.201 144.065,170.080 143.900,169.778 142.881 C 169.096 140.581,169.094 140.342,169.760 140.047 C 171.399 139.322,170.911 136.458,169.148 136.458 L 168.542 136.458 168.542 134.167 C 168.542 131.990,168.563 131.875,168.972 131.875 C 170.997 131.875,171.569 128.840,169.679 128.122 L 169.191 127.936 169.707 126.010 C 170.316 123.736,170.182 123.919,171.271 123.866 C 172.968 123.784,173.711 121.978,172.594 120.651 C 171.996 119.940,172.019 119.852,173.346 117.759 C 173.907 116.874,174.032 116.788,174.674 116.843 C 176.285 116.982,177.472 115.509,176.813 114.188 C 176.392 113.345,179.168 110.417,179.884 110.949 C 181.179 111.913,183.185 110.448,182.824 108.802 C 182.698 108.228,182.769 108.157,184.400 107.236 L 186.108 106.272 186.624 106.677 C 187.848 107.641,189.614 106.980,189.922 105.442 C 190.073 104.689,190.281 104.571,192.385 104.042 L 193.684 103.716 194.326 104.358 C 195.379 105.411,197.708 105.006,197.708 103.770 C 197.708 103.568,197.771 103.340,197.847 103.264 C 198.020 103.091,200.977 103.085,201.615 103.256 M208.966 104.610 C 209.599 104.800,209.775 104.968,209.878 105.486 C 210.164 106.916,211.877 107.601,213.072 106.763 C 213.624 106.377,215.366 107.077,215.058 107.562 C 214.969 107.703,212.641 111.192,209.885 115.315 C 205.262 122.232,204.779 123.041,203.654 125.762 C 202.797 127.836,202.352 128.680,202.155 128.605 C 201.727 128.440,201.794 128.148,202.924 125.274 C 203.805 123.031,207.917 105.963,207.917 104.548 C 207.917 104.323,208.028 104.329,208.966 104.610 M216.245 107.988 C 216.857 108.407,216.962 108.602,216.980 109.349 C 217.017 110.833,218.222 111.621,219.803 111.197 C 220.728 110.949,223.284 113.695,222.929 114.554 C 222.347 115.958,223.299 117.292,224.882 117.292 C 225.744 117.292,225.757 117.303,226.630 118.838 L 227.510 120.384 227.070 121.228 C 226.343 122.623,227.203 124.167,228.707 124.167 C 229.049 124.167,229.796 125.732,229.546 125.925 C 229.509 125.953,225.497 126.801,220.630 127.809 C 211.599 129.680,211.225 129.787,206.816 131.755 L 205.612 132.292 205.439 131.825 C 205.276 131.385,205.442 131.280,208.211 130.067 C 210.626 129.009,212.508 127.910,218.651 123.974 C 222.773 121.333,226.240 119.137,226.354 119.094 C 226.469 119.051,226.506 118.954,226.437 118.879 C 226.041 118.447,209.868 126.842,207.427 128.747 C 205.280 130.422,204.919 130.634,204.659 130.373 C 204.399 130.113,204.663 129.831,206.690 128.214 C 208.904 126.447,221.458 113.028,221.458 112.428 C 221.458 112.183,222.075 111.655,214.195 118.649 C 208.227 123.946,207.495 124.669,205.736 127.008 C 204.035 129.270,203.768 129.538,203.454 129.308 C 203.132 129.073,203.283 128.795,205.000 126.451 C 206.765 124.042,215.171 108.638,215.200 107.760 C 215.212 107.386,215.439 107.436,216.245 107.988 M229.952 127.240 C 230.156 128.114,230.139 128.266,229.803 128.542 C 228.640 129.499,228.728 131.264,229.971 131.904 C 230.796 132.328,231.301 133.958,230.607 133.958 C 230.483 133.958,226.360 133.720,221.446 133.430 L 212.510 132.901 209.486 133.325 C 205.794 133.844,205.833 133.843,205.833 133.350 C 205.833 132.897,205.762 132.917,209.663 132.271 C 211.783 131.920,214.128 131.243,220.809 129.057 C 230.754 125.803,229.668 126.019,229.952 127.240 " stroke="none" fill="#04043f" fill-rule="evenodd"></path><path id="path2" d="M0.625 222.188 L 0.625 266.875 200.000 266.875 L 399.375 266.875 399.375 222.188 L 399.375 177.500 200.000 177.500 L 0.625 177.500 0.625 222.188 " stroke="none" fill="#148c0c" fill-rule="evenodd"></path><path id="path3" d="M0.417 45.104 L 0.417 89.792 200.000 89.792 L 399.583 89.792 399.583 45.104 L 399.583 0.417 200.000 0.417 L 0.417 0.417 0.417 45.104 M399.375 45.104 L 399.375 89.583 200.000 89.583 L 0.625 89.583 0.625 45.104 L 0.625 0.625 200.000 0.625 L 399.375 0.625 399.375 45.104 " stroke="none" fill="#fcac3c" fill-rule="evenodd"></path><path id="path4" d="M0.417 222.188 L 0.417 267.083 200.000 267.083 L 399.583 267.083 399.583 222.188 L 399.583 177.292 200.000 177.292 L 0.417 177.292 0.417 222.188 M399.375 222.188 L 399.375 266.875 200.000 266.875 L 0.625 266.875 0.625 222.188 L 0.625 177.500 200.000 177.500 L 399.375 177.500 399.375 222.188 " stroke="none" fill="#149c0c" fill-rule="evenodd"></path></g></svg>