<svg id="svg" version="1.1" xmlns="http://www.w3.org/2000/svg" xmlns:xlink="http://www.w3.org/1999/xlink" width="400" height="400" viewBox="0, 0, 400,400"><g id="svgg"><path id="path0" d="M181.600 23.800 C 181.600 24.246,181.131 24.400,179.776 24.400 C 178.663 24.400,178.049 24.244,178.200 24.000 C 178.336 23.780,178.182 23.600,177.857 23.600 C 177.532 23.600,177.193 23.820,177.104 24.088 C 177.006 24.383,176.282 24.549,175.271 24.509 C 174.352 24.472,173.600 24.613,173.600 24.821 C 173.600 25.030,173.060 25.200,172.400 25.200 C 171.740 25.200,171.200 25.007,171.200 24.771 C 171.200 24.536,170.925 24.618,170.588 24.954 C 170.252 25.291,169.710 25.464,169.383 25.338 C 169.057 25.213,168.522 25.333,168.195 25.604 C 167.789 25.941,167.441 25.970,167.100 25.696 C 166.523 25.232,164.000 25.516,164.000 26.045 C 164.000 26.240,163.640 26.400,163.200 26.400 C 162.760 26.400,162.400 26.192,162.400 25.939 C 162.400 25.685,162.030 25.904,161.577 26.426 C 160.939 27.162,160.681 27.255,160.426 26.842 C 160.201 26.477,160.049 26.452,159.946 26.763 C 159.862 27.013,159.113 27.243,158.280 27.274 C 157.448 27.305,156.673 27.482,156.559 27.667 C 156.445 27.851,156.020 27.825,155.616 27.608 C 155.069 27.316,154.822 27.367,154.653 27.807 C 154.395 28.478,152.400 28.628,152.400 27.976 C 152.400 27.743,152.228 27.659,152.017 27.789 C 151.807 27.919,151.736 28.290,151.860 28.613 C 151.984 28.936,151.901 29.200,151.676 29.200 C 151.451 29.200,151.176 28.975,151.065 28.700 C 150.904 28.300,150.857 28.300,150.832 28.700 C 150.814 28.975,150.440 29.200,150.000 29.200 C 149.560 29.200,149.200 29.355,149.200 29.544 C 149.200 29.734,148.570 29.839,147.800 29.777 C 147.030 29.716,146.400 29.831,146.400 30.033 C 146.400 30.235,145.860 30.400,145.200 30.400 C 144.540 30.400,144.000 30.563,144.000 30.762 C 144.000 30.962,143.100 31.249,142.000 31.400 C 140.900 31.551,140.000 31.838,140.000 32.038 C 140.000 32.237,139.460 32.400,138.800 32.400 C 138.140 32.400,137.600 32.580,137.600 32.800 C 137.600 33.020,137.195 33.201,136.700 33.202 C 136.205 33.204,135.284 33.474,134.654 33.802 C 134.024 34.131,133.169 34.400,132.754 34.400 C 132.339 34.400,132.000 34.580,132.000 34.800 C 132.000 35.020,131.685 35.201,131.300 35.202 C 130.915 35.204,130.084 35.474,129.454 35.802 C 128.824 36.131,128.059 36.400,127.754 36.400 C 127.449 36.400,127.200 36.580,127.200 36.800 C 127.200 37.020,126.846 37.200,126.414 37.200 C 125.642 37.200,122.794 38.366,122.400 38.842 C 122.290 38.976,121.525 39.209,120.700 39.360 C 119.875 39.512,119.200 39.808,119.200 40.018 C 119.200 40.228,118.930 40.400,118.600 40.400 C 118.270 40.400,118.000 40.559,118.000 40.753 C 118.000 40.948,117.595 41.238,117.100 41.400 C 116.605 41.561,116.110 41.741,116.000 41.800 C 115.890 41.859,115.395 42.039,114.900 42.200 C 114.405 42.362,114.000 42.652,114.000 42.847 C 114.000 43.041,113.674 43.200,113.276 43.200 C 112.879 43.200,112.204 43.464,111.776 43.787 C 111.349 44.110,110.767 44.380,110.483 44.387 C 110.199 44.394,109.587 44.754,109.123 45.186 C 108.659 45.619,108.153 45.895,108.000 45.800 C 107.847 45.705,107.365 45.959,106.930 46.365 C 106.495 46.770,105.702 47.240,105.169 47.408 C 104.636 47.577,103.887 48.074,103.503 48.514 C 103.120 48.954,102.289 49.334,101.655 49.357 C 100.910 49.385,100.571 49.577,100.695 49.900 C 100.800 50.175,100.596 50.400,100.243 50.400 C 99.889 50.400,99.600 50.566,99.600 50.768 C 99.600 50.971,99.068 51.253,98.418 51.396 C 97.768 51.539,97.138 51.958,97.017 52.328 C 96.897 52.698,96.033 53.360,95.099 53.800 C 94.165 54.240,93.019 55.005,92.554 55.500 C 92.089 55.995,91.510 56.400,91.268 56.400 C 91.026 56.400,90.318 56.895,89.695 57.500 C 89.072 58.105,87.897 59.050,87.084 59.600 C 86.271 60.150,85.604 60.735,85.603 60.900 C 85.601 61.065,85.355 61.200,85.056 61.200 C 84.757 61.200,84.174 61.650,83.761 62.200 C 83.348 62.750,82.860 63.200,82.676 63.200 C 82.493 63.200,82.092 63.425,81.785 63.700 C 80.469 64.881,80.071 65.142,79.843 64.976 C 79.709 64.879,79.688 64.918,79.797 65.063 C 80.159 65.549,79.112 66.400,78.151 66.400 C 77.495 66.400,77.200 66.628,77.200 67.134 C 77.200 68.096,75.195 69.856,74.300 69.679 C 73.815 69.584,73.600 69.795,73.600 70.368 C 73.600 70.822,73.030 71.690,72.333 72.297 C 71.636 72.904,69.535 74.975,67.663 76.900 C 65.790 78.825,64.021 80.400,63.729 80.400 C 63.438 80.400,63.200 80.694,63.200 81.054 C 63.200 81.726,61.438 83.600,60.806 83.600 C 60.613 83.600,60.332 84.005,60.183 84.500 C 60.034 84.995,59.585 85.760,59.184 86.200 C 58.784 86.640,57.994 87.503,57.428 88.118 C 56.863 88.733,56.400 89.378,56.400 89.552 C 56.400 89.725,55.865 90.392,55.211 91.033 C 54.557 91.675,54.017 92.425,54.011 92.700 C 54.005 92.975,53.865 93.200,53.700 93.201 C 53.535 93.201,52.787 94.101,52.037 95.201 C 51.288 96.300,50.523 97.200,50.337 97.200 C 50.152 97.200,50.000 97.392,50.000 97.628 C 50.000 97.863,48.920 99.575,47.600 101.432 C 46.280 103.289,45.200 104.925,45.200 105.067 C 45.200 105.209,44.750 105.914,44.200 106.636 C 43.650 107.357,43.200 108.139,43.200 108.373 C 43.200 108.608,43.059 108.800,42.888 108.800 C 42.716 108.800,42.361 109.295,42.098 109.900 C 41.836 110.505,40.989 112.080,40.216 113.400 C 39.443 114.720,38.134 117.150,37.306 118.800 C 36.478 120.450,35.665 121.860,35.500 121.933 C 35.335 122.007,35.200 122.274,35.200 122.528 C 35.200 122.781,34.723 123.981,34.141 125.194 C 32.644 128.309,31.407 131.107,30.599 133.200 C 30.217 134.190,29.754 135.360,29.570 135.800 C 28.402 138.596,28.000 139.786,28.000 140.449 C 28.000 140.862,27.820 141.200,27.600 141.200 C 27.380 141.200,27.200 141.639,27.200 142.176 C 27.200 142.713,27.040 143.251,26.845 143.372 C 26.650 143.493,26.364 144.268,26.210 145.096 C 26.055 145.923,25.791 146.780,25.623 147.000 C 25.456 147.220,24.982 148.750,24.571 150.400 C 24.160 152.050,23.638 153.532,23.412 153.694 C 23.185 153.856,23.113 153.991,23.250 153.994 C 23.388 153.997,23.239 155.125,22.918 156.500 C 22.597 157.875,22.240 159.587,22.123 160.304 C 22.007 161.021,21.751 161.706,21.556 161.827 C 21.360 161.948,21.200 162.757,21.200 163.624 C 21.200 164.491,21.065 165.200,20.900 165.200 C 20.735 165.200,20.558 165.875,20.507 166.700 C 20.323 169.674,19.915 172.207,19.561 172.580 C 19.363 172.789,19.200 174.004,19.200 175.280 C 19.200 176.556,19.031 177.600,18.825 177.600 C 18.619 177.600,18.552 178.227,18.676 178.993 C 18.847 180.046,18.746 180.446,18.261 180.632 C 17.715 180.841,17.703 180.960,18.175 181.432 C 18.809 182.067,18.549 183.568,17.752 183.874 C 17.363 184.023,17.323 184.282,17.607 184.814 C 18.360 186.220,18.088 188.393,17.115 188.753 L 16.230 189.081 17.115 189.554 C 18.363 190.222,18.011 197.600,16.731 197.600 C 16.549 197.600,16.400 198.770,16.400 200.200 C 16.400 201.630,16.559 202.800,16.753 202.800 C 17.291 202.800,18.000 206.086,18.000 208.577 C 18.000 210.533,17.904 210.800,17.200 210.800 C 16.760 210.800,16.400 210.980,16.400 211.200 C 16.400 211.420,16.535 211.579,16.700 211.553 C 17.782 211.382,18.000 211.725,18.000 213.600 C 18.000 214.700,17.820 215.600,17.600 215.600 C 17.380 215.600,17.560 215.960,18.000 216.400 C 18.982 217.382,19.003 217.905,18.100 218.937 C 17.715 219.377,17.620 219.609,17.888 219.452 C 18.468 219.114,18.547 219.429,19.413 225.600 C 19.768 228.130,20.250 230.860,20.483 231.667 C 20.715 232.473,20.817 233.598,20.708 234.167 C 20.600 234.735,20.642 235.200,20.803 235.200 C 20.964 235.200,21.207 235.785,21.345 236.500 C 21.885 239.318,23.598 246.006,25.007 250.800 C 25.363 252.010,25.747 253.360,25.860 253.800 C 25.974 254.240,26.213 254.960,26.391 255.400 C 26.569 255.840,27.018 257.100,27.389 258.200 C 27.759 259.300,28.203 260.560,28.375 261.000 C 30.609 266.710,31.200 268.328,31.200 268.727 C 31.200 268.987,31.380 269.200,31.600 269.200 C 31.820 269.200,32.000 269.434,32.000 269.720 C 32.000 270.705,40.808 288.504,41.639 289.200 C 41.771 289.310,42.343 290.237,42.909 291.260 C 44.014 293.254,45.877 296.263,46.443 296.969 C 47.917 298.804,49.510 301.157,49.371 301.295 C 49.279 301.388,49.652 301.886,50.202 302.401 C 50.751 302.917,51.200 303.496,51.200 303.687 C 51.200 303.878,51.650 304.520,52.200 305.113 C 52.750 305.707,53.200 306.404,53.200 306.663 C 53.200 306.921,53.335 307.193,53.500 307.267 C 53.756 307.381,56.548 310.669,57.800 312.331 C 58.020 312.623,58.650 313.369,59.200 313.988 C 59.750 314.607,61.100 316.131,62.200 317.374 C 64.708 320.209,73.661 329.140,76.661 331.800 C 77.902 332.900,79.251 334.115,79.659 334.500 C 80.066 334.885,80.498 335.200,80.618 335.200 C 80.738 335.200,81.243 335.605,81.739 336.100 C 82.236 336.595,83.578 337.712,84.721 338.582 C 85.865 339.452,86.800 340.286,86.800 340.436 C 86.800 340.585,87.115 340.810,87.500 340.936 C 87.885 341.062,89.550 342.151,91.200 343.357 C 95.180 346.265,102.937 351.200,103.529 351.200 C 103.788 351.200,104.000 351.352,104.000 351.537 C 104.000 351.722,104.675 352.217,105.500 352.637 C 106.325 353.057,107.090 353.499,107.200 353.621 C 107.310 353.742,109.650 354.977,112.400 356.364 C 115.150 357.751,117.490 359.001,117.600 359.143 C 117.710 359.284,118.062 359.457,118.382 359.527 C 119.103 359.685,122.088 360.977,124.138 362.019 C 124.984 362.448,125.856 362.800,126.077 362.800 C 126.456 362.800,128.660 363.686,130.013 364.383 C 130.350 364.556,131.203 364.825,131.909 364.980 C 132.614 365.135,133.294 365.428,133.419 365.631 C 133.545 365.834,134.051 366.000,134.544 366.000 C 135.037 366.000,135.611 366.150,135.820 366.333 C 136.029 366.515,137.010 366.893,138.000 367.170 C 138.990 367.448,140.340 367.910,141.000 368.197 C 142.103 368.677,143.421 369.061,147.200 370.006 C 147.970 370.199,149.770 370.649,151.200 371.006 C 152.630 371.364,154.340 371.746,155.000 371.855 C 155.660 371.965,156.560 372.208,157.000 372.395 C 157.933 372.793,161.312 373.321,162.900 373.317 C 163.505 373.316,164.000 373.469,164.000 373.657 C 164.000 373.846,164.978 374.000,166.173 374.000 C 167.996 374.000,168.387 374.129,168.600 374.801 C 168.827 375.514,168.921 375.536,169.456 375.001 C 170.204 374.253,170.195 374.252,171.039 375.096 C 171.540 375.597,171.782 375.653,171.901 375.296 C 172.092 374.723,174.000 374.613,174.000 375.175 C 174.000 375.383,174.650 375.444,175.460 375.313 C 176.579 375.131,177.040 375.240,177.434 375.779 C 177.896 376.411,178.033 376.422,178.800 375.885 C 179.755 375.216,181.025 375.394,182.158 376.356 C 182.727 376.839,182.961 376.875,183.092 376.500 C 183.316 375.859,190.042 375.802,190.676 376.436 C 190.957 376.717,192.086 376.784,193.856 376.624 C 201.029 375.976,203.713 375.935,204.058 376.470 C 204.332 376.895,204.465 376.899,204.728 376.493 C 205.341 375.545,207.737 375.109,208.280 375.846 C 208.721 376.446,208.814 376.443,209.449 375.808 C 209.938 375.319,210.526 375.181,211.462 375.333 C 212.190 375.451,212.889 375.379,213.016 375.174 C 213.356 374.624,215.106 374.718,215.299 375.296 C 215.420 375.661,215.636 375.621,216.110 375.148 C 216.506 374.751,217.149 374.578,217.777 374.698 C 218.380 374.813,218.800 374.710,218.800 374.447 C 218.800 374.178,219.588 374.000,220.776 374.000 C 221.863 374.000,222.872 373.808,223.017 373.573 C 223.162 373.338,223.552 373.249,223.883 373.377 C 224.215 373.504,225.208 373.413,226.090 373.176 C 226.972 372.938,228.213 372.729,228.847 372.711 C 229.481 372.693,230.000 372.507,230.000 372.297 C 230.000 372.087,230.720 371.985,231.600 372.069 C 232.480 372.152,233.200 372.096,233.200 371.943 C 233.200 371.683,237.116 370.598,239.800 370.115 C 240.460 369.997,241.180 369.758,241.400 369.586 C 241.885 369.205,244.803 368.601,245.500 368.737 C 245.775 368.791,246.000 368.647,246.000 368.418 C 246.000 368.188,246.349 368.000,246.776 368.000 C 247.203 368.000,247.654 367.836,247.778 367.635 C 247.903 367.434,248.722 367.148,249.600 367.000 C 250.478 366.852,251.297 366.566,251.422 366.365 C 251.546 366.164,252.076 366.000,252.600 366.000 C 253.124 366.000,253.655 365.834,253.781 365.631 C 253.906 365.428,254.586 365.135,255.291 364.980 C 255.997 364.825,256.850 364.556,257.187 364.383 C 258.597 363.657,260.752 362.800,261.166 362.800 C 261.411 362.800,261.923 362.629,262.305 362.421 C 264.301 361.331,274.002 356.800,274.340 356.800 C 274.556 356.800,274.793 356.665,274.867 356.500 C 274.985 356.234,276.861 355.162,280.600 353.222 C 281.260 352.880,281.860 352.465,281.933 352.300 C 282.007 352.135,282.252 352.000,282.479 352.000 C 282.951 352.000,292.328 346.123,293.131 345.323 C 293.423 345.033,294.053 344.587,294.531 344.334 C 295.877 343.620,300.822 339.906,302.601 338.272 C 303.480 337.465,304.385 336.803,304.612 336.802 C 304.838 336.801,305.283 336.440,305.600 336.000 C 305.917 335.560,306.309 335.200,306.470 335.200 C 306.632 335.200,307.194 334.795,307.720 334.300 C 311.395 330.843,312.920 329.600,313.485 329.600 C 313.842 329.600,314.007 329.474,313.853 329.320 C 313.504 328.971,321.598 320.800,322.293 320.800 C 322.572 320.800,322.800 320.559,322.800 320.264 C 322.800 319.969,323.565 318.890,324.500 317.867 C 327.621 314.451,328.939 312.902,331.400 309.756 C 332.060 308.913,333.365 307.275,334.300 306.117 C 335.235 304.959,336.000 303.911,336.000 303.788 C 336.000 303.665,336.450 303.080,337.000 302.487 C 337.550 301.893,338.000 301.196,338.000 300.937 C 338.000 300.679,338.141 300.407,338.313 300.333 C 338.729 300.156,342.000 295.207,342.000 294.754 C 342.000 294.559,342.151 294.400,342.336 294.400 C 342.520 294.400,343.015 293.682,343.436 292.805 C 343.856 291.927,344.335 291.207,344.500 291.205 C 344.665 291.202,344.800 291.046,344.800 290.857 C 344.800 290.669,345.700 288.951,346.800 287.039 C 347.900 285.127,348.800 283.407,348.800 283.215 C 348.800 283.023,348.935 282.807,349.100 282.733 C 349.450 282.578,352.000 277.397,352.000 276.842 C 352.000 276.635,352.135 276.407,352.300 276.333 C 352.711 276.151,354.000 273.310,354.000 272.586 C 354.000 272.264,354.180 272.000,354.400 272.000 C 354.620 272.000,354.800 271.802,354.800 271.560 C 354.800 271.319,355.088 270.464,355.441 269.660 C 355.793 268.857,356.225 267.840,356.400 267.400 C 356.575 266.960,357.007 265.943,357.359 265.140 C 357.712 264.336,358.000 263.427,358.000 263.120 C 358.000 262.812,358.159 262.389,358.354 262.180 C 358.549 261.971,359.473 259.460,360.408 256.600 C 361.342 253.740,362.263 251.087,362.453 250.705 C 362.644 250.323,362.800 249.569,362.800 249.029 C 362.800 248.489,362.963 247.946,363.163 247.823 C 363.362 247.700,363.649 246.700,363.800 245.600 C 363.951 244.500,364.238 243.500,364.437 243.377 C 364.637 243.254,364.800 242.544,364.800 241.800 C 364.800 241.056,364.957 240.350,365.150 240.231 C 365.343 240.112,365.500 239.606,365.501 239.107 C 365.501 238.608,365.793 237.060,366.151 235.668 C 366.508 234.275,366.800 232.531,366.800 231.791 C 366.800 231.052,366.989 230.331,367.219 230.188 C 367.450 230.046,367.609 229.630,367.573 229.265 C 367.401 227.508,367.659 225.999,368.229 225.429 C 368.574 225.083,368.664 224.800,368.429 224.800 C 367.872 224.800,367.871 223.327,368.427 222.983 C 368.662 222.838,368.757 222.465,368.638 222.155 C 368.292 221.253,368.839 219.180,369.349 219.465 C 369.606 219.609,369.585 219.485,369.300 219.179 C 368.681 218.512,368.638 216.400,369.243 216.400 C 369.519 216.400,369.590 216.013,369.430 215.376 C 369.112 214.110,369.559 211.527,370.044 211.827 C 370.657 212.206,370.432 211.175,369.754 210.497 C 369.044 209.787,369.255 205.529,370.014 205.267 C 370.234 205.191,370.400 203.012,370.400 200.200 C 370.400 197.388,370.234 195.209,370.014 195.133 C 369.255 194.871,369.044 190.613,369.754 189.903 C 370.522 189.136,370.583 188.528,369.916 188.305 C 369.604 188.201,369.451 187.335,369.485 185.872 C 369.515 184.622,369.372 183.600,369.169 183.600 C 368.609 183.600,368.728 181.296,369.300 181.065 C 369.700 180.904,369.700 180.857,369.300 180.832 C 368.993 180.812,368.800 180.212,368.800 179.280 C 368.800 178.444,368.580 177.540,368.310 177.270 C 367.927 176.887,367.925 176.612,368.302 176.009 C 368.639 175.468,368.655 175.158,368.354 174.972 C 368.118 174.826,368.007 174.277,368.107 173.753 C 368.207 173.229,368.134 172.800,367.945 172.800 C 367.755 172.800,367.600 172.170,367.600 171.400 C 367.600 170.630,367.445 170.000,367.256 170.000 C 366.964 170.000,366.566 167.628,366.273 164.133 C 366.233 163.656,366.065 163.131,365.900 162.967 C 365.735 162.802,365.600 162.067,365.600 161.333 C 365.600 160.600,365.439 160.000,365.242 160.000 C 365.045 160.000,364.794 159.325,364.684 158.500 C 364.307 155.672,363.417 152.000,363.108 152.000 C 362.939 152.000,362.800 151.619,362.800 151.154 C 362.800 150.291,361.765 146.762,361.144 145.505 C 360.955 145.123,360.800 144.559,360.800 144.251 C 360.800 143.943,360.531 143.176,360.202 142.546 C 359.874 141.916,359.604 140.995,359.602 140.500 C 359.601 140.005,359.436 139.600,359.235 139.600 C 359.034 139.600,358.749 138.881,358.600 138.002 C 358.452 137.123,358.166 136.303,357.965 136.178 C 357.764 136.054,357.600 135.603,357.600 135.176 C 357.600 134.749,357.420 134.400,357.200 134.400 C 356.980 134.400,356.800 134.151,356.800 133.846 C 356.800 133.541,356.531 132.776,356.202 132.146 C 355.874 131.516,355.604 130.685,355.602 130.300 C 355.601 129.915,355.420 129.600,355.200 129.600 C 354.980 129.600,354.800 129.240,354.800 128.800 C 354.800 128.360,354.640 128.000,354.445 128.000 C 354.249 128.000,353.971 127.370,353.826 126.600 C 353.682 125.830,353.434 125.200,353.276 125.200 C 352.968 125.200,351.600 122.259,351.600 121.597 C 351.600 121.379,351.420 121.200,351.200 121.200 C 350.980 121.200,350.800 120.945,350.800 120.632 C 350.800 120.104,349.653 117.649,349.196 117.200 C 349.084 117.090,348.634 116.280,348.196 115.400 C 347.758 114.520,347.265 113.740,347.100 113.667 C 346.935 113.593,346.800 113.372,346.800 113.174 C 346.800 112.976,346.080 111.638,345.200 110.200 C 344.320 108.762,343.600 107.492,343.600 107.376 C 343.600 107.261,343.233 106.773,342.785 106.291 C 342.336 105.810,341.866 105.007,341.741 104.508 C 341.616 104.009,341.353 103.600,341.157 103.600 C 340.960 103.600,340.800 103.330,340.800 103.000 C 340.800 102.670,340.626 102.400,340.413 102.400 C 340.199 102.400,340.138 102.085,340.276 101.700 C 340.414 101.315,340.379 101.134,340.199 101.298 C 340.018 101.463,338.998 100.383,337.932 98.898 C 336.867 97.414,335.749 95.910,335.449 95.556 C 335.150 95.202,334.836 94.732,334.752 94.512 C 334.590 94.085,332.724 91.666,331.400 90.167 C 330.960 89.669,330.240 88.757,329.800 88.141 C 329.360 87.525,328.497 86.520,327.883 85.908 C 327.269 85.295,326.819 84.492,326.883 84.124 C 326.955 83.714,326.662 83.365,326.132 83.227 C 325.654 83.102,324.899 82.534,324.453 81.965 C 324.008 81.395,321.385 78.695,318.624 75.965 C 315.863 73.234,313.597 70.730,313.588 70.400 C 313.579 70.070,312.813 69.440,311.886 69.000 C 310.778 68.475,310.199 67.939,310.198 67.440 C 310.197 66.934,309.862 66.632,309.198 66.538 C 308.649 66.460,307.804 65.948,307.319 65.398 C 306.835 64.849,306.295 64.399,306.119 64.397 C 305.944 64.395,304.877 63.540,303.748 62.497 C 301.453 60.375,300.526 59.686,299.500 59.342 C 298.863 59.128,298.632 58.689,298.748 57.914 C 298.771 57.757,298.568 57.713,298.295 57.817 C 298.023 57.920,297.277 57.553,296.638 57.002 C 295.999 56.451,295.350 56.000,295.197 56.000 C 295.044 56.000,294.388 55.493,293.740 54.873 C 293.091 54.254,292.367 53.811,292.130 53.890 C 291.893 53.969,291.193 53.497,290.573 52.840 C 289.954 52.184,289.302 51.737,289.124 51.847 C 288.946 51.957,288.800 51.857,288.800 51.624 C 288.800 51.391,288.564 51.200,288.275 51.200 C 287.987 51.200,287.364 50.840,286.892 50.400 C 286.420 49.960,285.840 49.600,285.604 49.600 C 285.368 49.600,285.071 49.330,284.945 49.000 C 284.818 48.670,284.273 48.400,283.734 48.400 C 283.194 48.400,282.855 48.235,282.980 48.033 C 283.105 47.830,282.665 47.546,282.003 47.401 C 281.342 47.255,280.800 46.971,280.800 46.768 C 280.800 46.566,280.519 46.400,280.176 46.400 C 279.833 46.400,279.664 46.220,279.800 46.000 C 279.936 45.780,279.689 45.600,279.252 45.600 C 278.815 45.600,278.187 45.330,277.857 45.000 C 277.527 44.670,276.974 44.400,276.629 44.400 C 276.283 44.400,276.000 44.228,276.000 44.018 C 276.000 43.808,275.370 43.518,274.600 43.374 C 273.830 43.229,273.200 42.951,273.200 42.755 C 273.200 42.560,273.021 42.400,272.803 42.400 C 272.120 42.400,269.200 41.027,269.200 40.706 C 269.200 40.538,268.930 40.400,268.600 40.400 C 268.270 40.400,268.000 40.236,268.000 40.035 C 268.000 39.834,267.280 39.549,266.400 39.400 C 265.520 39.251,264.800 38.966,264.800 38.765 C 264.800 38.564,264.530 38.400,264.200 38.400 C 263.870 38.400,263.600 38.220,263.600 38.000 C 263.600 37.780,263.240 37.600,262.800 37.600 C 262.360 37.600,262.000 37.445,262.000 37.255 C 262.000 37.066,261.550 36.997,261.000 37.102 C 260.416 37.214,260.000 37.107,260.000 36.847 C 260.000 36.601,259.640 36.400,259.200 36.400 C 258.760 36.400,258.400 36.236,258.400 36.035 C 258.400 35.834,257.680 35.549,256.800 35.400 C 255.920 35.251,255.200 34.966,255.200 34.765 C 255.200 34.564,254.750 34.400,254.200 34.400 C 253.650 34.400,253.200 34.220,253.200 34.000 C 253.200 33.780,252.739 33.600,252.176 33.600 C 251.613 33.600,251.256 33.432,251.383 33.228 C 251.509 33.023,251.402 32.725,251.145 32.566 C 250.852 32.385,250.784 32.450,250.962 32.738 C 251.149 33.041,250.895 33.200,250.224 33.200 C 249.627 33.200,249.200 32.973,249.200 32.655 C 249.200 32.282,248.867 32.175,248.141 32.313 C 247.341 32.466,247.160 32.388,247.403 31.995 C 247.641 31.610,247.504 31.532,246.877 31.696 C 246.411 31.818,245.846 31.697,245.622 31.427 C 245.394 31.152,244.683 31.014,244.008 31.114 C 243.281 31.220,242.800 31.113,242.800 30.845 C 242.800 30.600,242.350 30.400,241.800 30.400 C 241.250 30.400,240.800 30.212,240.800 29.982 C 240.800 29.753,240.575 29.594,240.300 29.630 C 239.163 29.778,237.966 29.578,238.155 29.272 C 238.267 29.092,237.807 29.026,237.135 29.124 C 236.369 29.237,235.786 29.101,235.575 28.760 C 235.371 28.430,234.704 28.263,233.873 28.334 C 232.888 28.419,232.434 28.265,232.248 27.781 C 232.047 27.256,231.869 27.211,231.431 27.574 C 231.048 27.892,230.789 27.907,230.612 27.619 C 230.469 27.389,229.643 27.200,228.776 27.200 C 227.785 27.200,227.198 27.014,227.194 26.700 C 227.189 26.338,227.091 26.352,226.839 26.751 C 226.430 27.397,225.600 27.011,225.600 26.176 C 225.600 25.859,225.420 25.600,225.200 25.600 C 224.980 25.600,224.800 25.780,224.800 26.000 C 224.800 26.220,224.440 26.400,224.000 26.400 C 223.560 26.400,223.200 26.209,223.200 25.975 C 223.200 25.741,222.885 25.602,222.500 25.665 C 222.115 25.728,221.567 25.634,221.282 25.456 C 220.986 25.270,220.509 25.344,220.166 25.629 C 219.711 26.005,219.454 26.014,219.103 25.663 C 218.848 25.408,217.506 25.200,216.120 25.200 C 214.707 25.200,213.600 25.024,213.600 24.800 C 213.600 24.232,212.099 24.302,211.907 24.880 C 211.800 25.201,211.303 25.043,210.400 24.400 C 209.497 23.757,209.000 23.599,208.893 23.920 C 208.656 24.633,205.736 24.531,205.455 23.800 C 205.146 22.993,204.000 23.033,204.000 23.852 C 204.000 24.562,200.641 24.371,199.157 23.577 C 198.241 23.087,188.276 23.085,187.780 23.575 C 187.004 24.342,183.200 24.571,183.200 23.852 C 183.200 23.467,182.873 23.200,182.400 23.200 C 181.956 23.200,181.600 23.467,181.600 23.800 M276.410 130.518 C 281.169 133.035,282.111 137.673,279.918 147.794 C 279.488 149.777,279.046 151.850,278.935 152.400 C 278.584 154.146,277.156 160.838,276.118 165.600 C 275.566 168.130,275.029 170.650,274.924 171.200 C 274.820 171.750,274.369 173.910,273.922 176.000 C 271.552 187.089,271.127 189.084,270.939 190.000 C 270.704 191.146,269.461 197.012,268.396 202.000 C 267.135 207.910,266.327 211.718,265.767 214.400 C 265.469 215.830,264.750 219.160,264.170 221.800 C 263.590 224.440,263.029 227.050,262.924 227.600 C 262.740 228.569,261.896 232.573,260.396 239.600 C 258.997 246.153,258.304 249.420,257.807 251.800 C 257.531 253.120,256.996 255.640,256.618 257.400 C 255.071 264.592,254.358 267.940,253.805 270.600 C 250.712 285.496,249.786 287.879,246.254 290.033 C 242.392 292.387,237.925 290.846,228.572 283.931 C 224.903 281.219,219.808 277.453,217.251 275.561 C 214.693 273.670,209.810 270.060,206.400 267.539 C 202.990 265.018,198.760 261.889,197.000 260.586 C 195.240 259.283,193.188 257.795,192.439 257.279 L 191.078 256.341 188.239 259.086 C 186.678 260.596,182.070 265.082,178.000 269.055 C 165.751 281.013,165.849 280.943,161.142 280.978 C 156.684 281.010,156.561 280.869,154.186 273.000 C 153.456 270.580,152.111 266.170,151.197 263.200 C 150.283 260.230,148.636 254.830,147.537 251.200 C 146.438 247.570,144.937 242.620,144.201 240.200 C 143.465 237.780,142.211 233.640,141.414 231.000 C 139.585 224.940,139.212 224.000,138.640 224.000 C 138.386 224.000,136.833 223.567,135.189 223.039 C 133.545 222.510,129.770 221.329,126.800 220.415 C 123.830 219.500,120.950 218.593,120.400 218.400 C 119.850 218.207,116.970 217.307,114.000 216.400 C 111.030 215.493,108.150 214.593,107.600 214.400 C 107.050 214.207,104.170 213.304,101.200 212.394 C 91.971 209.567,89.579 208.234,88.999 205.597 C 87.937 200.762,90.801 198.938,112.581 190.579 C 120.931 187.374,128.581 184.425,129.581 184.024 C 130.582 183.624,132.616 182.828,134.103 182.255 C 135.589 181.682,137.974 180.760,139.403 180.206 C 140.831 179.653,143.169 178.747,144.597 178.194 C 146.026 177.640,148.411 176.716,149.897 176.141 C 151.384 175.565,153.140 174.875,153.800 174.607 C 154.460 174.339,155.630 173.892,156.400 173.613 C 157.170 173.334,158.340 172.884,159.000 172.613 C 159.660 172.342,160.830 171.892,161.600 171.613 C 162.370 171.334,163.540 170.884,164.200 170.613 C 164.860 170.342,166.030 169.892,166.800 169.613 C 167.570 169.334,168.740 168.884,169.400 168.613 C 170.060 168.342,171.230 167.892,172.000 167.613 C 172.770 167.334,173.940 166.884,174.600 166.613 C 175.260 166.342,176.430 165.895,177.200 165.620 C 177.970 165.344,178.960 164.959,179.400 164.763 C 179.840 164.568,187.490 161.614,196.400 158.200 C 205.310 154.786,212.960 151.835,213.400 151.643 C 213.840 151.451,215.416 150.825,216.903 150.253 C 219.725 149.167,224.426 147.347,225.800 146.809 C 226.920 146.370,230.042 145.164,231.000 144.800 C 231.440 144.633,232.610 144.183,233.600 143.800 C 234.590 143.417,235.760 142.967,236.200 142.800 C 236.640 142.633,237.810 142.183,238.800 141.800 C 239.790 141.417,240.960 140.967,241.400 140.800 C 242.789 140.272,245.754 139.110,247.000 138.606 C 247.660 138.339,248.830 137.892,249.600 137.613 C 250.370 137.334,251.540 136.884,252.200 136.613 C 252.860 136.342,254.030 135.892,254.800 135.613 C 255.570 135.334,256.740 134.884,257.400 134.613 C 258.060 134.342,259.230 133.892,260.000 133.613 C 260.770 133.334,261.940 132.884,262.600 132.613 C 263.260 132.342,264.430 131.892,265.200 131.613 C 265.970 131.334,267.140 130.875,267.800 130.593 C 270.794 129.311,274.074 129.283,276.410 130.518 " stroke="none" fill="#28a0d5" fill-rule="evenodd"></path><path id="path1" d="M269.200 130.755 C 267.990 131.170,265.830 131.959,264.400 132.508 C 248.293 138.693,199.178 157.651,195.800 158.988 C 192.045 160.474,185.176 163.126,175.000 167.022 C 173.680 167.527,171.610 168.327,170.400 168.800 C 168.291 169.624,166.277 170.402,160.595 172.587 C 159.165 173.137,156.825 174.037,155.395 174.587 C 153.965 175.137,151.671 176.018,150.298 176.544 C 91.828 198.944,90.941 199.336,89.611 203.368 C 88.367 207.137,90.506 208.638,102.200 212.199 C 106.118 213.393,110.617 214.802,115.000 216.210 C 116.540 216.704,119.420 217.601,121.400 218.202 C 126.595 219.780,130.377 220.975,135.600 222.690 L 140.200 224.200 140.667 226.000 C 141.378 228.739,142.846 233.701,143.213 234.600 C 143.392 235.040,143.841 236.480,144.209 237.800 C 144.578 239.120,145.022 240.560,145.196 241.000 C 145.370 241.440,145.821 242.970,146.200 244.400 C 146.579 245.830,147.039 247.360,147.223 247.800 C 147.407 248.240,147.859 249.680,148.228 251.000 C 148.598 252.320,149.038 253.760,149.207 254.200 C 149.375 254.640,149.893 256.305,150.357 257.900 C 150.820 259.495,151.580 262.105,152.043 263.700 C 152.507 265.295,153.026 266.960,153.197 267.400 C 153.367 267.840,153.800 269.190,154.159 270.400 C 156.952 279.832,157.274 280.400,159.829 280.400 L 161.079 280.400 161.331 276.300 C 161.558 272.611,162.160 265.203,163.209 253.200 C 163.411 250.890,163.788 246.300,164.047 243.000 C 164.609 235.846,164.298 236.367,166.881 238.243 C 169.521 240.161,183.520 250.517,187.725 253.662 C 189.443 254.948,191.014 256.000,191.215 256.000 C 191.541 256.000,195.461 258.848,210.200 269.792 C 214.336 272.863,217.869 275.477,230.689 284.946 C 242.354 293.562,248.859 292.133,251.215 280.437 C 251.418 279.427,251.862 277.340,252.200 275.800 C 252.779 273.167,254.382 265.609,255.212 261.600 C 255.417 260.610,255.864 258.540,256.205 257.000 C 256.546 255.460,257.174 252.490,257.600 250.400 C 258.026 248.310,258.667 245.250,259.025 243.600 C 260.231 238.028,264.253 219.050,265.213 214.400 C 265.417 213.410,265.862 211.340,266.200 209.800 C 266.779 207.167,268.382 199.609,269.212 195.600 C 269.417 194.610,269.865 192.540,270.207 191.000 C 270.549 189.460,270.993 187.390,271.194 186.400 C 271.741 183.697,274.617 170.058,275.790 164.600 C 276.357 161.960,277.102 158.450,277.446 156.800 C 277.789 155.150,278.420 152.180,278.848 150.200 C 280.631 141.939,280.877 139.954,280.432 137.417 C 279.418 131.646,274.723 128.861,269.200 130.755 " stroke="none" fill="#e8f1f8" fill-rule="evenodd"></path><path id="path2" d="M271.507 129.890 C 272.226 129.979,273.306 129.977,273.907 129.886 C 274.508 129.795,273.920 129.722,272.600 129.724 C 271.280 129.726,270.788 129.801,271.507 129.890 M252.500 136.412 C 251.161 136.951,251.411 137.224,252.800 136.740 C 253.460 136.510,254.000 136.249,254.000 136.161 C 254.000 135.924,253.513 136.005,252.500 136.412 M280.924 139.800 C 280.926 141.120,281.001 141.612,281.090 140.893 C 281.179 140.174,281.177 139.094,281.086 138.493 C 280.995 137.892,280.922 138.480,280.924 139.800 M247.300 138.412 C 245.961 138.951,246.211 139.224,247.600 138.740 C 248.260 138.510,248.800 138.249,248.800 138.161 C 248.800 137.924,248.313 138.005,247.300 138.412 M279.246 149.667 C 279.221 150.034,279.096 150.664,278.970 151.067 C 278.752 151.762,278.763 151.763,279.197 151.087 C 279.448 150.696,279.573 150.066,279.473 149.687 C 279.311 149.068,279.288 149.066,279.246 149.667 M278.200 154.400 C 278.048 155.091,278.007 155.741,278.109 155.842 C 278.211 155.944,278.409 155.453,278.550 154.750 C 278.883 153.083,278.560 152.760,278.200 154.400 M274.222 173.022 C 274.072 173.825,274.028 174.562,274.126 174.660 C 274.224 174.757,274.427 174.181,274.578 173.378 C 274.728 172.575,274.772 171.838,274.674 171.740 C 274.576 171.643,274.373 172.219,274.222 173.022 M154.100 174.412 C 152.761 174.951,153.011 175.224,154.400 174.740 C 155.060 174.510,155.600 174.249,155.600 174.161 C 155.600 173.924,155.113 174.005,154.100 174.412 M271.246 187.267 C 271.221 187.634,271.096 188.264,270.970 188.667 C 270.752 189.362,270.763 189.363,271.197 188.687 C 271.448 188.296,271.573 187.666,271.473 187.287 C 271.311 186.668,271.288 186.666,271.246 187.267 M270.200 192.000 C 270.048 192.691,270.007 193.341,270.109 193.442 C 270.211 193.544,270.409 193.053,270.550 192.350 C 270.883 190.683,270.560 190.360,270.200 192.000 M90.778 200.700 L 89.400 202.200 90.900 200.822 C 92.296 199.538,92.584 199.200,92.278 199.200 C 92.212 199.200,91.537 199.875,90.778 200.700 M89.200 206.258 C 89.200 206.474,89.785 207.179,90.500 207.825 L 91.800 209.000 90.600 207.602 C 89.940 206.833,89.355 206.128,89.300 206.035 C 89.245 205.943,89.200 206.043,89.200 206.258 M266.229 210.629 C 266.081 211.215,266.038 211.772,266.132 211.866 C 266.227 211.960,266.424 211.558,266.571 210.971 C 266.719 210.385,266.762 209.828,266.668 209.734 C 266.573 209.640,266.376 210.042,266.229 210.629 M140.056 226.400 C 140.056 226.730,140.211 227.360,140.400 227.800 C 140.617 228.304,140.744 228.378,140.744 228.000 C 140.744 227.670,140.589 227.040,140.400 226.600 C 140.183 226.096,140.056 226.022,140.056 226.400 M141.256 230.400 C 141.256 230.730,141.411 231.360,141.600 231.800 C 141.817 232.304,141.944 232.378,141.944 232.000 C 141.944 231.670,141.789 231.040,141.600 230.600 C 141.383 230.096,141.256 230.022,141.256 230.400 M143.256 236.800 C 143.256 237.130,143.411 237.760,143.600 238.200 C 143.817 238.704,143.944 238.778,143.944 238.400 C 143.944 238.070,143.789 237.440,143.600 237.000 C 143.383 236.496,143.256 236.422,143.256 236.800 M144.056 239.600 C 144.056 239.930,144.211 240.560,144.400 241.000 C 144.617 241.504,144.744 241.578,144.744 241.200 C 144.744 240.870,144.589 240.240,144.400 239.800 C 144.183 239.296,144.056 239.222,144.056 239.600 M147.256 250.000 C 147.256 250.330,147.411 250.960,147.600 251.400 C 147.817 251.904,147.944 251.978,147.944 251.600 C 147.944 251.270,147.789 250.640,147.600 250.200 C 147.383 249.696,147.256 249.622,147.256 250.000 M148.056 252.800 C 148.056 253.130,148.211 253.760,148.400 254.200 C 148.617 254.704,148.744 254.778,148.744 254.400 C 148.744 254.070,148.589 253.440,148.400 253.000 C 148.183 252.496,148.056 252.422,148.056 252.800 M183.085 263.508 C 176.366 270.072,168.496 277.650,166.925 279.068 C 166.209 279.715,164.198 280.339,161.381 280.789 L 159.000 281.169 161.683 281.001 C 165.621 280.755,166.782 279.968,174.884 272.057 C 178.908 268.129,184.270 262.915,186.800 260.471 C 189.330 258.027,191.258 256.021,191.085 256.013 C 190.912 256.006,187.312 259.379,183.085 263.508 M151.256 263.200 C 151.256 263.530,151.411 264.160,151.600 264.600 C 151.817 265.104,151.944 265.178,151.944 264.800 C 151.944 264.470,151.789 263.840,151.600 263.400 C 151.383 262.896,151.256 262.822,151.256 263.200 M203.600 265.325 C 203.600 265.424,204.261 266.009,205.068 266.625 C 205.876 267.241,206.411 267.541,206.256 267.291 C 205.940 266.779,203.600 265.047,203.600 265.325 M254.229 267.029 C 254.081 267.615,254.038 268.172,254.132 268.266 C 254.227 268.360,254.424 267.958,254.571 267.371 C 254.719 266.785,254.762 266.228,254.668 266.134 C 254.573 266.040,254.376 266.442,254.229 267.029 M154.056 272.400 C 154.056 272.730,154.211 273.360,154.400 273.800 C 154.617 274.304,154.744 274.378,154.744 274.000 C 154.744 273.670,154.589 273.040,154.400 272.600 C 154.183 272.096,154.056 272.022,154.056 272.400 M217.600 275.746 C 217.600 275.856,218.140 276.330,218.800 276.800 C 219.460 277.270,220.000 277.564,220.000 277.454 C 220.000 277.344,219.460 276.870,218.800 276.400 C 218.140 275.930,217.600 275.636,217.600 275.746 " stroke="none" fill="#74bddf" fill-rule="evenodd"></path><path id="path3" d="M268.600 130.586 C 267.022 131.308,267.379 131.320,269.600 130.621 C 270.590 130.309,271.040 130.050,270.600 130.045 C 270.160 130.040,269.260 130.283,268.600 130.586 M276.400 130.911 C 276.400 130.987,276.985 131.478,277.700 132.001 C 278.504 132.590,278.784 132.687,278.433 132.255 C 277.900 131.599,276.400 130.607,276.400 130.911 M258.200 134.614 C 257.200 135.096,257.166 135.151,258.000 134.948 C 259.133 134.671,260.407 134.021,259.800 134.030 C 259.580 134.033,258.860 134.296,258.200 134.614 M251.000 137.414 C 250.000 137.896,249.966 137.951,250.800 137.748 C 251.933 137.471,253.207 136.821,252.600 136.830 C 252.380 136.833,251.660 137.096,251.000 137.414 M245.800 139.414 C 244.800 139.896,244.766 139.951,245.600 139.748 C 246.733 139.471,248.007 138.821,247.400 138.830 C 247.180 138.833,246.460 139.096,245.800 139.414 M240.600 141.414 C 239.600 141.896,239.566 141.951,240.400 141.748 C 241.533 141.471,242.807 140.821,242.200 140.830 C 241.980 140.833,241.260 141.096,240.600 141.414 M280.255 143.055 C 280.113 144.086,280.074 145.008,280.169 145.102 C 280.263 145.196,280.465 144.439,280.618 143.418 C 280.771 142.398,280.810 141.476,280.704 141.371 C 280.598 141.265,280.396 142.023,280.255 143.055 M235.400 143.414 C 234.400 143.896,234.366 143.951,235.200 143.748 C 236.333 143.471,237.607 142.821,237.000 142.830 C 236.780 142.833,236.060 143.096,235.400 143.414 M230.200 145.414 C 229.200 145.896,229.166 145.951,230.000 145.748 C 231.133 145.471,232.407 144.821,231.800 144.830 C 231.580 144.833,230.860 145.096,230.200 145.414 M279.456 146.884 C 279.321 147.388,279.227 148.160,279.246 148.600 C 279.265 149.040,279.445 148.698,279.646 147.840 C 280.036 146.178,279.870 145.340,279.456 146.884 M225.000 147.414 C 224.000 147.896,223.966 147.951,224.800 147.748 C 225.933 147.471,227.207 146.821,226.600 146.830 C 226.380 146.833,225.660 147.096,225.000 147.414 M219.800 149.414 C 218.800 149.896,218.766 149.951,219.600 149.748 C 220.733 149.471,222.007 148.821,221.400 148.830 C 221.180 148.833,220.460 149.096,219.800 149.414 M214.600 151.414 C 213.600 151.896,213.566 151.951,214.400 151.748 C 215.533 151.471,216.807 150.821,216.200 150.830 C 215.980 150.833,215.260 151.096,214.600 151.414 M278.449 151.800 C 278.416 152.240,278.296 153.050,278.183 153.600 L 277.977 154.600 278.406 153.619 C 278.642 153.079,278.761 152.269,278.672 151.819 C 278.513 151.021,278.507 151.021,278.449 151.800 M209.400 153.414 C 208.400 153.896,208.366 153.951,209.200 153.748 C 210.333 153.471,211.607 152.821,211.000 152.830 C 210.780 152.833,210.060 153.096,209.400 153.414 M277.422 156.622 C 277.272 157.425,277.228 158.162,277.326 158.260 C 277.424 158.357,277.627 157.781,277.778 156.978 C 277.928 156.175,277.972 155.438,277.874 155.340 C 277.776 155.243,277.573 155.819,277.422 156.622 M276.222 162.222 C 276.072 163.025,276.028 163.762,276.126 163.860 C 276.224 163.957,276.427 163.381,276.578 162.578 C 276.728 161.775,276.772 161.038,276.674 160.940 C 276.576 160.843,276.373 161.419,276.222 162.222 M273.422 175.422 C 273.272 176.225,273.228 176.962,273.326 177.060 C 273.424 177.157,273.627 176.581,273.778 175.778 C 273.928 174.975,273.972 174.238,273.874 174.140 C 273.776 174.043,273.573 174.619,273.422 175.422 M131.800 183.414 C 130.800 183.896,130.766 183.951,131.600 183.748 C 132.733 183.471,134.007 182.821,133.400 182.830 C 133.180 182.833,132.460 183.096,131.800 183.414 M126.600 185.414 C 125.600 185.896,125.566 185.951,126.400 185.748 C 127.533 185.471,128.807 184.821,128.200 184.830 C 127.980 184.833,127.260 185.096,126.600 185.414 M121.400 187.414 C 120.400 187.896,120.366 187.951,121.200 187.748 C 122.333 187.471,123.607 186.821,123.000 186.830 C 122.780 186.833,122.060 187.096,121.400 187.414 M116.200 189.414 C 115.200 189.896,115.166 189.951,116.000 189.748 C 117.133 189.471,118.407 188.821,117.800 188.830 C 117.580 188.833,116.860 189.096,116.200 189.414 M270.250 190.450 C 269.917 192.117,270.240 192.440,270.600 190.800 C 270.752 190.109,270.793 189.459,270.691 189.358 C 270.589 189.256,270.391 189.747,270.250 190.450 M269.400 194.400 C 269.248 195.091,269.207 195.741,269.309 195.842 C 269.411 195.944,269.609 195.453,269.750 194.750 C 270.083 193.083,269.760 192.760,269.400 194.400 M89.772 202.187 C 89.416 202.730,89.187 203.336,89.262 203.534 C 89.338 203.732,89.692 203.288,90.049 202.547 C 90.814 200.962,90.684 200.794,89.772 202.187 M266.250 209.250 C 266.109 209.953,266.069 210.602,266.159 210.692 C 266.250 210.783,266.448 210.291,266.600 209.600 C 266.752 208.909,266.793 208.259,266.691 208.158 C 266.589 208.056,266.391 208.547,266.250 209.250 M265.400 213.200 C 265.248 213.891,265.207 214.541,265.309 214.642 C 265.411 214.744,265.609 214.253,265.750 213.550 C 265.891 212.847,265.931 212.198,265.841 212.108 C 265.750 212.017,265.552 212.509,265.400 213.200 M263.422 222.622 C 263.272 223.425,263.228 224.162,263.326 224.260 C 263.424 224.357,263.627 223.781,263.778 222.978 C 263.928 222.175,263.972 221.438,263.874 221.340 C 263.776 221.243,263.573 221.819,263.422 222.622 M139.630 224.220 C 139.647 224.429,139.919 225.230,140.236 226.000 L 140.810 227.400 140.598 226.013 C 140.411 224.795,139.548 223.197,139.630 224.220 M140.808 227.900 C 140.824 228.544,142.737 234.168,142.767 233.662 C 142.806 233.018,141.192 227.600,140.961 227.600 C 140.872 227.600,140.803 227.735,140.808 227.900 M142.830 234.620 C 142.847 234.829,143.116 235.630,143.427 236.400 L 143.993 237.800 143.754 236.400 C 143.542 235.152,142.751 233.629,142.830 234.620 M164.061 242.900 C 163.796 246.255,163.414 250.890,163.211 253.200 C 162.210 264.581,161.559 272.585,161.331 276.300 L 161.079 280.400 159.829 280.400 C 157.818 280.400,156.896 279.441,155.967 276.381 C 155.169 273.753,154.419 272.429,154.968 274.616 C 155.794 277.908,156.862 279.928,158.029 280.412 C 159.996 281.227,166.174 280.197,167.193 278.884 C 167.314 278.728,169.211 276.894,171.407 274.808 C 177.996 268.550,190.862 255.924,190.726 255.848 C 190.657 255.809,189.250 254.773,187.600 253.545 C 173.380 242.968,164.951 236.800,164.717 236.800 C 164.620 236.800,164.325 239.545,164.061 242.900 M144.034 238.400 C 144.046 238.730,144.211 239.360,144.400 239.800 L 144.744 240.600 144.766 239.800 C 144.778 239.360,144.613 238.730,144.400 238.400 C 144.055 237.867,144.015 237.867,144.034 238.400 M259.400 241.600 C 259.248 242.291,259.207 242.941,259.309 243.042 C 259.411 243.144,259.609 242.653,259.750 241.950 C 259.891 241.247,259.931 240.598,259.841 240.508 C 259.750 240.417,259.552 240.909,259.400 241.600 M144.800 241.014 C 144.800 241.707,146.516 246.817,146.690 246.643 C 146.800 246.533,146.600 245.592,146.245 244.550 C 145.890 243.509,145.600 242.340,145.600 241.952 C 145.600 241.565,145.420 241.136,145.200 241.000 C 144.980 240.864,144.800 240.870,144.800 241.014 M258.222 247.022 C 258.072 247.825,258.028 248.562,258.126 248.660 C 258.224 248.757,258.427 248.181,258.578 247.378 C 258.728 246.575,258.772 245.838,258.674 245.740 C 258.576 245.643,258.373 246.219,258.222 247.022 M146.808 247.633 C 146.836 248.251,148.740 253.678,148.762 253.200 C 148.795 252.453,147.461 248.128,147.080 247.747 C 146.926 247.593,146.803 247.542,146.808 247.633 M148.800 254.214 C 148.800 254.907,150.516 260.017,150.690 259.843 C 150.800 259.733,150.600 258.792,150.245 257.750 C 149.890 256.709,149.600 255.540,149.600 255.152 C 149.600 254.765,149.420 254.336,149.200 254.200 C 148.980 254.064,148.800 254.070,148.800 254.214 M255.400 260.400 C 255.248 261.091,255.207 261.741,255.309 261.842 C 255.411 261.944,255.609 261.453,255.750 260.750 C 255.891 260.047,255.931 259.398,255.841 259.308 C 255.750 259.217,255.552 259.709,255.400 260.400 M150.808 260.700 C 150.824 261.344,152.737 266.968,152.767 266.462 C 152.806 265.818,151.192 260.400,150.961 260.400 C 150.872 260.400,150.803 260.535,150.808 260.700 M205.697 266.633 C 205.827 266.844,206.791 267.632,207.837 268.384 C 208.884 269.135,209.633 269.578,209.503 269.367 C 209.373 269.156,208.409 268.368,207.363 267.616 C 206.316 266.865,205.567 266.422,205.697 266.633 M152.828 267.476 C 152.918 268.515,153.544 269.396,153.572 268.524 C 153.587 268.042,153.420 267.536,153.200 267.400 C 152.980 267.264,152.813 267.298,152.828 267.476 M153.663 270.000 C 153.662 270.330,153.903 271.230,154.200 272.000 C 154.550 272.908,154.743 273.119,154.752 272.600 C 154.758 272.160,154.517 271.260,154.214 270.600 C 153.912 269.940,153.664 269.670,153.663 270.000 M216.400 274.546 C 216.400 274.656,216.940 275.130,217.600 275.600 C 218.260 276.070,218.800 276.364,218.800 276.254 C 218.800 276.144,218.260 275.670,217.600 275.200 C 216.940 274.730,216.400 274.436,216.400 274.546 M251.400 279.200 C 251.248 279.891,251.207 280.541,251.309 280.642 C 251.411 280.744,251.609 280.253,251.750 279.550 C 251.891 278.847,251.931 278.198,251.841 278.108 C 251.750 278.017,251.552 278.509,251.400 279.200 M241.300 290.687 C 241.905 290.778,242.895 290.778,243.500 290.687 C 244.105 290.595,243.610 290.520,242.400 290.520 C 241.190 290.520,240.695 290.595,241.300 290.687 " stroke="none" fill="#89ccea" fill-rule="evenodd"></path><path id="path4" d="M178.400 23.800 C 177.970 24.319,178.153 24.400,179.751 24.400 C 181.128 24.400,181.600 24.247,181.600 23.800 C 181.600 23.385,181.183 23.200,180.249 23.200 C 179.506 23.200,178.674 23.470,178.400 23.800 M183.200 23.852 C 183.200 24.406,183.513 24.462,185.300 24.227 C 188.403 23.819,188.632 23.200,185.680 23.200 C 183.655 23.200,183.200 23.320,183.200 23.852 M199.221 23.588 C 200.552 24.367,204.000 24.557,204.000 23.852 C 204.000 23.313,203.533 23.202,201.300 23.212 C 199.486 23.220,198.804 23.344,199.221 23.588 M205.447 23.777 C 205.607 24.196,206.205 24.400,207.276 24.400 C 209.440 24.400,209.095 23.441,206.873 23.277 C 205.501 23.176,205.250 23.264,205.447 23.777 M175.200 24.243 C 175.200 24.665,175.418 24.802,175.833 24.643 C 176.181 24.509,176.631 24.400,176.833 24.400 C 177.035 24.400,177.200 24.220,177.200 24.000 C 177.200 23.780,176.750 23.600,176.200 23.600 C 175.548 23.600,175.200 23.824,175.200 24.243 M210.400 24.378 C 211.637 25.373,212.098 25.410,211.926 24.500 C 211.841 24.053,211.361 23.759,210.597 23.687 L 209.400 23.574 210.400 24.378 M169.600 24.987 C 169.600 25.345,169.835 25.485,170.200 25.345 C 170.530 25.218,170.800 24.954,170.800 24.757 C 170.800 24.561,170.530 24.400,170.200 24.400 C 169.870 24.400,169.600 24.664,169.600 24.987 M171.200 24.800 C 171.200 25.020,171.740 25.200,172.400 25.200 C 173.060 25.200,173.600 25.020,173.600 24.800 C 173.600 24.580,173.060 24.400,172.400 24.400 C 171.740 24.400,171.200 24.580,171.200 24.800 M213.600 24.800 C 213.600 25.020,214.500 25.200,215.600 25.200 C 216.700 25.200,217.600 25.020,217.600 24.800 C 217.600 24.580,216.700 24.400,215.600 24.400 C 214.500 24.400,213.600 24.580,213.600 24.800 M167.120 25.680 C 167.493 26.053,167.707 26.053,168.080 25.680 C 168.453 25.307,168.347 25.200,167.600 25.200 C 166.853 25.200,166.747 25.307,167.120 25.680 M219.120 25.680 C 219.493 26.053,219.707 26.053,220.080 25.680 C 220.453 25.307,220.347 25.200,219.600 25.200 C 218.853 25.200,218.747 25.307,219.120 25.680 M160.860 26.242 C 160.131 27.066,160.600 27.457,161.381 26.676 C 161.721 26.336,162.000 25.954,162.000 25.829 C 162.000 25.409,161.406 25.624,160.860 26.242 M162.400 26.000 C 162.400 26.220,162.760 26.400,163.200 26.400 C 163.640 26.400,164.000 26.220,164.000 26.000 C 164.000 25.780,163.640 25.600,163.200 25.600 C 162.760 25.600,162.400 25.780,162.400 26.000 M223.200 26.000 C 223.200 26.220,223.560 26.400,224.000 26.400 C 224.440 26.400,224.800 26.220,224.800 26.000 C 224.800 25.780,224.440 25.600,224.000 25.600 C 223.560 25.600,223.200 25.780,223.200 26.000 M225.600 26.091 C 225.600 26.820,226.309 27.424,226.703 27.031 C 226.840 26.893,226.648 26.477,226.276 26.105 C 225.653 25.481,225.600 25.480,225.600 26.091 M158.100 26.665 C 157.145 27.050,157.607 27.460,158.800 27.285 C 159.460 27.188,160.000 26.950,160.000 26.755 C 160.000 26.378,158.935 26.328,158.100 26.665 M227.200 26.800 C 227.200 27.020,227.740 27.200,228.400 27.200 C 229.060 27.200,229.600 27.020,229.600 26.800 C 229.600 26.580,229.060 26.400,228.400 26.400 C 227.740 26.400,227.200 26.580,227.200 26.800 M154.240 27.536 C 154.107 27.750,153.639 27.831,153.200 27.716 C 152.753 27.599,152.400 27.704,152.400 27.953 C 152.400 28.523,154.266 28.540,154.616 27.973 C 154.761 27.739,154.790 27.457,154.680 27.347 C 154.570 27.237,154.372 27.322,154.240 27.536 M232.281 27.868 C 232.431 28.258,232.959 28.413,233.873 28.334 C 234.624 28.270,235.366 28.399,235.520 28.623 C 235.896 29.168,239.980 29.957,240.241 29.534 C 240.354 29.350,239.897 29.200,239.224 29.200 C 238.551 29.200,238.000 28.999,238.000 28.753 C 238.000 28.491,237.582 28.387,236.990 28.500 C 236.426 28.608,235.852 28.477,235.690 28.205 C 235.238 27.446,231.996 27.125,232.281 27.868 M149.200 28.748 C 149.200 28.940,148.120 29.219,146.800 29.368 C 144.455 29.633,143.415 30.400,145.400 30.400 C 145.950 30.400,146.400 30.235,146.400 30.033 C 146.400 29.831,147.030 29.716,147.800 29.777 C 148.570 29.839,149.200 29.734,149.200 29.544 C 149.200 29.355,149.560 29.200,150.000 29.200 C 150.440 29.200,150.800 29.020,150.800 28.800 C 150.800 28.580,150.440 28.400,150.000 28.400 C 149.560 28.400,149.200 28.557,149.200 28.748 M240.800 30.000 C 240.800 30.220,241.250 30.400,241.800 30.400 C 242.350 30.400,242.800 30.580,242.800 30.800 C 242.800 31.020,243.250 31.200,243.800 31.200 C 244.350 31.200,244.800 31.020,244.800 30.800 C 244.800 30.580,244.350 30.400,243.800 30.400 C 243.250 30.400,242.800 30.220,242.800 30.000 C 242.800 29.780,242.350 29.600,241.800 29.600 C 241.250 29.600,240.800 29.780,240.800 30.000 M141.600 30.762 C 141.600 30.962,140.700 31.249,139.600 31.400 C 138.500 31.551,137.600 31.838,137.600 32.038 C 137.600 32.237,137.251 32.400,136.824 32.400 C 136.397 32.400,135.936 32.580,135.800 32.800 C 135.664 33.020,135.158 33.201,134.676 33.202 C 134.194 33.204,133.284 33.474,132.654 33.802 C 132.024 34.131,131.259 34.400,130.954 34.400 C 130.649 34.400,130.400 34.557,130.400 34.749 C 130.400 34.941,129.680 35.213,128.800 35.354 C 127.920 35.494,127.200 35.787,127.200 36.005 C 127.200 36.222,126.750 36.400,126.200 36.400 C 125.650 36.400,125.200 36.580,125.200 36.800 C 125.200 37.020,124.851 37.200,124.424 37.200 C 123.997 37.200,123.534 37.383,123.396 37.607 C 123.258 37.830,122.977 37.909,122.772 37.783 C 122.568 37.656,122.400 37.743,122.400 37.976 C 122.400 38.209,121.950 38.400,121.400 38.400 C 120.850 38.400,120.400 38.572,120.400 38.782 C 120.400 38.992,119.770 39.282,119.000 39.426 C 118.230 39.571,117.600 39.849,117.600 40.045 C 117.600 40.240,117.330 40.400,117.000 40.400 C 116.670 40.400,116.400 40.572,116.400 40.782 C 116.400 40.992,115.770 41.282,115.000 41.426 C 114.230 41.571,113.600 41.849,113.600 42.045 C 113.600 42.240,113.330 42.400,113.000 42.400 C 112.670 42.400,112.400 42.572,112.400 42.782 C 112.400 42.992,111.770 43.282,111.000 43.426 C 110.230 43.571,109.600 43.849,109.600 44.045 C 109.600 44.240,109.330 44.400,109.000 44.400 C 108.670 44.400,108.400 44.577,108.400 44.792 C 108.400 45.008,107.950 45.298,107.400 45.436 C 106.850 45.574,106.400 45.847,106.400 46.043 C 106.400 46.240,106.130 46.400,105.800 46.400 C 105.470 46.400,105.200 46.580,105.200 46.800 C 105.200 47.020,104.834 47.200,104.387 47.200 C 103.941 47.200,103.471 47.470,103.345 47.800 C 103.218 48.130,102.774 48.400,102.357 48.400 C 101.941 48.400,101.600 48.577,101.600 48.792 C 101.600 49.008,101.150 49.298,100.600 49.436 C 100.050 49.574,99.600 49.847,99.600 50.043 C 99.600 50.240,99.407 50.400,99.171 50.400 C 98.936 50.400,98.449 50.694,98.090 51.053 C 97.486 51.656,97.511 51.683,98.419 51.400 C 98.958 51.232,99.460 50.938,99.533 50.747 C 99.607 50.556,99.922 50.400,100.233 50.400 C 100.545 50.400,100.800 50.240,100.800 50.043 C 100.800 49.847,101.284 49.565,101.876 49.417 C 102.468 49.268,103.233 48.824,103.576 48.430 C 103.919 48.037,104.636 47.577,105.169 47.408 C 105.702 47.240,106.495 46.770,106.930 46.365 C 107.365 45.959,107.847 45.705,108.000 45.800 C 108.153 45.895,108.659 45.619,109.123 45.186 C 109.587 44.754,110.199 44.394,110.483 44.387 C 110.767 44.380,111.349 44.110,111.776 43.787 C 112.204 43.464,112.879 43.200,113.276 43.200 C 113.674 43.200,114.000 43.041,114.000 42.847 C 114.000 42.652,114.405 42.362,114.900 42.200 C 115.395 42.039,115.890 41.859,116.000 41.800 C 116.110 41.741,116.605 41.561,117.100 41.400 C 117.595 41.238,118.000 40.948,118.000 40.753 C 118.000 40.559,118.270 40.400,118.600 40.400 C 118.930 40.400,119.200 40.228,119.200 40.018 C 119.200 39.808,119.875 39.512,120.700 39.360 C 121.525 39.209,122.290 38.976,122.400 38.842 C 122.794 38.366,125.642 37.200,126.414 37.200 C 126.846 37.200,127.200 37.020,127.200 36.800 C 127.200 36.580,127.449 36.400,127.754 36.400 C 128.059 36.400,128.824 36.131,129.454 35.802 C 130.084 35.474,130.915 35.204,131.300 35.202 C 131.685 35.201,132.000 35.020,132.000 34.800 C 132.000 34.580,132.339 34.400,132.754 34.400 C 133.169 34.400,134.024 34.131,134.654 33.802 C 135.284 33.474,136.205 33.204,136.700 33.202 C 137.195 33.201,137.600 33.020,137.600 32.800 C 137.600 32.580,138.140 32.400,138.800 32.400 C 139.460 32.400,140.000 32.237,140.000 32.038 C 140.000 31.838,140.900 31.551,142.000 31.400 C 144.176 31.101,144.737 30.400,142.800 30.400 C 142.140 30.400,141.600 30.563,141.600 30.762 M247.364 32.058 C 247.169 32.374,247.409 32.453,248.141 32.313 C 248.836 32.181,249.200 32.285,249.200 32.618 C 249.200 32.923,249.997 33.234,251.200 33.400 C 252.300 33.551,253.200 33.838,253.200 34.038 C 253.200 34.237,253.560 34.400,254.000 34.400 C 254.440 34.400,254.800 34.241,254.800 34.047 C 254.800 33.639,253.421 33.213,252.076 33.205 C 251.481 33.202,251.254 33.036,251.438 32.738 C 251.596 32.482,251.550 32.384,251.333 32.518 C 251.118 32.650,250.440 32.498,249.826 32.180 C 248.479 31.481,247.743 31.445,247.364 32.058 M255.200 34.765 C 255.200 34.966,255.920 35.251,256.800 35.400 C 257.680 35.549,258.400 35.834,258.400 36.035 C 258.400 36.236,258.760 36.400,259.200 36.400 C 259.640 36.400,260.000 36.580,260.000 36.800 C 260.000 37.020,260.360 37.200,260.800 37.200 C 261.240 37.200,261.600 37.020,261.600 36.800 C 261.600 36.580,261.330 36.400,261.000 36.400 C 260.670 36.400,260.400 36.240,260.400 36.045 C 260.400 35.850,259.590 35.569,258.600 35.421 C 257.610 35.272,256.800 34.982,256.800 34.775 C 256.800 34.569,256.440 34.400,256.000 34.400 C 255.560 34.400,255.200 34.564,255.200 34.765 M262.900 37.482 C 263.285 37.577,263.600 37.823,263.600 38.028 C 263.600 38.233,263.870 38.400,264.200 38.400 C 264.530 38.400,264.800 38.564,264.800 38.765 C 264.800 38.966,265.520 39.251,266.400 39.400 C 267.280 39.549,268.000 39.834,268.000 40.035 C 268.000 40.236,268.270 40.400,268.600 40.400 C 268.930 40.400,269.200 40.538,269.200 40.706 C 269.200 41.027,272.120 42.400,272.803 42.400 C 273.021 42.400,273.200 42.560,273.200 42.755 C 273.200 42.951,273.817 43.227,274.571 43.368 C 275.325 43.510,276.009 43.827,276.091 44.073 C 276.173 44.319,276.501 44.429,276.820 44.318 C 277.180 44.193,276.679 43.774,275.500 43.214 C 274.455 42.718,273.600 42.166,273.600 41.988 C 273.600 41.809,273.015 41.537,272.300 41.382 C 271.585 41.226,270.910 40.978,270.800 40.829 C 270.474 40.388,267.732 39.200,267.040 39.200 C 266.688 39.200,266.400 39.020,266.400 38.800 C 266.400 38.580,266.055 38.400,265.633 38.400 C 265.212 38.400,264.807 38.224,264.733 38.009 C 264.660 37.794,264.060 37.548,263.400 37.463 C 262.740 37.378,262.515 37.386,262.900 37.482 M277.600 44.773 C 277.600 45.223,279.163 45.770,279.497 45.437 C 279.627 45.306,279.433 45.200,279.067 45.200 C 278.700 45.200,278.400 45.020,278.400 44.800 C 278.400 44.580,278.220 44.400,278.000 44.400 C 277.780 44.400,277.600 44.568,277.600 44.773 M279.800 46.000 C 279.664 46.220,279.818 46.400,280.143 46.400 C 280.468 46.400,280.793 46.556,280.867 46.747 C 280.940 46.938,281.449 47.234,281.997 47.405 C 282.890 47.683,282.937 47.647,282.448 47.058 C 282.148 46.696,281.654 46.400,281.351 46.400 C 281.048 46.400,280.800 46.220,280.800 46.000 C 280.800 45.780,280.631 45.600,280.424 45.600 C 280.217 45.600,279.936 45.780,279.800 46.000 M283.000 48.000 C 282.864 48.220,283.134 48.400,283.600 48.400 C 284.066 48.400,284.336 48.220,284.200 48.000 C 284.064 47.780,283.794 47.600,283.600 47.600 C 283.406 47.600,283.136 47.780,283.000 48.000 M284.800 48.813 C 284.800 49.039,285.115 49.345,285.500 49.492 C 285.885 49.639,286.549 50.084,286.975 50.480 C 287.402 50.876,287.987 51.200,288.275 51.200 C 288.564 51.200,288.800 51.391,288.800 51.624 C 288.800 51.857,288.946 51.957,289.124 51.847 C 289.302 51.737,289.954 52.184,290.573 52.840 C 291.193 53.497,291.902 53.964,292.150 53.879 C 292.397 53.795,292.870 54.027,293.200 54.396 C 293.530 54.764,294.340 55.411,295.000 55.833 C 296.390 56.721,297.418 57.514,298.460 58.500 C 298.867 58.885,299.321 59.200,299.469 59.200 C 299.616 59.200,300.067 59.499,300.471 59.864 C 300.875 60.230,301.309 60.425,301.436 60.298 C 301.759 59.974,300.117 58.400,299.456 58.400 C 299.157 58.400,298.574 57.950,298.161 57.400 C 297.748 56.850,297.265 56.400,297.088 56.400 C 296.783 56.400,296.287 56.041,295.015 54.900 C 294.708 54.625,294.264 54.400,294.029 54.400 C 293.793 54.400,293.600 54.232,293.600 54.027 C 293.600 53.822,293.195 53.526,292.700 53.370 C 292.205 53.213,291.530 52.777,291.200 52.400 C 290.870 52.023,290.195 51.587,289.700 51.430 C 289.205 51.274,288.800 50.978,288.800 50.773 C 288.800 50.568,288.530 50.400,288.200 50.400 C 287.870 50.400,287.600 50.240,287.600 50.043 C 287.600 49.847,287.150 49.574,286.600 49.436 C 286.050 49.298,285.600 49.008,285.600 48.792 C 285.600 48.577,285.420 48.400,285.200 48.400 C 284.980 48.400,284.800 48.586,284.800 48.813 M96.333 51.914 C 96.260 52.087,95.605 52.647,94.877 53.158 C 93.218 54.323,93.494 54.729,95.272 53.739 C 96.614 52.992,97.183 52.448,97.194 51.900 C 97.202 51.502,96.503 51.514,96.333 51.914 M92.400 54.709 C 92.400 54.879,91.781 55.352,91.023 55.759 C 90.266 56.167,89.552 56.748,89.436 57.050 C 89.320 57.353,88.872 57.600,88.440 57.600 C 88.007 57.600,87.543 57.951,87.406 58.380 C 87.270 58.808,86.779 59.280,86.313 59.427 C 85.848 59.575,85.039 60.124,84.516 60.648 C 83.992 61.172,83.429 61.600,83.264 61.600 C 82.808 61.600,79.609 64.675,79.832 64.899 C 79.940 65.006,79.482 65.204,78.814 65.337 C 77.499 65.600,77.138 66.400,78.334 66.400 C 78.738 66.400,79.536 65.905,80.109 65.300 C 81.456 63.876,82.287 63.200,82.688 63.200 C 82.865 63.200,83.348 62.750,83.761 62.200 C 84.174 61.650,84.757 61.200,85.056 61.200 C 85.355 61.200,85.601 61.065,85.603 60.900 C 85.604 60.735,86.271 60.150,87.084 59.600 C 87.897 59.050,89.072 58.105,89.695 57.500 C 90.318 56.895,90.999 56.400,91.209 56.400 C 91.695 56.400,93.200 55.123,93.200 54.711 C 93.200 54.540,93.020 54.400,92.800 54.400 C 92.580 54.400,92.400 54.539,92.400 54.709 M302.000 60.667 C 302.000 61.033,305.717 64.370,306.142 64.387 C 306.331 64.394,306.839 64.850,307.271 65.400 C 307.704 65.950,308.311 66.400,308.620 66.400 C 308.929 66.400,309.482 66.859,309.850 67.420 C 310.441 68.322,312.800 69.928,312.800 69.428 C 312.800 69.061,310.761 67.200,310.358 67.200 C 310.135 67.200,310.081 66.992,310.238 66.738 C 310.399 66.478,310.349 66.384,310.125 66.523 C 309.906 66.658,308.901 65.966,307.891 64.984 C 306.881 64.003,305.785 63.200,305.454 63.200 C 305.124 63.200,304.743 62.849,304.606 62.420 C 304.470 61.992,304.008 61.530,303.580 61.394 C 303.151 61.257,302.800 60.978,302.800 60.773 C 302.800 60.568,302.620 60.400,302.400 60.400 C 302.180 60.400,302.000 60.520,302.000 60.667 M75.916 67.814 C 75.632 68.152,75.184 68.670,74.919 68.966 C 74.655 69.262,74.536 69.603,74.656 69.723 C 74.915 69.982,77.200 68.016,77.200 67.534 C 77.200 66.993,76.472 67.151,75.916 67.814 M68.191 75.000 C 63.969 79.230,63.046 80.400,63.929 80.400 C 64.111 80.400,65.790 78.825,67.663 76.900 C 69.535 74.975,71.636 72.904,72.333 72.297 C 73.601 71.193,73.960 70.400,73.191 70.400 C 72.967 70.400,70.717 72.470,68.191 75.000 M313.604 70.700 C 313.606 70.865,315.970 73.340,318.858 76.200 C 321.745 79.060,324.375 81.805,324.700 82.300 C 325.210 83.076,326.400 83.571,326.400 83.008 C 326.400 82.751,314.059 70.400,313.802 70.400 C 313.691 70.400,313.602 70.535,313.604 70.700 M61.916 81.804 C 61.632 82.137,60.725 83.106,59.900 83.957 C 59.075 84.809,58.400 85.641,58.400 85.806 C 58.400 85.971,57.770 86.700,57.000 87.426 C 56.230 88.152,55.600 88.937,55.600 89.170 C 55.600 89.403,55.060 90.109,54.400 90.740 C 53.740 91.371,53.200 92.170,53.200 92.516 C 53.200 92.863,52.849 93.257,52.420 93.394 C 51.992 93.530,51.543 93.947,51.423 94.320 C 51.303 94.694,50.754 95.523,50.202 96.162 C 49.651 96.801,49.200 97.527,49.200 97.774 C 49.200 98.021,48.840 98.483,48.400 98.800 C 47.960 99.117,47.600 99.579,47.600 99.827 C 47.600 100.075,47.229 100.706,46.775 101.229 C 46.321 101.752,45.568 102.860,45.101 103.690 C 44.635 104.521,44.125 105.200,43.970 105.200 C 43.814 105.200,43.574 105.650,43.436 106.200 C 43.298 106.750,43.008 107.200,42.792 107.200 C 42.577 107.200,42.400 107.470,42.400 107.800 C 42.400 108.130,42.240 108.400,42.043 108.400 C 41.847 108.400,41.574 108.850,41.436 109.400 C 41.298 109.950,41.008 110.400,40.792 110.400 C 40.577 110.400,40.400 110.670,40.400 111.000 C 40.400 111.330,40.243 111.600,40.050 111.600 C 39.858 111.600,39.600 112.095,39.477 112.700 C 39.355 113.305,38.890 114.190,38.444 114.666 C 37.997 115.142,37.516 115.997,37.373 116.566 C 37.230 117.135,36.953 117.600,36.757 117.600 C 36.560 117.600,36.400 117.960,36.400 118.400 C 36.400 118.840,36.234 119.200,36.032 119.200 C 35.829 119.200,35.545 119.740,35.400 120.400 C 35.255 121.060,34.971 121.600,34.768 121.600 C 34.566 121.600,34.400 121.960,34.400 122.400 C 34.400 122.840,34.234 123.200,34.032 123.200 C 33.829 123.200,33.545 123.740,33.400 124.400 C 33.255 125.060,32.971 125.600,32.768 125.600 C 32.566 125.600,32.400 126.050,32.400 126.600 C 32.400 127.150,32.240 127.600,32.045 127.600 C 31.849 127.600,31.571 128.230,31.426 129.000 C 31.282 129.770,31.036 130.400,30.880 130.400 C 30.502 130.400,29.682 132.288,29.359 133.903 C 29.217 134.616,28.943 135.200,28.750 135.200 C 28.558 135.200,28.400 135.650,28.400 136.200 C 28.400 136.750,28.222 137.200,28.005 137.200 C 27.787 137.200,27.494 137.920,27.354 138.800 C 27.213 139.680,26.941 140.400,26.749 140.400 C 26.557 140.400,26.400 140.850,26.400 141.400 C 26.400 141.950,26.237 142.400,26.038 142.400 C 25.838 142.400,25.551 143.300,25.400 144.400 C 25.249 145.500,24.962 146.400,24.762 146.400 C 24.563 146.400,24.400 146.904,24.400 147.520 C 24.400 148.136,24.231 148.811,24.025 149.020 C 23.512 149.539,23.007 153.600,23.455 153.600 C 23.652 153.600,24.158 152.150,24.581 150.378 C 25.003 148.606,25.479 147.075,25.639 146.976 C 25.799 146.877,26.052 146.078,26.200 145.200 C 26.348 144.322,26.634 143.503,26.835 143.378 C 27.036 143.254,27.200 142.713,27.200 142.176 C 27.200 141.639,27.380 141.200,27.600 141.200 C 27.820 141.200,28.000 140.862,28.000 140.449 C 28.000 139.786,28.402 138.596,29.570 135.800 C 29.754 135.360,30.217 134.190,30.599 133.200 C 31.338 131.285,32.673 128.277,34.242 124.994 C 34.769 123.891,35.200 122.781,35.200 122.528 C 35.200 122.274,35.335 122.007,35.500 121.933 C 35.665 121.860,36.478 120.450,37.306 118.800 C 38.134 117.150,39.443 114.720,40.216 113.400 C 40.989 112.080,41.836 110.505,42.098 109.900 C 42.361 109.295,42.716 108.800,42.888 108.800 C 43.059 108.800,43.200 108.608,43.200 108.373 C 43.200 108.139,43.650 107.357,44.200 106.636 C 44.750 105.914,45.200 105.209,45.200 105.067 C 45.200 104.925,46.280 103.289,47.600 101.432 C 48.920 99.575,50.000 97.863,50.000 97.628 C 50.000 97.392,50.152 97.200,50.337 97.200 C 50.523 97.200,51.288 96.300,52.037 95.201 C 52.787 94.101,53.535 93.201,53.700 93.201 C 53.865 93.200,54.005 92.975,54.011 92.700 C 54.017 92.425,54.557 91.675,55.211 91.033 C 55.865 90.392,56.400 89.725,56.400 89.552 C 56.400 89.378,56.863 88.733,57.428 88.118 C 57.994 87.503,58.784 86.640,59.184 86.200 C 59.585 85.760,60.034 84.995,60.183 84.500 C 60.332 84.005,60.613 83.600,60.806 83.600 C 61.220 83.600,63.200 81.825,63.200 81.454 C 63.200 80.986,62.437 81.194,61.916 81.804 M326.800 84.413 C 326.800 84.641,327.295 85.321,327.900 85.924 C 328.505 86.527,329.360 87.525,329.800 88.141 C 330.240 88.757,330.960 89.669,331.400 90.167 C 332.724 91.666,334.590 94.085,334.752 94.512 C 334.836 94.732,335.150 95.202,335.449 95.556 C 335.749 95.910,336.877 97.429,337.955 98.930 C 339.135 100.573,340.027 101.481,340.194 101.209 C 340.348 100.961,340.123 100.452,339.694 100.079 C 339.265 99.705,338.787 98.995,338.630 98.500 C 338.474 98.005,338.178 97.600,337.973 97.600 C 337.768 97.600,337.600 97.396,337.600 97.146 C 337.600 96.896,337.150 96.275,336.600 95.765 C 336.050 95.255,335.600 94.662,335.600 94.448 C 335.600 94.233,334.976 93.396,334.214 92.587 C 333.451 91.779,332.722 90.785,332.593 90.379 C 332.465 89.973,332.008 89.530,331.580 89.394 C 331.151 89.257,330.800 88.895,330.800 88.589 C 330.800 88.283,330.080 87.298,329.200 86.400 C 328.320 85.502,327.600 84.595,327.600 84.384 C 327.600 84.173,327.420 84.000,327.200 84.000 C 326.980 84.000,326.800 84.186,326.800 84.413 M340.202 101.997 C 340.065 102.219,340.143 102.400,340.376 102.400 C 340.609 102.400,340.800 102.670,340.800 103.000 C 340.800 103.330,340.960 103.600,341.157 103.600 C 341.353 103.600,341.616 104.009,341.741 104.508 C 341.866 105.007,342.336 105.810,342.785 106.291 C 343.233 106.773,343.600 107.261,343.600 107.376 C 343.600 107.492,344.320 108.762,345.200 110.200 C 346.080 111.638,346.800 112.976,346.800 113.174 C 346.800 113.372,346.935 113.593,347.100 113.667 C 347.265 113.740,347.758 114.520,348.196 115.400 C 348.634 116.280,349.084 117.090,349.196 117.200 C 349.653 117.649,350.800 120.104,350.800 120.632 C 350.800 120.945,350.980 121.200,351.200 121.200 C 351.420 121.200,351.600 121.379,351.600 121.597 C 351.600 122.259,352.968 125.200,353.276 125.200 C 353.434 125.200,353.682 125.830,353.826 126.600 C 353.971 127.370,354.249 128.000,354.445 128.000 C 354.640 128.000,354.800 128.360,354.800 128.800 C 354.800 129.240,354.980 129.600,355.200 129.600 C 355.420 129.600,355.601 129.915,355.602 130.300 C 355.604 130.685,355.874 131.516,356.202 132.146 C 356.531 132.776,356.800 133.541,356.800 133.846 C 356.800 134.151,356.980 134.400,357.200 134.400 C 357.420 134.400,357.600 134.749,357.600 135.176 C 357.600 135.603,357.764 136.054,357.965 136.178 C 358.166 136.303,358.452 137.123,358.600 138.002 C 358.749 138.881,359.034 139.600,359.235 139.600 C 359.436 139.600,359.601 140.005,359.602 140.500 C 359.604 140.995,359.874 141.916,360.202 142.546 C 360.531 143.176,360.800 143.943,360.800 144.251 C 360.800 144.559,360.955 145.123,361.144 145.505 C 361.765 146.762,362.800 150.291,362.800 151.154 C 362.800 151.619,362.939 152.000,363.108 152.000 C 363.417 152.000,364.307 155.672,364.684 158.500 C 364.794 159.325,365.045 160.000,365.242 160.000 C 365.439 160.000,365.600 160.600,365.600 161.333 C 365.600 162.067,365.735 162.802,365.900 162.967 C 366.065 163.131,366.233 163.656,366.273 164.133 C 366.566 167.628,366.964 170.000,367.256 170.000 C 367.445 170.000,367.600 170.630,367.600 171.400 C 367.600 172.170,367.780 172.800,368.000 172.800 C 368.220 172.800,368.400 172.091,368.400 171.224 C 368.400 170.357,368.220 169.536,368.000 169.400 C 367.780 169.264,367.600 168.353,367.600 167.376 C 367.600 166.399,367.441 165.600,367.247 165.600 C 367.053 165.600,366.768 164.251,366.613 162.603 C 366.459 160.954,366.167 159.504,365.966 159.379 C 365.765 159.255,365.600 158.533,365.600 157.776 C 365.600 157.019,365.441 156.400,365.246 156.400 C 365.051 156.400,364.769 155.413,364.618 154.206 C 364.467 153.000,364.177 151.909,363.972 151.783 C 363.767 151.656,363.600 151.023,363.600 150.376 C 363.600 149.729,363.437 149.200,363.238 149.200 C 363.038 149.200,362.751 148.300,362.600 147.200 C 362.449 146.100,362.162 145.200,361.962 145.200 C 361.763 145.200,361.600 144.750,361.600 144.200 C 361.600 143.650,361.440 143.200,361.245 143.200 C 361.050 143.200,360.770 142.394,360.622 141.409 C 360.475 140.424,360.184 139.514,359.977 139.386 C 359.770 139.258,359.600 138.803,359.600 138.376 C 359.600 137.949,359.443 137.600,359.251 137.600 C 359.059 137.600,358.787 136.880,358.646 136.000 C 358.506 135.120,358.213 134.400,357.995 134.400 C 357.778 134.400,357.600 133.950,357.600 133.400 C 357.600 132.850,357.428 132.400,357.218 132.400 C 357.008 132.400,356.718 131.768,356.573 130.996 C 356.428 130.223,356.150 129.493,355.955 129.372 C 355.760 129.251,355.600 128.803,355.600 128.376 C 355.600 127.949,355.434 127.600,355.232 127.600 C 355.029 127.600,354.745 127.060,354.600 126.400 C 354.455 125.740,354.171 125.200,353.968 125.200 C 353.766 125.200,353.600 124.840,353.600 124.400 C 353.600 123.960,353.434 123.600,353.232 123.600 C 353.029 123.600,352.745 123.060,352.600 122.400 C 352.455 121.740,352.171 121.200,351.968 121.200 C 351.766 121.200,351.600 120.840,351.600 120.400 C 351.600 119.960,351.434 119.600,351.232 119.600 C 351.029 119.600,350.745 119.060,350.600 118.400 C 350.455 117.740,350.171 117.200,349.968 117.200 C 349.766 117.200,349.600 116.840,349.600 116.400 C 349.600 115.960,349.440 115.600,349.243 115.600 C 349.047 115.600,348.770 115.135,348.627 114.566 C 348.484 113.997,348.003 113.142,347.556 112.666 C 347.110 112.190,346.645 111.305,346.523 110.700 C 346.400 110.095,346.171 109.600,346.013 109.600 C 345.855 109.600,345.383 108.925,344.963 108.100 C 344.543 107.275,343.911 106.330,343.557 106.000 C 343.204 105.670,342.787 104.995,342.630 104.500 C 342.474 104.005,342.178 103.600,341.973 103.600 C 341.768 103.600,341.600 103.407,341.600 103.171 C 341.600 102.478,340.484 101.540,340.202 101.997 M22.400 154.720 C 22.400 155.336,22.221 156.019,22.002 156.238 C 21.784 156.456,21.488 157.752,21.346 159.118 C 21.203 160.483,20.932 161.600,20.743 161.600 C 20.554 161.600,20.400 162.152,20.400 162.826 C 20.400 163.501,20.218 164.392,19.997 164.806 C 19.775 165.221,19.478 166.925,19.337 168.593 C 19.196 170.262,18.927 171.721,18.740 171.837 C 18.553 171.953,18.400 173.027,18.400 174.224 C 18.400 175.421,18.220 176.400,18.000 176.400 C 17.780 176.400,17.600 177.405,17.600 178.633 C 17.600 180.247,17.739 180.818,18.100 180.692 C 18.389 180.591,18.581 179.902,18.554 179.058 C 18.529 178.256,18.664 177.600,18.854 177.600 C 19.044 177.600,19.200 176.556,19.200 175.280 C 19.200 174.004,19.363 172.789,19.561 172.580 C 19.915 172.207,20.323 169.674,20.507 166.700 C 20.558 165.875,20.735 165.200,20.900 165.200 C 21.065 165.200,21.200 164.491,21.200 163.624 C 21.200 162.757,21.360 161.948,21.556 161.827 C 21.751 161.706,22.007 161.021,22.123 160.304 C 22.240 159.587,22.596 157.881,22.915 156.514 C 23.234 155.147,23.399 153.932,23.281 153.814 C 22.769 153.302,22.400 153.682,22.400 154.720 M368.000 173.953 C 368.000 174.393,368.180 174.864,368.400 175.000 C 368.620 175.136,368.800 174.887,368.800 174.447 C 368.800 174.007,368.620 173.536,368.400 173.400 C 368.180 173.264,368.000 173.513,368.000 173.953 M368.134 176.227 C 368.002 176.572,368.098 177.058,368.347 177.307 C 368.684 177.644,368.800 177.484,368.800 176.680 C 368.800 175.477,368.501 175.273,368.134 176.227 M368.800 179.600 C 368.800 180.260,368.980 180.800,369.200 180.800 C 369.420 180.800,369.600 180.260,369.600 179.600 C 369.600 178.940,369.420 178.400,369.200 178.400 C 368.980 178.400,368.800 178.940,368.800 179.600 M17.443 181.833 C 17.064 182.819,17.157 184.000,17.613 184.000 C 18.129 184.000,18.760 182.372,18.505 181.700 C 18.242 181.010,17.734 181.074,17.443 181.833 M368.800 182.400 C 368.800 183.060,368.980 183.600,369.200 183.600 C 369.420 183.600,369.600 183.060,369.600 182.400 C 369.600 181.740,369.420 181.200,369.200 181.200 C 368.980 181.200,368.800 181.740,368.800 182.400 M16.890 185.205 C 16.102 186.467,16.246 188.888,17.100 188.726 C 17.880 188.578,18.297 186.060,17.714 185.017 C 17.431 184.512,17.305 184.541,16.890 185.205 M369.425 185.559 C 369.113 186.064,369.627 188.400,370.050 188.400 C 370.243 188.400,370.400 187.680,370.400 186.800 C 370.400 185.310,369.941 184.725,369.425 185.559 M16.400 193.386 C 16.400 197.976,16.798 198.745,17.531 195.569 C 18.273 192.355,18.148 190.108,17.200 189.600 C 16.424 189.184,16.400 189.296,16.400 193.386 M369.393 190.423 C 369.058 191.478,369.560 195.200,370.038 195.200 C 370.237 195.200,370.400 193.940,370.400 192.400 C 370.400 189.681,369.924 188.748,369.393 190.423 M16.400 206.800 C 16.400 210.533,16.453 210.800,17.200 210.800 C 18.152 210.800,18.329 207.662,17.553 204.577 C 16.827 201.698,16.400 202.522,16.400 206.800 M369.403 207.177 C 369.120 209.238,369.388 210.800,370.027 210.800 C 370.232 210.800,370.400 209.540,370.400 208.000 C 370.400 204.769,369.802 204.275,369.403 207.177 M16.639 211.494 C 16.173 211.960,16.409 214.466,16.971 215.029 C 17.864 215.921,18.000 215.739,18.000 213.643 C 18.000 211.819,17.346 210.787,16.639 211.494 M369.396 213.225 C 369.106 214.943,369.269 215.452,369.973 215.016 C 370.493 214.695,370.543 212.136,370.035 211.822 C 369.835 211.698,369.547 212.329,369.396 213.225 M17.389 216.700 C 17.540 217.085,17.651 218.785,17.635 220.479 C 17.620 222.172,17.786 223.667,18.004 223.802 C 18.222 223.937,18.400 225.016,18.400 226.200 C 18.400 227.384,18.556 228.449,18.748 228.568 C 18.939 228.686,19.221 230.223,19.374 231.984 C 19.528 233.745,19.822 235.290,20.027 235.417 C 20.232 235.543,20.400 236.357,20.400 237.224 C 20.400 238.091,20.557 238.800,20.748 238.800 C 20.940 238.800,21.221 240.060,21.373 241.600 C 21.524 243.140,21.818 244.400,22.024 244.400 C 22.231 244.400,22.400 244.940,22.400 245.600 C 22.400 246.260,22.557 246.800,22.748 246.800 C 22.940 246.800,23.219 247.880,23.368 249.200 C 23.518 250.520,23.811 251.600,24.020 251.600 C 24.229 251.600,24.400 252.050,24.400 252.600 C 24.400 253.150,24.563 253.600,24.762 253.600 C 24.962 253.600,25.249 254.500,25.400 255.600 C 25.551 256.699,25.838 257.700,26.037 257.823 C 26.237 257.946,26.400 258.397,26.400 258.824 C 26.400 259.251,26.557 259.600,26.749 259.600 C 26.941 259.600,27.213 260.318,27.353 261.195 C 27.493 262.072,27.955 263.408,28.380 264.165 C 28.805 264.921,29.273 266.183,29.421 266.970 C 29.568 267.756,29.805 268.400,29.947 268.400 C 30.258 268.400,31.055 270.183,31.421 271.700 C 31.567 272.305,31.847 272.800,32.043 272.800 C 32.240 272.800,32.400 273.160,32.400 273.600 C 32.400 274.040,32.566 274.400,32.768 274.400 C 32.971 274.400,33.255 274.938,33.399 275.595 C 33.543 276.253,33.828 276.894,34.031 277.019 C 34.234 277.145,34.400 277.597,34.400 278.024 C 34.400 278.451,34.566 278.800,34.768 278.800 C 34.971 278.800,35.250 279.316,35.388 279.946 C 35.527 280.576,35.984 281.461,36.404 281.912 C 36.824 282.363,37.284 283.197,37.427 283.766 C 37.570 284.335,37.847 284.800,38.043 284.800 C 38.240 284.800,38.400 285.160,38.400 285.600 C 38.400 286.040,38.560 286.400,38.757 286.400 C 38.953 286.400,39.216 286.809,39.341 287.308 C 39.466 287.807,39.929 288.602,40.368 289.074 C 40.808 289.546,41.288 290.410,41.434 290.994 C 41.581 291.578,42.038 292.267,42.450 292.524 C 42.863 292.782,43.200 293.315,43.200 293.709 C 43.200 294.103,43.470 294.529,43.800 294.655 C 44.130 294.782,44.400 295.226,44.400 295.643 C 44.400 296.059,44.568 296.400,44.773 296.400 C 44.978 296.400,45.274 296.805,45.430 297.300 C 45.587 297.795,46.049 298.435,46.457 298.723 C 46.866 299.010,47.200 299.511,47.200 299.835 C 47.200 300.160,47.470 300.529,47.800 300.655 C 48.130 300.782,48.400 301.136,48.400 301.443 C 48.400 301.749,48.715 302.329,49.100 302.730 C 50.253 303.933,51.600 305.751,51.600 306.105 C 51.600 306.287,52.050 306.886,52.600 307.436 C 53.150 307.986,53.600 308.581,53.600 308.757 C 53.600 308.933,54.230 309.726,55.000 310.519 C 55.770 311.312,56.400 312.067,56.400 312.197 C 56.400 312.463,57.135 313.393,57.919 314.119 C 58.205 314.384,58.655 314.842,58.919 315.138 C 59.184 315.433,59.805 316.084,60.300 316.584 C 60.795 317.083,61.200 317.620,61.200 317.776 C 61.200 318.521,78.087 334.800,78.860 334.800 C 79.017 334.800,79.257 335.151,79.394 335.580 C 79.530 336.008,80.030 336.483,80.507 336.634 C 80.983 336.785,81.960 337.514,82.679 338.254 C 83.398 338.994,84.156 339.600,84.364 339.600 C 84.573 339.600,85.404 340.224,86.213 340.986 C 87.021 341.749,88.024 342.481,88.441 342.613 C 88.859 342.746,89.200 343.022,89.200 343.227 C 89.200 343.432,89.404 343.600,89.654 343.600 C 89.904 343.600,90.525 344.050,91.035 344.600 C 91.545 345.150,92.221 345.600,92.538 345.600 C 92.855 345.600,93.218 345.870,93.345 346.200 C 93.471 346.530,93.921 346.800,94.345 346.800 C 94.768 346.800,95.219 347.073,95.347 347.406 C 95.475 347.739,96.034 348.185,96.590 348.396 C 97.145 348.607,97.600 348.965,97.600 349.190 C 97.600 349.416,97.960 349.600,98.400 349.600 C 98.840 349.600,99.200 349.760,99.200 349.957 C 99.200 350.153,99.650 350.426,100.200 350.564 C 100.750 350.702,101.200 350.992,101.200 351.208 C 101.200 351.423,101.470 351.600,101.800 351.600 C 102.130 351.600,102.400 351.777,102.400 351.992 C 102.400 352.208,102.850 352.498,103.400 352.636 C 103.950 352.774,104.400 353.047,104.400 353.243 C 104.400 353.440,104.670 353.600,105.000 353.600 C 105.330 353.600,105.600 353.780,105.600 354.000 C 105.600 354.220,105.938 354.400,106.351 354.400 C 106.764 354.400,107.326 354.670,107.600 355.000 C 107.874 355.330,108.346 355.600,108.649 355.600 C 108.952 355.600,109.200 355.766,109.200 355.968 C 109.200 356.171,109.740 356.455,110.400 356.600 C 111.060 356.745,111.600 357.029,111.600 357.232 C 111.600 357.434,111.960 357.600,112.400 357.600 C 112.840 357.600,113.200 357.766,113.200 357.968 C 113.200 358.171,113.740 358.455,114.400 358.600 C 115.060 358.745,115.600 359.029,115.600 359.232 C 115.600 359.434,115.960 359.600,116.400 359.600 C 116.840 359.600,117.200 359.766,117.200 359.968 C 117.200 360.171,117.740 360.455,118.400 360.600 C 119.060 360.745,119.600 361.029,119.600 361.232 C 119.600 361.434,120.050 361.600,120.600 361.600 C 121.150 361.600,121.600 361.760,121.600 361.955 C 121.600 362.151,122.230 362.429,123.000 362.574 C 123.770 362.718,124.400 362.964,124.400 363.120 C 124.400 363.534,126.513 364.404,128.170 364.673 C 128.957 364.800,129.600 365.061,129.600 365.252 C 129.600 365.444,129.960 365.600,130.400 365.600 C 130.840 365.600,131.200 365.763,131.200 365.962 C 131.200 366.162,132.100 366.449,133.200 366.600 C 134.300 366.751,135.200 367.038,135.200 367.238 C 135.200 367.437,135.549 367.600,135.976 367.600 C 136.403 367.600,136.849 367.756,136.968 367.947 C 137.086 368.139,137.906 368.411,138.791 368.552 C 139.676 368.694,140.400 368.987,140.400 369.205 C 140.400 369.422,141.030 369.600,141.800 369.600 C 142.570 369.600,143.200 369.767,143.200 369.971 C 143.200 370.175,144.190 370.466,145.400 370.617 C 146.610 370.768,147.600 371.051,147.600 371.246 C 147.600 371.441,148.219 371.600,148.976 371.600 C 149.733 371.600,150.453 371.762,150.576 371.961 C 150.698 372.159,151.879 372.447,153.200 372.600 C 154.521 372.753,155.702 373.041,155.824 373.239 C 155.947 373.438,156.746 373.600,157.600 373.600 C 158.454 373.600,159.254 373.763,159.377 373.963 C 159.500 374.162,161.311 374.454,163.401 374.610 C 165.490 374.767,167.200 375.054,167.200 375.248 C 167.200 375.441,167.579 375.600,168.043 375.600 C 168.647 375.600,168.817 375.421,168.643 374.967 C 168.509 374.619,168.400 374.259,168.400 374.167 C 168.400 374.075,167.410 374.000,166.200 374.000 C 164.990 374.000,164.000 373.846,164.000 373.657 C 164.000 373.469,163.505 373.316,162.900 373.317 C 161.312 373.321,157.933 372.793,157.000 372.395 C 156.560 372.208,155.660 371.965,155.000 371.855 C 154.340 371.746,152.630 371.364,151.200 371.006 C 149.770 370.649,147.970 370.199,147.200 370.006 C 143.421 369.061,142.103 368.677,141.000 368.197 C 140.340 367.910,138.990 367.448,138.000 367.170 C 137.010 366.893,136.029 366.515,135.820 366.333 C 135.611 366.150,135.037 366.000,134.544 366.000 C 134.051 366.000,133.545 365.834,133.419 365.631 C 133.294 365.428,132.614 365.135,131.909 364.980 C 131.203 364.825,130.350 364.556,130.013 364.383 C 128.660 363.686,126.456 362.800,126.077 362.800 C 125.856 362.800,124.984 362.448,124.138 362.019 C 122.088 360.977,119.103 359.685,118.382 359.527 C 118.062 359.457,117.710 359.284,117.600 359.143 C 117.490 359.001,115.150 357.751,112.400 356.364 C 109.650 354.977,107.310 353.742,107.200 353.621 C 107.090 353.499,106.325 353.057,105.500 352.637 C 104.675 352.217,104.000 351.722,104.000 351.537 C 104.000 351.352,103.788 351.200,103.529 351.200 C 102.937 351.200,95.180 346.265,91.200 343.357 C 89.550 342.151,87.885 341.062,87.500 340.936 C 87.115 340.810,86.800 340.585,86.800 340.436 C 86.800 340.286,85.865 339.452,84.721 338.582 C 83.578 337.712,82.236 336.595,81.739 336.100 C 81.243 335.605,80.738 335.200,80.618 335.200 C 80.498 335.200,80.066 334.885,79.659 334.500 C 79.251 334.115,77.902 332.900,76.661 331.800 C 73.661 329.140,64.708 320.209,62.200 317.374 C 61.100 316.131,59.750 314.607,59.200 313.988 C 58.650 313.369,58.020 312.623,57.800 312.331 C 56.548 310.669,53.756 307.381,53.500 307.267 C 53.335 307.193,53.200 306.921,53.200 306.663 C 53.200 306.404,52.750 305.707,52.200 305.113 C 51.650 304.520,51.200 303.878,51.200 303.687 C 51.200 303.496,50.751 302.917,50.202 302.401 C 49.652 301.886,49.279 301.388,49.371 301.295 C 49.510 301.157,47.917 298.804,46.443 296.969 C 45.877 296.263,44.014 293.254,42.909 291.260 C 42.343 290.237,41.771 289.310,41.639 289.200 C 40.808 288.504,32.000 270.705,32.000 269.720 C 32.000 269.434,31.820 269.200,31.600 269.200 C 31.380 269.200,31.200 268.987,31.200 268.727 C 31.200 268.328,30.609 266.710,28.375 261.000 C 28.203 260.560,27.759 259.300,27.389 258.200 C 27.018 257.100,26.569 255.840,26.391 255.400 C 26.213 254.960,25.974 254.240,25.860 253.800 C 25.747 253.360,25.363 252.010,25.007 250.800 C 23.598 246.006,21.885 239.318,21.345 236.500 C 21.207 235.785,20.964 235.200,20.803 235.200 C 20.642 235.200,20.600 234.735,20.708 234.167 C 20.817 233.598,20.714 232.473,20.480 231.667 C 20.246 230.860,19.758 228.040,19.397 225.400 C 19.035 222.760,18.587 220.217,18.401 219.749 C 18.190 219.219,18.227 218.733,18.500 218.460 C 18.818 218.142,18.812 217.744,18.478 217.011 C 17.960 215.874,16.952 215.586,17.389 216.700 M368.804 218.300 C 368.798 219.345,368.750 220.598,368.697 221.084 C 368.643 221.570,368.780 222.020,369.000 222.084 C 369.235 222.152,369.440 221.001,369.497 219.300 C 369.554 217.616,369.431 216.400,369.204 216.400 C 368.990 216.400,368.810 217.255,368.804 218.300 M368.267 223.067 C 367.852 223.482,367.953 224.800,368.400 224.800 C 368.620 224.800,368.800 224.350,368.800 223.800 C 368.800 222.753,368.708 222.626,368.267 223.067 M367.802 225.994 C 367.663 226.430,367.540 227.513,367.528 228.399 C 367.516 229.286,367.347 230.109,367.153 230.229 C 366.959 230.349,366.800 231.052,366.800 231.791 C 366.800 232.531,366.508 234.275,366.151 235.668 C 365.793 237.060,365.501 238.608,365.501 239.107 C 365.500 239.606,365.343 240.112,365.150 240.231 C 364.957 240.350,364.800 241.056,364.800 241.800 C 364.800 242.544,364.637 243.254,364.437 243.377 C 364.238 243.500,363.951 244.500,363.800 245.600 C 363.649 246.700,363.362 247.700,363.163 247.823 C 362.963 247.946,362.800 248.489,362.800 249.029 C 362.800 249.569,362.644 250.323,362.453 250.705 C 362.263 251.087,361.342 253.740,360.408 256.600 C 359.473 259.460,358.549 261.971,358.354 262.180 C 358.159 262.389,358.000 262.812,358.000 263.120 C 358.000 263.427,357.712 264.336,357.359 265.140 C 357.007 265.943,356.575 266.960,356.400 267.400 C 356.225 267.840,355.793 268.857,355.441 269.660 C 355.088 270.464,354.800 271.319,354.800 271.560 C 354.800 271.802,354.620 272.000,354.400 272.000 C 354.180 272.000,354.000 272.264,354.000 272.586 C 354.000 273.310,352.711 276.151,352.300 276.333 C 352.135 276.407,352.000 276.635,352.000 276.842 C 352.000 277.397,349.450 282.578,349.100 282.733 C 348.935 282.807,348.800 283.023,348.800 283.215 C 348.800 283.407,347.900 285.127,346.800 287.039 C 345.700 288.951,344.800 290.669,344.800 290.857 C 344.800 291.046,344.665 291.202,344.500 291.205 C 344.335 291.207,343.856 291.927,343.436 292.805 C 343.015 293.682,342.520 294.400,342.336 294.400 C 342.151 294.400,342.000 294.559,342.000 294.754 C 342.000 295.207,338.729 300.156,338.313 300.333 C 338.141 300.407,338.000 300.679,338.000 300.937 C 338.000 301.196,337.550 301.893,337.000 302.487 C 336.450 303.080,336.000 303.665,336.000 303.788 C 336.000 303.911,335.235 304.959,334.300 306.117 C 333.365 307.275,332.060 308.913,331.400 309.756 C 328.939 312.902,327.621 314.451,324.500 317.867 C 323.565 318.890,322.800 319.969,322.800 320.264 C 322.800 320.559,322.572 320.800,322.293 320.800 C 321.598 320.800,313.504 328.971,313.853 329.320 C 314.007 329.474,313.842 329.600,313.485 329.600 C 312.920 329.600,311.395 330.843,307.720 334.300 C 307.194 334.795,306.632 335.200,306.470 335.200 C 306.309 335.200,305.917 335.560,305.600 336.000 C 305.283 336.440,304.838 336.801,304.612 336.802 C 304.385 336.803,303.480 337.465,302.601 338.272 C 300.822 339.906,295.877 343.620,294.531 344.334 C 294.053 344.587,293.423 345.033,293.131 345.323 C 292.328 346.123,282.951 352.000,282.479 352.000 C 282.252 352.000,282.007 352.135,281.933 352.300 C 281.815 352.566,279.939 353.638,276.200 355.578 C 275.540 355.920,274.940 356.335,274.867 356.500 C 274.793 356.665,274.556 356.800,274.340 356.800 C 274.002 356.800,264.301 361.331,262.305 362.421 C 261.923 362.629,261.411 362.800,261.166 362.800 C 260.752 362.800,258.597 363.657,257.187 364.383 C 256.850 364.556,255.997 364.825,255.291 364.980 C 254.586 365.135,253.906 365.428,253.781 365.631 C 253.655 365.834,253.124 366.000,252.600 366.000 C 252.076 366.000,251.546 366.164,251.422 366.365 C 251.297 366.566,250.478 366.852,249.600 367.000 C 248.722 367.148,247.903 367.434,247.778 367.635 C 247.654 367.836,247.203 368.000,246.776 368.000 C 246.349 368.000,246.000 368.188,246.000 368.418 C 246.000 368.647,245.775 368.791,245.500 368.737 C 244.803 368.601,241.885 369.205,241.400 369.586 C 241.180 369.758,240.460 369.997,239.800 370.115 C 237.116 370.598,233.200 371.683,233.200 371.943 C 233.200 372.096,232.480 372.152,231.600 372.069 C 230.720 371.985,230.000 372.087,230.000 372.297 C 230.000 372.507,229.481 372.693,228.847 372.711 C 228.213 372.729,226.972 372.938,226.090 373.176 C 225.208 373.413,224.215 373.504,223.883 373.377 C 223.552 373.249,223.162 373.338,223.017 373.573 C 222.872 373.808,221.863 374.000,220.776 374.000 C 219.637 374.000,218.800 374.182,218.800 374.429 C 218.800 374.664,218.395 374.824,217.900 374.784 C 216.470 374.668,216.000 374.771,216.000 375.200 C 216.000 375.696,219.869 375.735,220.174 375.243 C 220.295 375.046,222.016 374.757,223.997 374.600 C 225.979 374.443,227.600 374.154,227.600 373.958 C 227.600 373.761,228.320 373.600,229.200 373.600 C 230.080 373.600,230.800 373.446,230.800 373.257 C 230.800 373.069,232.105 372.794,233.700 372.646 C 235.295 372.499,236.660 372.203,236.733 371.989 C 236.807 371.775,237.482 371.600,238.233 371.600 C 238.985 371.600,239.600 371.433,239.600 371.229 C 239.600 371.025,240.592 370.734,241.805 370.582 C 243.018 370.430,244.109 370.148,244.229 369.953 C 244.349 369.759,244.887 369.600,245.424 369.600 C 245.961 369.600,246.400 369.437,246.400 369.238 C 246.400 369.038,247.300 368.751,248.400 368.600 C 249.500 368.449,250.400 368.162,250.400 367.962 C 250.400 367.763,250.850 367.600,251.400 367.600 C 251.950 367.600,252.400 367.443,252.400 367.251 C 252.400 367.059,253.120 366.787,254.000 366.646 C 254.880 366.506,255.600 366.213,255.600 365.995 C 255.600 365.778,256.050 365.600,256.600 365.600 C 257.150 365.600,257.600 365.443,257.600 365.251 C 257.600 365.059,258.320 364.787,259.200 364.646 C 260.080 364.506,260.800 364.213,260.800 363.995 C 260.800 363.778,261.250 363.600,261.800 363.600 C 262.350 363.600,262.800 363.440,262.800 363.245 C 262.800 363.049,263.430 362.771,264.200 362.626 C 264.970 362.482,265.600 362.192,265.600 361.982 C 265.600 361.772,265.870 361.600,266.200 361.600 C 266.530 361.600,266.800 361.420,266.800 361.200 C 266.800 360.980,267.178 360.800,267.640 360.800 C 268.482 360.800,271.226 359.674,271.600 359.175 C 271.710 359.028,272.250 358.768,272.800 358.597 C 273.350 358.427,274.427 357.862,275.193 357.344 C 275.959 356.825,276.814 356.400,277.093 356.400 C 277.372 356.400,277.600 356.220,277.600 356.000 C 277.600 355.780,277.870 355.600,278.200 355.600 C 278.530 355.600,278.800 355.443,278.800 355.250 C 278.800 355.058,279.364 354.787,280.054 354.649 C 280.743 354.511,281.598 354.065,281.954 353.656 C 282.309 353.248,283.050 352.774,283.600 352.603 C 284.150 352.432,284.690 352.181,284.800 352.046 C 285.092 351.687,286.461 350.858,287.510 350.405 C 288.011 350.189,288.525 349.739,288.653 349.406 C 288.781 349.073,289.232 348.800,289.655 348.800 C 290.079 348.800,290.529 348.530,290.655 348.200 C 290.782 347.870,291.207 347.600,291.600 347.600 C 291.993 347.600,292.418 347.330,292.545 347.000 C 292.671 346.670,293.128 346.400,293.560 346.400 C 293.995 346.400,294.460 346.042,294.600 345.600 C 294.740 345.160,295.177 344.800,295.571 344.800 C 295.965 344.800,296.626 344.350,297.039 343.800 C 297.452 343.250,298.009 342.800,298.277 342.800 C 298.545 342.800,299.192 342.372,299.716 341.848 C 300.239 341.324,301.048 340.775,301.513 340.627 C 301.979 340.480,302.470 340.008,302.606 339.580 C 302.743 339.151,303.137 338.800,303.484 338.800 C 303.830 338.800,304.616 338.305,305.231 337.700 C 306.641 336.311,307.506 335.600,307.783 335.600 C 308.128 335.600,309.600 334.034,309.600 333.668 C 309.600 333.485,310.050 333.094,310.600 332.800 C 311.150 332.506,311.600 332.115,311.600 331.932 C 311.600 331.750,311.788 331.600,312.017 331.600 C 312.442 331.600,313.258 331.010,314.119 330.081 C 314.384 329.795,314.834 329.345,315.119 329.081 C 315.405 328.816,315.855 328.366,316.119 328.081 C 316.384 327.795,316.834 327.345,317.119 327.081 C 317.405 326.816,317.855 326.366,318.119 326.081 C 318.384 325.795,318.834 325.345,319.119 325.081 C 319.405 324.816,319.855 324.366,320.119 324.081 C 320.384 323.795,320.834 323.345,321.119 323.081 C 321.405 322.816,321.855 322.365,322.119 322.078 C 322.384 321.791,323.095 321.020,323.700 320.364 C 324.305 319.709,324.800 319.088,324.800 318.984 C 324.800 318.880,325.880 317.688,327.200 316.335 C 328.520 314.982,329.600 313.720,329.600 313.530 C 329.600 313.341,330.206 312.598,330.946 311.879 C 331.686 311.160,332.415 310.183,332.566 309.707 C 332.717 309.230,333.183 308.733,333.600 308.600 C 334.017 308.467,334.480 307.979,334.627 307.513 C 334.775 307.048,335.324 306.239,335.848 305.716 C 336.372 305.192,336.800 304.568,336.800 304.329 C 336.800 304.090,337.134 303.603,337.543 303.247 C 337.951 302.891,338.413 302.195,338.570 301.700 C 338.726 301.205,339.022 300.800,339.227 300.800 C 339.432 300.800,339.600 300.530,339.600 300.200 C 339.600 299.870,339.768 299.600,339.973 299.600 C 340.178 299.600,340.474 299.195,340.630 298.700 C 340.787 298.205,341.223 297.530,341.600 297.200 C 341.977 296.870,342.413 296.195,342.570 295.700 C 342.726 295.205,343.022 294.800,343.227 294.800 C 343.432 294.800,343.600 294.530,343.600 294.200 C 343.600 293.870,343.777 293.600,343.992 293.600 C 344.208 293.600,344.498 293.150,344.636 292.600 C 344.774 292.050,345.047 291.600,345.243 291.600 C 345.440 291.600,345.600 291.330,345.600 291.000 C 345.600 290.670,345.777 290.400,345.992 290.400 C 346.208 290.400,346.498 289.950,346.636 289.400 C 346.774 288.850,347.047 288.400,347.243 288.400 C 347.440 288.400,347.600 288.040,347.600 287.600 C 347.600 287.160,347.780 286.800,348.000 286.800 C 348.220 286.800,348.400 286.543,348.400 286.229 C 348.400 285.914,348.625 285.416,348.900 285.121 C 349.701 284.263,350.800 282.132,350.800 281.438 C 350.800 281.087,350.980 280.800,351.200 280.800 C 351.420 280.800,351.600 280.530,351.600 280.200 C 351.600 279.870,351.772 279.600,351.982 279.600 C 352.192 279.600,352.482 278.970,352.626 278.200 C 352.771 277.430,353.049 276.800,353.245 276.800 C 353.440 276.800,353.600 276.530,353.600 276.200 C 353.600 275.870,353.780 275.600,354.000 275.600 C 354.220 275.600,354.401 275.285,354.402 274.900 C 354.404 274.515,354.674 273.684,355.002 273.054 C 355.331 272.424,355.600 271.659,355.600 271.354 C 355.600 271.049,355.760 270.800,355.957 270.800 C 356.153 270.800,356.433 270.305,356.579 269.700 C 356.945 268.185,357.742 266.400,358.052 266.400 C 358.194 266.400,358.431 265.590,358.579 264.600 C 358.728 263.610,359.018 262.800,359.225 262.800 C 359.431 262.800,359.600 262.350,359.600 261.800 C 359.600 261.250,359.763 260.800,359.962 260.800 C 360.162 260.800,360.449 259.900,360.600 258.800 C 360.751 257.700,361.038 256.800,361.238 256.800 C 361.437 256.800,361.600 256.350,361.600 255.800 C 361.600 255.250,361.774 254.800,361.986 254.800 C 362.199 254.800,362.492 253.900,362.638 252.800 C 362.784 251.700,363.060 250.800,363.252 250.800 C 363.443 250.800,363.600 250.350,363.600 249.800 C 363.600 249.250,363.766 248.800,363.968 248.800 C 364.171 248.800,364.462 247.630,364.615 246.200 C 364.768 244.770,365.052 243.600,365.247 243.600 C 365.441 243.600,365.600 242.970,365.600 242.200 C 365.600 241.430,365.765 240.800,365.966 240.800 C 366.167 240.800,366.458 239.450,366.613 237.800 C 366.767 236.150,367.053 234.800,367.247 234.800 C 367.441 234.800,367.600 233.900,367.600 232.800 C 367.600 231.616,367.779 230.800,368.039 230.800 C 368.317 230.800,368.427 230.068,368.339 228.800 C 368.262 227.700,368.335 226.800,368.500 226.800 C 368.665 226.800,368.800 226.440,368.800 226.000 C 368.800 224.968,368.129 224.964,367.802 225.994 M169.700 374.692 C 168.828 374.996,169.160 375.600,170.200 375.600 C 170.750 375.600,171.200 375.439,171.200 375.243 C 171.200 374.782,170.343 374.468,169.700 374.692 M172.075 375.500 C 172.185 376.072,172.711 376.220,174.942 376.312 C 177.023 376.397,177.632 376.301,177.497 375.912 C 177.388 375.599,176.674 375.413,175.659 375.435 C 174.747 375.454,174.000 375.319,174.000 375.135 C 174.000 374.951,173.537 374.800,172.971 374.800 C 172.206 374.800,171.976 374.980,172.075 375.500 M212.990 375.216 C 212.848 375.445,212.375 375.519,211.937 375.380 C 210.960 375.070,209.200 375.473,209.200 376.008 C 209.200 376.226,210.421 376.400,211.957 376.400 C 214.564 376.400,215.200 376.119,215.200 374.967 C 215.200 374.604,213.231 374.826,212.990 375.216 M179.030 375.687 C 177.965 376.283,178.728 376.800,180.673 376.800 C 182.185 376.800,182.419 376.705,182.037 376.244 C 181.437 375.522,179.851 375.228,179.030 375.687 M206.100 375.649 C 204.222 376.189,204.503 376.800,206.629 376.800 C 208.122 376.800,208.435 376.677,208.329 376.133 C 208.165 375.284,207.714 375.186,206.100 375.649 M183.200 376.400 C 183.200 376.639,184.741 376.800,187.024 376.800 C 189.471 376.800,190.758 376.656,190.600 376.400 C 190.464 376.180,188.743 376.000,186.776 376.000 C 184.659 376.000,183.200 376.163,183.200 376.400 M196.400 376.400 C 195.991 376.664,197.105 376.790,199.900 376.794 C 202.371 376.798,204.000 376.641,204.000 376.400 C 204.000 375.881,197.204 375.881,196.400 376.400 " stroke="none" fill="#1e7ca4" fill-rule="evenodd"></path></g></svg>