<svg id="svg" version="1.1" xmlns="http://www.w3.org/2000/svg" xmlns:xlink="http://www.w3.org/1999/xlink" width="400" height="400" viewBox="0, 0, 400,400"><g id="svgg"><path id="path0" d="M194.000 50.019 C 188.802 50.314,180.802 51.063,179.380 51.388 C 178.929 51.491,176.859 51.850,174.780 52.186 C 168.954 53.129,163.222 54.368,159.000 55.600 C 156.850 56.226,149.532 58.681,148.127 59.246 C 147.507 59.496,146.640 59.840,146.200 60.011 C 130.590 66.083,115.094 77.623,102.400 92.629 C 96.189 99.971,88.742 112.418,84.228 123.000 C 83.853 123.880,83.391 124.960,83.202 125.400 C 81.948 128.314,79.846 134.247,78.809 137.800 C 78.552 138.680,78.071 140.300,77.740 141.400 C 75.095 150.192,72.510 164.927,71.144 179.000 C 70.413 186.530,70.399 215.236,71.124 221.600 C 72.258 231.566,73.726 241.196,74.811 245.800 C 75.019 246.680,75.561 249.020,76.017 251.000 C 76.473 252.980,77.011 255.140,77.212 255.800 C 77.414 256.460,77.959 258.350,78.424 260.000 C 79.257 262.953,80.181 265.829,80.800 267.400 C 80.973 267.840,81.427 269.100,81.808 270.200 C 82.190 271.300,82.737 272.740,83.026 273.400 C 83.314 274.060,84.026 275.770,84.608 277.200 C 93.168 298.243,109.135 318.060,126.945 329.744 C 140.495 338.633,157.516 344.836,176.600 347.840 C 203.261 352.037,234.130 349.294,253.400 341.017 C 254.060 340.733,255.500 340.170,256.600 339.764 C 271.089 334.424,286.791 322.868,298.149 309.184 C 303.753 302.433,310.564 289.332,313.008 280.600 C 315.856 270.429,316.186 268.015,316.181 257.400 C 316.176 248.008,315.992 246.341,314.126 238.800 C 308.788 217.224,293.705 199.619,271.556 189.112 C 267.949 187.401,267.987 187.469,267.366 181.600 C 266.628 174.633,265.977 171.311,263.875 163.800 C 260.705 152.468,252.718 140.286,243.833 133.230 C 223.807 117.326,189.667 115.471,167.078 129.059 C 157.321 134.929,146.308 146.451,148.433 148.566 C 149.714 149.840,167.488 161.200,168.202 161.200 C 168.868 161.200,170.166 160.190,172.479 157.868 C 178.243 152.086,182.660 149.627,191.400 147.334 C 195.426 146.279,209.705 146.268,213.800 147.318 C 227.160 150.742,235.606 158.967,239.173 172.026 C 240.698 177.606,240.082 179.041,236.324 178.672 C 215.765 176.649,196.013 177.538,183.600 181.043 C 153.812 189.454,137.971 216.601,146.862 244.000 C 149.853 253.214,154.582 259.815,163.643 267.418 C 164.680 268.289,170.726 271.935,172.400 272.700 C 181.884 277.032,187.839 278.201,200.400 278.198 C 209.060 278.195,214.593 277.657,219.000 276.390 C 236.337 271.404,248.210 262.753,255.052 250.123 C 255.506 249.285,256.435 247.580,257.116 246.333 C 258.483 243.830,260.937 238.129,262.510 233.800 C 263.769 230.334,265.570 224.053,266.285 220.639 C 266.970 217.366,268.915 216.962,272.000 219.450 C 296.716 239.387,297.143 273.006,273.002 298.341 C 269.139 302.396,260.038 309.600,258.780 309.600 C 258.571 309.600,258.400 309.755,258.400 309.945 C 258.400 310.674,244.455 317.147,241.000 318.022 C 240.340 318.189,238.360 318.710,236.600 319.181 C 211.804 325.804,181.069 324.691,159.400 316.385 C 153.551 314.143,145.208 310.100,142.608 308.249 C 141.953 307.782,141.103 307.220,140.720 307.000 C 123.583 297.159,108.269 274.176,101.673 248.400 C 99.098 238.339,98.123 232.799,96.710 220.200 C 96.106 214.822,96.121 188.263,96.731 182.400 C 99.099 159.619,103.342 142.174,109.813 128.600 C 119.606 108.060,136.595 92.089,157.027 84.215 C 158.552 83.628,160.430 82.892,161.200 82.580 C 183.192 73.683,221.811 73.969,245.600 83.206 C 246.810 83.676,248.250 84.203,248.800 84.377 C 249.350 84.552,251.690 85.614,254.000 86.738 C 257.942 88.655,258.961 89.216,263.865 92.162 C 281.437 102.720,294.055 120.231,302.490 145.766 C 304.337 151.359,303.044 151.218,317.400 147.397 C 319.600 146.811,322.659 146.008,324.197 145.612 C 328.821 144.422,329.045 141.592,325.225 132.600 C 325.038 132.160,324.571 130.900,324.188 129.800 C 323.806 128.700,323.188 127.080,322.817 126.200 C 322.445 125.320,321.805 123.790,321.394 122.800 C 301.590 75.101,251.938 46.734,194.000 50.019 M223.600 204.010 C 233.316 204.768,239.360 205.738,240.500 206.721 C 242.049 208.055,240.968 217.470,238.380 225.195 C 231.592 245.457,213.913 256.280,194.600 252.000 C 190.212 251.027,188.968 250.686,188.620 250.358 C 188.411 250.161,187.961 249.994,187.620 249.986 C 187.279 249.979,186.280 249.625,185.400 249.200 C 184.520 248.775,183.675 248.421,183.521 248.414 C 182.741 248.376,178.193 245.352,176.263 243.588 C 162.976 231.444,170.909 211.409,191.200 205.863 C 197.854 204.044,212.962 203.180,223.600 204.010 " stroke="none" fill="#fafafa" fill-rule="evenodd"></path><path id="path1" d="M79.400 0.448 C 77.640 0.637,75.914 0.956,75.564 1.159 C 75.215 1.361,73.907 1.654,72.659 1.810 C 71.411 1.966,70.302 2.236,70.194 2.409 C 70.087 2.583,69.099 2.849,68.000 3.000 C 66.900 3.151,66.000 3.418,66.000 3.592 C 66.000 3.766,65.190 4.031,64.200 4.179 C 63.210 4.328,62.400 4.616,62.400 4.820 C 62.400 5.024,61.680 5.306,60.800 5.446 C 59.920 5.587,59.200 5.839,59.200 6.007 C 59.200 6.174,58.570 6.429,57.800 6.574 C 57.030 6.718,56.400 7.008,56.400 7.218 C 56.400 7.428,56.202 7.600,55.960 7.600 C 55.719 7.600,54.954 7.857,54.260 8.171 C 53.567 8.485,52.113 9.134,51.029 9.613 C 49.945 10.093,48.807 10.736,48.501 11.042 C 48.194 11.349,47.686 11.600,47.371 11.600 C 47.057 11.600,46.800 11.766,46.800 11.968 C 46.800 12.171,46.272 12.452,45.628 12.594 C 44.983 12.736,44.241 13.110,43.979 13.426 C 43.717 13.742,43.248 14.000,42.938 14.000 C 42.629 14.000,42.271 14.270,42.145 14.600 C 42.018 14.930,41.746 15.200,41.541 15.200 C 41.099 15.200,38.659 16.867,38.467 17.300 C 38.393 17.465,38.087 17.600,37.787 17.600 C 37.486 17.600,37.096 17.834,36.920 18.120 C 36.744 18.406,35.970 19.078,35.200 19.614 C 34.430 20.150,33.419 20.995,32.954 21.494 C 32.489 21.992,31.972 22.400,31.806 22.400 C 31.092 22.400,20.056 34.104,19.035 35.943 C 18.835 36.304,18.430 36.744,18.135 36.920 C 17.841 37.096,17.600 37.486,17.600 37.787 C 17.600 38.087,17.463 38.393,17.295 38.467 C 16.955 38.615,14.315 42.263,13.869 43.200 C 13.712 43.530,13.142 44.520,12.602 45.400 C 12.061 46.280,11.504 47.315,11.363 47.700 C 11.222 48.085,10.962 48.400,10.785 48.400 C 10.608 48.400,10.345 48.940,10.200 49.600 C 10.055 50.260,9.785 50.800,9.600 50.800 C 9.415 50.800,9.145 51.340,9.000 52.000 C 8.855 52.660,8.573 53.200,8.373 53.200 C 8.173 53.200,7.894 53.920,7.754 54.800 C 7.613 55.680,7.341 56.400,7.149 56.400 C 6.957 56.400,6.794 56.625,6.786 56.900 C 6.779 57.175,6.425 58.120,6.000 59.000 C 5.575 59.880,5.221 61.005,5.214 61.500 C 5.206 61.995,5.036 62.400,4.835 62.400 C 4.634 62.400,4.349 63.119,4.200 63.998 C 4.052 64.877,3.771 65.694,3.577 65.814 C 3.382 65.935,3.105 66.925,2.960 68.016 C 2.815 69.107,2.561 70.000,2.395 70.000 C 2.228 70.000,1.964 71.035,1.808 72.300 C 1.651 73.565,1.385 74.780,1.217 75.000 C 0.093 76.468,0.000 85.984,0.000 200.046 C 0.000 313.737,0.090 323.136,1.199 324.600 C 1.365 324.820,1.626 326.032,1.779 327.294 C 1.931 328.555,2.207 329.680,2.391 329.794 C 2.575 329.908,2.849 330.901,3.000 332.000 C 3.151 333.100,3.418 334.000,3.592 334.000 C 3.766 334.000,4.031 334.810,4.179 335.800 C 4.328 336.790,4.595 337.600,4.773 337.600 C 4.952 337.600,5.213 338.320,5.354 339.200 C 5.494 340.080,5.767 340.800,5.960 340.800 C 6.153 340.800,6.429 341.430,6.574 342.200 C 6.718 342.970,6.992 343.600,7.183 343.600 C 7.374 343.600,7.651 344.320,7.800 345.200 C 7.949 346.080,8.220 346.800,8.403 346.800 C 8.587 346.800,8.855 347.340,9.000 348.000 C 9.145 348.660,9.410 349.200,9.588 349.200 C 9.767 349.200,10.037 349.693,10.188 350.296 C 10.340 350.899,10.584 351.484,10.732 351.596 C 11.086 351.865,11.890 353.156,12.480 354.400 C 13.317 356.169,18.088 363.200,18.450 363.200 C 18.642 363.200,18.800 363.443,18.800 363.740 C 18.800 365.052,33.027 379.347,35.943 380.965 C 36.304 381.165,36.744 381.570,36.920 381.865 C 37.096 382.159,37.486 382.400,37.787 382.400 C 38.087 382.400,38.393 382.535,38.467 382.700 C 38.669 383.155,41.110 384.800,41.584 384.800 C 41.813 384.800,42.001 384.935,42.001 385.100 C 42.002 385.265,43.037 385.940,44.301 386.600 C 45.566 387.260,46.692 387.921,46.804 388.068 C 46.916 388.216,47.501 388.460,48.104 388.612 C 48.707 388.763,49.200 389.033,49.200 389.212 C 49.200 389.390,49.740 389.655,50.400 389.800 C 51.060 389.945,51.600 390.215,51.600 390.400 C 51.600 390.585,52.140 390.855,52.800 391.000 C 53.460 391.145,54.000 391.429,54.000 391.632 C 54.000 391.834,54.190 392.000,54.422 392.000 C 54.654 392.000,55.599 392.340,56.522 392.756 C 57.445 393.172,59.190 393.847,60.400 394.256 C 61.610 394.665,62.690 395.113,62.800 395.251 C 62.910 395.389,63.765 395.630,64.700 395.786 C 65.635 395.942,66.400 396.210,66.400 396.381 C 66.400 396.552,67.237 396.806,68.260 396.946 C 69.282 397.086,70.336 397.381,70.601 397.600 C 70.865 397.820,72.188 398.116,73.541 398.257 C 74.893 398.398,76.000 398.643,76.000 398.801 C 76.000 400.626,322.783 400.647,324.000 398.821 C 324.110 398.656,325.268 398.398,326.574 398.248 C 327.879 398.098,329.139 397.818,329.374 397.625 C 329.608 397.433,330.655 397.148,331.700 396.992 C 332.745 396.836,333.600 396.570,333.600 396.400 C 333.600 396.230,334.410 395.969,335.400 395.821 C 336.390 395.672,337.200 395.402,337.200 395.220 C 337.200 395.038,337.822 394.772,338.583 394.630 C 339.344 394.487,340.469 394.108,341.083 393.788 C 341.697 393.467,342.515 393.204,342.900 393.202 C 343.285 393.201,343.600 393.034,343.600 392.832 C 343.600 392.629,344.140 392.345,344.800 392.200 C 345.460 392.055,346.000 391.785,346.000 391.600 C 346.000 391.415,346.540 391.145,347.200 391.000 C 347.860 390.855,348.400 390.585,348.400 390.400 C 348.400 390.215,348.940 389.945,349.600 389.800 C 350.260 389.655,350.800 389.390,350.800 389.212 C 350.800 389.033,351.293 388.763,351.896 388.612 C 352.499 388.460,353.084 388.216,353.196 388.068 C 353.308 387.921,354.434 387.260,355.699 386.600 C 356.963 385.940,357.998 385.265,357.999 385.100 C 357.999 384.935,358.197 384.800,358.437 384.800 C 358.677 384.800,359.286 384.485,359.791 384.100 C 360.295 383.715,361.110 383.130,361.603 382.800 C 362.095 382.470,362.701 382.016,362.949 381.791 C 363.197 381.567,363.940 380.980,364.600 380.488 C 369.472 376.853,380.731 365.454,381.129 363.752 C 381.200 363.448,381.403 363.200,381.580 363.200 C 381.843 363.200,383.912 360.201,387.515 354.600 C 387.798 354.160,388.242 353.305,388.502 352.700 C 388.762 352.095,389.102 351.600,389.256 351.600 C 389.410 351.600,389.655 351.060,389.800 350.400 C 389.945 349.740,390.215 349.200,390.400 349.200 C 390.585 349.200,390.855 348.660,391.000 348.000 C 391.145 347.340,391.429 346.800,391.632 346.800 C 391.834 346.800,392.001 346.575,392.002 346.300 C 392.004 346.025,392.257 345.317,392.565 344.727 C 392.873 344.137,393.246 343.102,393.394 342.427 C 393.542 341.752,393.809 341.200,393.987 341.200 C 394.165 341.200,394.428 340.578,394.570 339.817 C 394.713 339.056,395.092 337.931,395.412 337.317 C 395.733 336.703,395.996 335.896,395.998 335.524 C 395.999 335.152,396.163 334.746,396.363 334.623 C 396.562 334.500,396.849 333.500,397.000 332.400 C 397.151 331.300,397.417 330.313,397.591 330.206 C 397.764 330.098,398.036 328.973,398.194 327.705 C 398.352 326.437,398.625 325.310,398.801 325.200 C 400.655 324.041,400.642 77.689,398.788 75.396 C 398.608 75.174,398.334 73.869,398.179 72.496 C 398.024 71.123,397.757 70.000,397.586 70.000 C 397.415 70.000,397.151 69.100,397.000 68.000 C 396.849 66.900,396.582 66.000,396.408 66.000 C 396.234 66.000,395.969 65.190,395.821 64.200 C 395.672 63.210,395.405 62.400,395.227 62.400 C 395.048 62.400,394.787 61.680,394.646 60.800 C 394.506 59.920,394.233 59.200,394.040 59.200 C 393.847 59.200,393.571 58.570,393.426 57.800 C 393.282 57.030,393.006 56.400,392.814 56.400 C 392.621 56.400,392.342 55.848,392.194 55.173 C 392.046 54.498,391.673 53.463,391.365 52.873 C 391.057 52.283,390.804 51.590,390.802 51.333 C 390.801 51.077,390.665 50.807,390.500 50.733 C 390.335 50.660,389.754 49.745,389.208 48.700 C 388.663 47.655,388.092 46.800,387.940 46.800 C 387.788 46.800,387.548 46.272,387.406 45.628 C 387.264 44.983,386.890 44.241,386.574 43.979 C 386.258 43.717,386.000 43.248,386.000 42.938 C 386.000 42.629,385.730 42.271,385.400 42.145 C 385.070 42.018,384.800 41.746,384.800 41.541 C 384.800 41.099,383.133 38.659,382.700 38.467 C 382.535 38.393,382.400 38.087,382.400 37.787 C 382.400 37.486,382.166 37.096,381.880 36.920 C 381.594 36.744,380.922 35.970,380.386 35.200 C 379.850 34.430,379.005 33.419,378.506 32.954 C 378.008 32.489,377.600 31.972,377.600 31.806 C 377.600 31.092,365.896 20.056,364.057 19.035 C 363.696 18.835,363.256 18.430,363.080 18.135 C 362.904 17.841,362.514 17.600,362.213 17.600 C 361.913 17.600,361.607 17.450,361.533 17.268 C 361.352 16.815,355.402 12.800,354.913 12.800 C 354.698 12.800,354.107 12.440,353.600 12.000 C 353.093 11.560,352.435 11.200,352.139 11.200 C 351.842 11.200,351.600 11.034,351.600 10.832 C 351.600 10.629,351.060 10.345,350.400 10.200 C 349.740 10.055,349.200 9.785,349.200 9.600 C 349.200 9.415,348.660 9.145,348.000 9.000 C 347.340 8.855,346.800 8.573,346.800 8.373 C 346.800 8.173,346.080 7.894,345.200 7.754 C 344.320 7.613,343.600 7.355,343.600 7.181 C 343.600 7.006,343.060 6.745,342.400 6.600 C 341.740 6.455,341.200 6.182,341.200 5.993 C 341.200 5.804,340.390 5.528,339.400 5.379 C 338.410 5.231,337.600 4.965,337.600 4.790 C 337.600 4.614,336.881 4.349,336.002 4.200 C 335.123 4.052,334.306 3.771,334.186 3.577 C 334.065 3.382,333.075 3.105,331.984 2.960 C 330.893 2.815,330.000 2.561,330.000 2.395 C 330.000 2.228,328.965 1.964,327.700 1.808 C 326.435 1.651,325.220 1.385,325.000 1.217 C 323.526 0.088,314.133 0.001,199.486 0.052 C 135.199 0.081,81.160 0.259,79.400 0.448 M213.555 49.605 C 215.450 49.828,218.800 50.185,221.000 50.398 C 231.766 51.441,252.204 56.349,254.580 58.462 C 254.789 58.648,255.204 58.800,255.502 58.800 C 256.033 58.800,257.182 59.282,262.400 61.698 C 271.271 65.805,276.014 68.604,283.525 74.165 C 294.819 82.526,306.316 94.818,312.553 105.200 C 313.148 106.190,313.805 107.270,314.014 107.600 C 317.644 113.333,325.200 129.334,325.200 131.286 C 325.200 131.502,325.454 132.246,325.765 132.940 C 326.076 133.633,326.717 135.550,327.190 137.200 C 327.663 138.850,328.218 140.613,328.425 141.119 C 329.501 143.755,328.464 145.002,324.295 146.085 C 316.127 148.207,311.991 149.300,310.000 149.860 C 305.394 151.156,302.800 150.848,302.800 149.005 C 302.800 148.388,301.247 143.176,300.827 142.387 C 300.648 142.050,300.368 141.150,300.205 140.387 C 300.041 139.624,299.779 138.820,299.623 138.600 C 299.466 138.380,299.013 137.300,298.615 136.200 C 292.722 119.893,280.476 104.078,266.137 94.256 C 261.956 91.392,250.551 85.204,249.442 85.198 C 249.199 85.196,248.532 84.951,247.959 84.652 C 243.657 82.407,230.978 79.013,222.200 77.757 C 212.352 76.348,192.999 76.026,187.914 77.187 C 186.971 77.402,184.670 77.759,182.800 77.979 C 180.930 78.200,178.140 78.647,176.600 78.973 C 175.060 79.299,172.720 79.776,171.400 80.032 C 170.080 80.287,168.820 80.634,168.600 80.803 C 168.380 80.972,167.436 81.236,166.502 81.390 C 165.568 81.544,164.712 81.818,164.600 82.000 C 164.488 82.182,163.678 82.452,162.800 82.600 C 161.922 82.748,161.103 83.034,160.978 83.235 C 160.854 83.436,160.448 83.606,160.076 83.614 C 159.704 83.621,158.680 83.975,157.800 84.400 C 156.920 84.825,156.039 85.179,155.843 85.186 C 155.073 85.216,147.710 88.958,143.861 91.277 C 131.610 98.656,122.211 108.172,114.108 121.400 C 111.790 125.185,105.600 139.134,105.600 140.574 C 105.600 140.892,105.444 141.249,105.253 141.368 C 105.061 141.486,104.788 142.314,104.645 143.209 C 104.502 144.103,104.221 145.142,104.020 145.517 C 103.669 146.172,103.484 146.833,102.148 152.200 C 100.678 158.106,99.428 165.013,97.984 175.200 C 96.154 188.108,95.999 209.302,97.628 223.800 C 98.468 231.275,100.354 242.080,101.572 246.400 C 103.210 252.214,103.818 254.239,104.870 257.400 C 105.529 259.380,106.322 261.567,106.634 262.260 C 106.945 262.954,107.200 263.704,107.200 263.928 C 107.200 264.152,107.464 264.845,107.787 265.468 C 108.109 266.090,109.553 269.030,110.996 272.000 C 112.438 274.970,113.839 277.752,114.109 278.182 C 119.448 286.686,122.134 290.153,127.786 295.839 C 131.129 299.202,139.812 306.400,140.526 306.400 C 140.638 306.400,141.691 307.039,142.865 307.820 C 145.338 309.465,155.676 314.619,157.304 315.018 C 157.911 315.167,158.506 315.449,158.627 315.644 C 158.748 315.840,159.124 316.000,159.463 316.000 C 159.802 316.000,160.646 316.254,161.340 316.565 C 162.441 317.059,164.960 317.831,170.000 319.219 C 174.392 320.429,179.739 321.425,185.000 322.012 C 186.980 322.233,190.310 322.613,192.400 322.856 C 201.160 323.874,219.353 322.483,231.800 319.844 C 237.406 318.656,238.611 318.361,239.213 318.035 C 239.550 317.852,240.434 317.568,241.176 317.405 C 252.294 314.963,269.220 303.217,277.736 292.033 C 282.087 286.318,287.191 277.004,287.198 274.767 C 287.199 274.418,287.335 273.998,287.500 273.834 C 287.886 273.447,288.691 270.297,289.502 266.000 C 290.602 260.171,290.214 248.174,288.822 245.000 C 288.629 244.560,288.172 243.210,287.807 242.000 C 285.660 234.893,279.604 226.445,272.279 220.336 C 268.584 217.254,267.550 217.619,266.374 222.424 C 265.410 226.363,264.085 231.057,263.614 232.200 C 263.433 232.640,262.973 233.900,262.592 235.000 C 254.841 257.368,240.158 271.670,219.800 276.681 C 207.213 279.779,182.774 279.307,179.366 275.900 C 179.202 275.735,178.813 275.600,178.503 275.600 C 177.518 275.600,171.113 272.706,168.000 270.854 C 158.681 265.311,150.570 255.754,147.246 246.400 C 146.738 244.970,146.166 243.440,145.975 243.000 C 145.630 242.204,145.066 239.619,144.405 235.800 C 143.463 230.359,144.352 218.745,145.998 215.000 C 146.192 214.560,146.465 213.750,146.607 213.200 C 146.748 212.650,147.133 211.570,147.461 210.800 C 152.953 197.937,162.335 189.025,177.000 182.741 C 187.470 178.255,214.327 175.620,229.671 177.573 C 240.662 178.972,241.017 178.644,237.970 169.913 C 234.619 160.314,229.070 153.790,221.400 150.432 C 220.300 149.950,219.040 149.390,218.600 149.187 C 212.055 146.170,193.803 146.150,186.600 149.152 C 184.073 150.205,179.808 152.257,179.433 152.600 C 179.192 152.820,178.278 153.495,177.403 154.099 C 176.528 154.704,174.242 156.743,172.323 158.632 C 168.060 162.827,169.473 163.146,157.679 155.325 C 148.243 149.068,147.267 148.179,147.745 146.277 C 148.395 143.688,160.849 132.234,167.000 128.567 C 195.225 111.744,238.238 119.226,254.595 143.804 C 255.472 145.122,256.306 146.290,256.449 146.400 C 256.592 146.510,257.386 147.860,258.215 149.400 C 260.496 153.637,260.114 152.842,262.563 158.460 C 262.914 159.264,263.200 160.121,263.200 160.366 C 263.200 160.611,263.367 161.123,263.571 161.505 C 264.331 162.927,265.398 166.890,266.398 172.000 C 266.634 173.210,267.014 175.100,267.241 176.200 C 267.469 177.300,267.753 179.910,267.873 182.000 C 268.137 186.573,268.492 187.220,271.486 188.580 C 272.759 189.158,274.070 189.777,274.400 189.954 C 279.192 192.536,280.703 193.430,283.600 195.401 C 291.151 200.538,296.063 205.145,302.414 213.045 C 304.980 216.236,309.342 223.994,311.386 229.000 C 311.745 229.880,312.187 230.876,312.369 231.213 C 312.550 231.550,312.832 232.450,312.995 233.213 C 313.159 233.976,313.436 234.780,313.611 235.000 C 313.786 235.220,314.116 236.300,314.344 237.400 C 314.998 240.554,315.598 243.250,316.080 245.200 C 316.699 247.705,316.973 263.163,316.459 266.600 C 315.632 272.132,315.198 274.623,314.819 276.000 C 313.273 281.619,312.710 283.488,312.379 284.095 C 312.171 284.477,312.000 284.989,312.000 285.234 C 312.000 285.479,311.743 286.246,311.429 286.940 C 311.115 287.633,310.473 289.100,310.003 290.200 C 309.180 292.126,308.385 293.748,306.379 297.600 C 300.729 308.451,288.800 321.396,277.200 329.263 C 260.674 340.472,241.989 346.929,218.200 349.651 C 213.339 350.207,192.018 350.199,186.800 349.638 C 173.360 348.196,159.370 345.185,150.400 341.805 C 148.820 341.209,145.009 339.724,143.800 339.232 C 141.142 338.150,134.168 334.649,131.879 333.248 C 130.398 332.342,129.101 331.600,128.997 331.600 C 128.750 331.600,121.320 326.522,120.800 325.998 C 120.690 325.887,119.250 324.730,117.600 323.427 C 108.573 316.296,96.650 301.874,90.792 291.000 C 86.308 282.678,84.478 278.567,80.196 267.200 C 79.311 264.851,77.280 257.995,76.405 254.400 C 75.949 252.530,75.397 250.370,75.177 249.600 C 73.964 245.355,72.014 233.661,71.208 225.800 C 70.982 223.600,70.587 220.090,70.329 218.000 C 69.712 213.001,69.714 187.292,70.332 183.000 C 70.586 181.240,70.979 177.640,71.205 175.000 C 71.587 170.547,72.164 166.018,73.167 159.600 C 73.552 157.132,74.136 154.258,75.442 148.400 C 76.644 143.009,78.995 135.132,80.814 130.400 C 81.279 129.190,81.809 127.750,81.990 127.200 C 83.025 124.066,88.351 112.711,88.900 112.467 C 89.065 112.393,89.200 112.148,89.200 111.922 C 89.200 111.392,92.619 105.660,95.834 100.800 C 102.519 90.693,111.707 80.992,121.838 73.343 C 125.207 70.799,128.706 68.400,129.047 68.400 C 129.160 68.400,129.826 67.976,130.527 67.457 C 131.227 66.938,132.340 66.243,133.000 65.912 C 133.660 65.580,135.809 64.463,137.775 63.428 C 150.910 56.517,167.887 51.863,185.400 50.373 C 188.040 50.149,191.190 49.816,192.400 49.634 C 195.603 49.152,209.539 49.133,213.555 49.605 M206.055 204.441 C 202.455 204.606,198.675 204.925,197.655 205.148 C 196.635 205.371,194.900 205.666,193.800 205.803 C 178.528 207.700,166.885 222.858,171.159 235.280 C 176.710 251.416,205.984 257.784,222.600 246.470 C 227.944 242.831,236.800 231.432,236.800 228.193 C 236.800 228.043,237.053 227.354,237.363 226.660 C 239.290 222.346,241.349 210.642,240.662 207.906 C 240.038 205.418,222.655 203.677,206.055 204.441 " stroke="none" fill="#040404" fill-rule="evenodd"></path><path id="path2" d="M200.100 76.297 C 201.805 76.372,204.595 76.372,206.300 76.297 C 208.005 76.222,206.610 76.161,203.200 76.161 C 199.790 76.161,198.395 76.222,200.100 76.297 M126.981 104.100 L 125.400 105.800 127.100 104.219 C 128.681 102.748,128.984 102.400,128.681 102.400 C 128.616 102.400,127.851 103.165,126.981 104.100 M153.781 139.300 L 152.200 141.000 153.900 139.419 C 155.481 137.948,155.784 137.600,155.481 137.600 C 155.416 137.600,154.651 138.365,153.781 139.300 M211.721 177.498 C 213.877 177.571,217.297 177.570,219.321 177.498 C 221.344 177.425,219.580 177.366,215.400 177.367 C 211.220 177.367,209.564 177.426,211.721 177.498 M70.109 192.000 C 70.109 192.990,70.187 193.395,70.282 192.900 C 70.378 192.405,70.378 191.595,70.282 191.100 C 70.187 190.605,70.109 191.010,70.109 192.000 M96.137 201.800 C 96.139 203.560,96.209 204.230,96.293 203.289 C 96.378 202.349,96.377 200.909,96.291 200.089 C 96.205 199.270,96.136 200.040,96.137 201.800 M213.305 203.887 C 213.914 203.979,214.814 203.977,215.305 203.882 C 215.797 203.787,215.300 203.711,214.200 203.714 C 213.100 203.717,212.697 203.795,213.305 203.887 M70.109 208.800 C 70.109 209.790,70.187 210.195,70.282 209.700 C 70.378 209.205,70.378 208.395,70.282 207.900 C 70.187 207.405,70.109 207.810,70.109 208.800 M202.100 252.687 C 202.705 252.778,203.695 252.778,204.300 252.687 C 204.905 252.595,204.410 252.520,203.200 252.520 C 201.990 252.520,201.495 252.595,202.100 252.687 M204.100 278.676 C 204.485 278.776,205.115 278.776,205.500 278.676 C 205.885 278.575,205.570 278.493,204.800 278.493 C 204.030 278.493,203.715 278.575,204.100 278.676 " stroke="none" fill="#7c7c7c" fill-rule="evenodd"></path><path id="path3" d="M198.478 49.498 C 200.831 49.569,204.791 49.569,207.278 49.499 C 209.765 49.429,207.840 49.371,203.000 49.370 C 198.160 49.370,196.125 49.428,198.478 49.498 M181.700 50.676 C 182.085 50.776,182.715 50.776,183.100 50.676 C 183.485 50.575,183.170 50.493,182.400 50.493 C 181.630 50.493,181.315 50.575,181.700 50.676 M222.433 50.547 C 222.525 50.628,223.320 50.804,224.200 50.938 C 225.315 51.107,225.558 51.071,225.000 50.819 C 224.232 50.471,222.090 50.244,222.433 50.547 M172.800 52.018 C 172.362 52.315,172.524 52.352,173.400 52.156 C 174.871 51.827,175.190 51.598,174.167 51.606 C 173.745 51.609,173.130 51.795,172.800 52.018 M230.800 52.000 C 232.168 52.438,233.219 52.438,232.200 52.000 C 231.760 51.811,231.040 51.662,230.600 51.668 C 229.957 51.677,229.996 51.743,230.800 52.000 M236.600 53.200 C 237.040 53.389,237.670 53.544,238.000 53.544 C 238.378 53.544,238.304 53.417,237.800 53.200 C 237.360 53.011,236.730 52.856,236.400 52.856 C 236.022 52.856,236.096 52.983,236.600 53.200 M193.905 76.683 C 194.402 76.779,195.122 76.775,195.505 76.675 C 195.887 76.575,195.480 76.496,194.600 76.501 C 193.720 76.505,193.407 76.587,193.905 76.683 M186.200 77.200 L 184.600 77.486 186.000 77.515 C 186.770 77.531,187.760 77.389,188.200 77.200 C 189.143 76.795,188.462 76.795,186.200 77.200 M219.300 77.476 C 219.685 77.576,220.315 77.576,220.700 77.476 C 221.085 77.375,220.770 77.293,220.000 77.293 C 219.230 77.293,218.915 77.375,219.300 77.476 M226.400 78.382 C 226.730 78.605,227.345 78.791,227.767 78.794 C 228.790 78.802,228.471 78.573,227.000 78.244 C 226.124 78.048,225.962 78.085,226.400 78.382 M172.400 79.600 C 171.576 79.864,171.541 79.926,172.200 79.954 C 172.640 79.973,173.270 79.813,173.600 79.600 C 174.301 79.147,173.814 79.147,172.400 79.600 M232.000 79.582 C 232.330 79.805,232.945 79.991,233.367 79.994 C 234.390 80.002,234.071 79.773,232.600 79.444 C 231.724 79.248,231.562 79.285,232.000 79.582 M109.781 83.700 L 108.200 85.400 109.900 83.819 C 111.481 82.348,111.784 82.000,111.481 82.000 C 111.416 82.000,110.651 82.765,109.781 83.700 M247.200 84.231 C 247.200 84.501,249.278 85.256,249.476 85.057 C 249.567 84.967,249.092 84.701,248.420 84.467 C 247.749 84.233,247.200 84.127,247.200 84.231 M104.975 88.900 L 103.800 90.200 105.100 89.025 C 106.312 87.930,106.584 87.600,106.275 87.600 C 106.206 87.600,105.621 88.185,104.975 88.900 M275.583 101.700 C 277.241 103.466,277.600 103.784,277.600 103.483 C 277.600 103.419,276.745 102.564,275.700 101.583 L 273.800 99.800 275.583 101.700 M279.800 106.000 C 280.883 107.100,281.860 108.000,281.970 108.000 C 282.080 108.000,281.283 107.100,280.200 106.000 C 279.117 104.900,278.140 104.000,278.030 104.000 C 277.920 104.000,278.717 104.900,279.800 106.000 M123.775 107.700 L 122.600 109.000 123.900 107.825 C 125.112 106.730,125.384 106.400,125.075 106.400 C 125.006 106.400,124.421 106.985,123.775 107.700 M190.705 120.283 C 191.202 120.379,191.922 120.375,192.305 120.275 C 192.687 120.175,192.280 120.096,191.400 120.101 C 190.520 120.105,190.207 120.187,190.705 120.283 M210.433 120.147 C 210.525 120.228,211.479 120.388,212.554 120.504 C 213.749 120.632,214.293 120.578,213.954 120.363 C 213.435 120.035,210.071 119.828,210.433 120.147 M183.600 121.618 C 183.162 121.915,183.324 121.952,184.200 121.756 C 185.671 121.427,185.990 121.198,184.967 121.206 C 184.545 121.209,183.930 121.395,183.600 121.618 M218.433 121.344 C 218.525 121.423,219.140 121.608,219.800 121.756 C 220.676 121.952,220.838 121.915,220.400 121.618 C 219.860 121.253,218.032 120.998,218.433 121.344 M157.375 135.700 L 156.200 137.000 157.500 135.825 C 158.712 134.730,158.984 134.400,158.675 134.400 C 158.606 134.400,158.021 134.985,157.375 135.700 M248.600 137.200 C 250.128 138.740,251.469 140.000,251.579 140.000 C 251.689 140.000,250.528 138.740,249.000 137.200 C 247.472 135.660,246.131 134.400,246.021 134.400 C 245.911 134.400,247.072 135.660,248.600 137.200 M150.975 142.100 L 149.800 143.400 151.100 142.225 C 152.312 141.130,152.584 140.800,152.275 140.800 C 152.206 140.800,151.621 141.385,150.975 142.100 M328.460 142.569 C 328.427 143.211,328.092 144.111,327.715 144.569 C 327.042 145.385,327.046 145.385,327.947 144.557 C 328.613 143.944,328.817 143.397,328.692 142.557 L 328.520 141.400 328.460 142.569 M200.316 146.697 C 201.699 146.775,203.859 146.774,205.116 146.695 C 206.372 146.616,205.240 146.552,202.600 146.553 C 199.960 146.553,198.932 146.618,200.316 146.697 M195.700 147.076 C 196.085 147.176,196.715 147.176,197.100 147.076 C 197.485 146.975,197.170 146.893,196.400 146.893 C 195.630 146.893,195.315 146.975,195.700 147.076 M208.100 147.076 C 208.485 147.176,209.115 147.176,209.500 147.076 C 209.885 146.975,209.570 146.893,208.800 146.893 C 208.030 146.893,207.715 146.975,208.100 147.076 M302.800 149.152 C 302.800 149.542,304.355 150.998,304.523 150.764 C 304.587 150.674,304.226 150.201,303.720 149.714 C 303.214 149.227,302.800 148.974,302.800 149.152 M174.575 156.100 L 173.400 157.400 174.700 156.225 C 175.415 155.579,176.000 154.994,176.000 154.925 C 176.000 154.616,175.670 154.888,174.575 156.100 M171.578 159.100 L 170.200 160.600 171.700 159.222 C 172.525 158.463,173.200 157.788,173.200 157.722 C 173.200 157.416,172.862 157.704,171.578 159.100 M72.649 162.215 C 72.512 162.573,72.418 163.256,72.441 163.733 C 72.467 164.281,72.603 164.086,72.810 163.203 C 73.160 161.716,73.065 161.133,72.649 162.215 M99.050 166.050 C 98.717 167.717,99.040 168.040,99.400 166.400 C 99.552 165.709,99.593 165.059,99.491 164.958 C 99.389 164.856,99.191 165.347,99.050 166.050 M71.301 172.600 C 71.305 173.480,71.387 173.793,71.483 173.295 C 71.579 172.798,71.575 172.078,71.475 171.695 C 71.375 171.313,71.296 171.720,71.301 172.600 M203.511 177.493 C 204.451 177.578,205.891 177.577,206.711 177.491 C 207.530 177.405,206.760 177.336,205.000 177.337 C 203.240 177.339,202.570 177.409,203.511 177.493 M223.891 177.489 C 224.601 177.577,225.861 177.579,226.691 177.492 C 227.521 177.405,226.940 177.333,225.400 177.331 C 223.860 177.329,223.181 177.400,223.891 177.489 M267.293 178.400 C 267.293 179.170,267.375 179.485,267.476 179.100 C 267.576 178.715,267.576 178.085,267.476 177.700 C 267.375 177.315,267.293 177.630,267.293 178.400 M199.505 177.883 C 200.002 177.979,200.722 177.975,201.105 177.875 C 201.487 177.775,201.080 177.696,200.200 177.701 C 199.320 177.705,199.007 177.787,199.505 177.883 M229.300 177.876 C 229.685 177.976,230.315 177.976,230.700 177.876 C 231.085 177.775,230.770 177.693,230.000 177.693 C 229.230 177.693,228.915 177.775,229.300 177.876 M190.800 178.800 C 190.008 179.054,189.967 179.120,190.600 179.120 C 191.040 179.120,191.850 178.976,192.400 178.800 C 193.192 178.546,193.233 178.480,192.600 178.480 C 192.160 178.480,191.350 178.624,190.800 178.800 M185.400 180.000 C 184.896 180.217,184.822 180.344,185.200 180.344 C 185.530 180.344,186.160 180.189,186.600 180.000 C 187.104 179.783,187.178 179.656,186.800 179.656 C 186.470 179.656,185.840 179.811,185.400 180.000 M96.909 185.200 C 96.909 186.190,96.987 186.595,97.082 186.100 C 97.178 185.605,97.178 184.795,97.082 184.300 C 96.987 183.805,96.909 184.210,96.909 185.200 M70.140 187.200 C 70.140 189.070,70.209 189.835,70.293 188.900 C 70.377 187.965,70.377 186.435,70.293 185.500 C 70.209 184.565,70.140 185.330,70.140 187.200 M96.520 189.600 C 96.520 190.810,96.595 191.305,96.687 190.700 C 96.778 190.095,96.778 189.105,96.687 188.500 C 96.595 187.895,96.520 188.390,96.520 189.600 M157.588 195.500 L 155.000 198.200 157.700 195.612 C 159.185 194.188,160.400 192.973,160.400 192.912 C 160.400 192.617,159.993 192.992,157.588 195.500 M69.755 200.600 C 69.756 203.460,69.820 204.578,69.897 203.083 C 69.974 201.589,69.974 199.249,69.896 197.883 C 69.818 196.518,69.755 197.740,69.755 200.600 M207.911 204.293 C 208.851 204.378,210.291 204.377,211.111 204.291 C 211.930 204.205,211.160 204.136,209.400 204.137 C 207.640 204.139,206.970 204.209,207.911 204.293 M217.100 204.293 C 218.035 204.377,219.565 204.377,220.500 204.293 C 221.435 204.209,220.670 204.140,218.800 204.140 C 216.930 204.140,216.165 204.209,217.100 204.293 M240.909 209.600 C 240.909 210.590,240.987 210.995,241.082 210.500 C 241.178 210.005,241.178 209.195,241.082 208.700 C 240.987 208.205,240.909 208.610,240.909 209.600 M70.140 213.600 C 70.140 215.470,70.209 216.235,70.293 215.300 C 70.377 214.365,70.377 212.835,70.293 211.900 C 70.209 210.965,70.140 211.730,70.140 213.600 M96.520 213.200 C 96.520 214.410,96.595 214.905,96.687 214.300 C 96.778 213.695,96.778 212.705,96.687 212.100 C 96.595 211.495,96.520 211.990,96.520 213.200 M96.909 217.600 C 96.909 218.590,96.987 218.995,97.082 218.500 C 97.178 218.005,97.178 217.195,97.082 216.700 C 96.987 216.205,96.909 216.610,96.909 217.600 M144.649 219.815 C 144.512 220.173,144.421 220.946,144.446 221.533 C 144.480 222.332,144.570 222.198,144.804 221.000 C 145.135 219.300,145.062 218.740,144.649 219.815 M274.600 222.400 C 275.459 223.280,276.252 224.000,276.362 224.000 C 276.472 224.000,275.859 223.280,275.000 222.400 C 274.141 221.520,273.348 220.800,273.238 220.800 C 273.128 220.800,273.741 221.520,274.600 222.400 M277.200 224.925 C 277.200 224.994,277.785 225.579,278.500 226.225 L 279.800 227.400 278.625 226.100 C 277.530 224.888,277.200 224.616,277.200 224.925 M71.293 227.600 C 71.293 228.370,71.375 228.685,71.476 228.300 C 71.576 227.915,71.576 227.285,71.476 226.900 C 71.375 226.515,71.293 226.830,71.293 227.600 M170.128 229.600 C 170.128 231.030,170.201 231.615,170.289 230.900 C 170.378 230.185,170.378 229.015,170.289 228.300 C 170.201 227.585,170.128 228.170,170.128 229.600 M280.783 229.100 C 281.526 230.035,282.206 230.800,282.294 230.800 C 282.577 230.800,280.863 228.549,280.135 227.964 C 279.748 227.654,280.040 228.165,280.783 229.100 M313.595 235.981 C 313.804 236.711,314.086 237.419,314.220 237.554 C 314.596 237.929,313.944 235.452,313.555 235.027 C 313.368 234.822,313.385 235.251,313.595 235.981 M227.588 242.300 L 225.000 245.000 227.700 242.412 C 229.185 240.988,230.400 239.773,230.400 239.712 C 230.400 239.417,229.993 239.792,227.588 242.300 M314.868 240.600 C 314.862 241.040,315.011 241.760,315.200 242.200 C 315.638 243.219,315.638 242.168,315.200 240.800 C 314.943 239.996,314.877 239.957,314.868 240.600 M288.219 243.401 C 288.375 244.060,288.657 244.768,288.845 244.973 C 289.032 245.178,289.015 244.749,288.805 244.019 C 288.318 242.318,287.844 241.819,288.219 243.401 M316.101 247.400 C 316.105 248.280,316.187 248.593,316.283 248.095 C 316.379 247.598,316.375 246.878,316.275 246.495 C 316.175 246.113,316.096 246.520,316.101 247.400 M289.693 249.600 C 289.693 250.370,289.775 250.685,289.876 250.300 C 289.976 249.915,289.976 249.285,289.876 248.900 C 289.775 248.515,289.693 248.830,289.693 249.600 M316.493 250.400 C 316.493 251.170,316.575 251.485,316.676 251.100 C 316.776 250.715,316.776 250.085,316.676 249.700 C 316.575 249.315,316.493 249.630,316.493 250.400 M196.000 251.980 C 196.999 252.320,199.482 252.532,199.167 252.251 C 199.075 252.169,198.100 251.999,197.000 251.872 C 195.651 251.716,195.326 251.751,196.000 251.980 M157.800 262.800 C 159.328 264.340,160.669 265.600,160.779 265.600 C 160.889 265.600,159.728 264.340,158.200 262.800 C 156.672 261.260,155.331 260.000,155.221 260.000 C 155.111 260.000,156.272 261.260,157.800 262.800 M316.493 264.400 C 316.493 265.170,316.575 265.485,316.676 265.100 C 316.776 264.715,316.776 264.085,316.676 263.700 C 316.575 263.315,316.493 263.630,316.493 264.400 M289.693 264.800 C 289.693 265.570,289.775 265.885,289.876 265.500 C 289.976 265.115,289.976 264.485,289.876 264.100 C 289.775 263.715,289.693 264.030,289.693 264.800 M241.800 265.860 C 240.595 266.936,240.505 267.085,241.436 266.463 C 242.541 265.724,243.932 264.376,243.549 264.415 C 243.467 264.423,242.680 265.073,241.800 265.860 M316.101 267.400 C 316.105 268.280,316.187 268.593,316.283 268.095 C 316.379 267.598,316.375 266.878,316.275 266.495 C 316.175 266.113,316.096 266.520,316.101 267.400 M183.600 277.182 C 183.930 277.405,184.545 277.591,184.967 277.594 C 185.990 277.602,185.671 277.373,184.200 277.044 C 183.324 276.848,183.162 276.885,183.600 277.182 M216.200 277.200 C 215.093 277.482,215.077 277.509,216.000 277.547 C 216.550 277.569,217.270 277.413,217.600 277.200 C 218.281 276.760,217.929 276.760,216.200 277.200 M190.200 278.410 C 190.970 278.731,194.707 278.951,194.367 278.655 C 194.275 278.576,193.120 278.413,191.800 278.293 C 190.351 278.162,189.717 278.208,190.200 278.410 M207.800 278.400 L 205.800 278.674 207.600 278.709 C 208.590 278.728,209.760 278.589,210.200 278.400 C 211.113 278.008,210.662 278.008,207.800 278.400 M198.700 279.089 C 199.415 279.178,200.585 279.178,201.300 279.089 C 202.015 279.001,201.430 278.928,200.000 278.928 C 198.570 278.928,197.985 279.001,198.700 279.089 M311.267 286.380 C 311.033 287.051,310.927 287.600,311.031 287.600 C 311.301 287.600,312.056 285.522,311.857 285.324 C 311.767 285.233,311.501 285.708,311.267 286.380 M122.000 290.125 C 122.000 290.194,122.585 290.779,123.300 291.425 L 124.600 292.600 123.425 291.300 C 122.330 290.088,122.000 289.816,122.000 290.125 M127.200 295.800 C 128.395 297.010,129.463 298.000,129.573 298.000 C 129.683 298.000,128.795 297.010,127.600 295.800 C 126.405 294.590,125.337 293.600,125.227 293.600 C 125.117 293.600,126.005 294.590,127.200 295.800 M271.391 299.300 L 268.200 302.600 271.500 299.409 C 274.565 296.446,274.982 296.000,274.691 296.000 C 274.630 296.000,273.145 297.485,271.391 299.300 M262.600 306.635 L 261.400 307.666 262.700 306.806 C 263.415 306.333,264.000 305.868,264.000 305.773 C 264.000 305.473,263.831 305.578,262.600 306.635 M110.200 316.800 C 111.728 318.340,113.069 319.600,113.179 319.600 C 113.289 319.600,112.128 318.340,110.600 316.800 C 109.072 315.260,107.731 314.000,107.621 314.000 C 107.511 314.000,108.672 315.260,110.200 316.800 M168.033 318.944 C 168.125 319.023,168.740 319.208,169.400 319.356 C 170.276 319.552,170.438 319.515,170.000 319.218 C 169.460 318.853,167.632 318.598,168.033 318.944 M229.200 320.418 C 228.762 320.715,228.924 320.752,229.800 320.556 C 231.271 320.227,231.590 319.998,230.567 320.006 C 230.145 320.009,229.530 320.195,229.200 320.418 M114.400 320.525 C 114.400 320.594,114.985 321.179,115.700 321.825 L 117.000 323.000 115.825 321.700 C 114.730 320.488,114.400 320.216,114.400 320.525 M286.575 321.700 L 285.400 323.000 286.700 321.825 C 287.415 321.179,288.000 320.594,288.000 320.525 C 288.000 320.216,287.670 320.488,286.575 321.700 M188.505 322.687 C 189.114 322.779,190.014 322.777,190.505 322.682 C 190.997 322.587,190.500 322.511,189.400 322.514 C 188.300 322.517,187.897 322.595,188.505 322.687 M212.905 322.687 C 213.514 322.779,214.414 322.777,214.905 322.682 C 215.397 322.587,214.900 322.511,213.800 322.514 C 212.700 322.517,212.297 322.595,212.905 322.687 M163.000 345.600 C 163.440 345.789,164.070 345.944,164.400 345.944 C 164.778 345.944,164.704 345.817,164.200 345.600 C 163.760 345.411,163.130 345.256,162.800 345.256 C 162.422 345.256,162.496 345.383,163.000 345.600 M239.800 345.600 C 239.296 345.817,239.222 345.944,239.600 345.944 C 239.930 345.944,240.560 345.789,241.000 345.600 C 241.504 345.383,241.578 345.256,241.200 345.256 C 240.870 345.256,240.240 345.411,239.800 345.600 M168.200 346.800 C 168.640 346.989,169.270 347.144,169.600 347.144 C 169.978 347.144,169.904 347.017,169.400 346.800 C 168.960 346.611,168.330 346.456,168.000 346.456 C 167.622 346.456,167.696 346.583,168.200 346.800 M174.600 348.000 C 175.040 348.189,175.760 348.338,176.200 348.332 C 176.843 348.323,176.804 348.257,176.000 348.000 C 174.632 347.562,173.581 347.562,174.600 348.000 M184.100 349.476 C 184.485 349.576,185.115 349.576,185.500 349.476 C 185.885 349.375,185.570 349.293,184.800 349.293 C 184.030 349.293,183.715 349.375,184.100 349.476 M219.300 349.476 C 219.685 349.576,220.315 349.576,220.700 349.476 C 221.085 349.375,220.770 349.293,220.000 349.293 C 219.230 349.293,218.915 349.375,219.300 349.476 M200.100 350.296 C 201.365 350.375,203.435 350.375,204.700 350.296 C 205.965 350.216,204.930 350.151,202.400 350.151 C 199.870 350.151,198.835 350.216,200.100 350.296 " stroke="none" fill="#5a5a5a" fill-rule="evenodd"></path><path id="path4" d="M195.507 49.890 C 196.226 49.979,197.306 49.977,197.907 49.886 C 198.508 49.795,197.920 49.722,196.600 49.724 C 195.280 49.726,194.788 49.801,195.507 49.890 M208.700 49.882 C 209.195 49.978,210.005 49.978,210.500 49.882 C 210.995 49.787,210.590 49.709,209.600 49.709 C 208.610 49.709,208.205 49.787,208.700 49.882 M188.100 50.276 C 188.485 50.376,189.115 50.376,189.500 50.276 C 189.885 50.175,189.570 50.093,188.800 50.093 C 188.030 50.093,187.715 50.175,188.100 50.276 M185.300 50.676 C 185.685 50.776,186.315 50.776,186.700 50.676 C 187.085 50.575,186.770 50.493,186.000 50.493 C 185.230 50.493,184.915 50.575,185.300 50.676 M219.300 50.676 C 219.685 50.776,220.315 50.776,220.700 50.676 C 221.085 50.575,220.770 50.493,220.000 50.493 C 219.230 50.493,218.915 50.575,219.300 50.676 M151.400 57.814 C 150.400 58.296,150.366 58.351,151.200 58.148 C 152.333 57.871,153.607 57.221,153.000 57.230 C 152.780 57.233,152.060 57.496,151.400 57.814 M194.505 76.287 C 195.114 76.379,196.014 76.377,196.505 76.282 C 196.997 76.187,196.500 76.111,195.400 76.114 C 194.300 76.117,193.897 76.195,194.505 76.287 M210.105 76.287 C 210.714 76.379,211.614 76.377,212.105 76.282 C 212.597 76.187,212.100 76.111,211.000 76.114 C 209.900 76.117,209.497 76.195,210.105 76.287 M190.500 76.676 C 190.885 76.776,191.515 76.776,191.900 76.676 C 192.285 76.575,191.970 76.493,191.200 76.493 C 190.430 76.493,190.115 76.575,190.500 76.676 M214.500 76.676 C 214.885 76.776,215.515 76.776,215.900 76.676 C 216.285 76.575,215.970 76.493,215.200 76.493 C 214.430 76.493,214.115 76.575,214.500 76.676 M114.975 79.300 L 113.800 80.600 115.100 79.425 C 116.312 78.330,116.584 78.000,116.275 78.000 C 116.206 78.000,115.621 78.585,114.975 79.300 M289.600 79.325 C 289.600 79.394,290.185 79.979,290.900 80.625 L 292.200 81.800 291.025 80.500 C 289.930 79.288,289.600 79.016,289.600 79.325 M109.588 84.300 L 107.000 87.000 109.700 84.412 C 112.208 82.007,112.583 81.600,112.288 81.600 C 112.227 81.600,111.012 82.815,109.588 84.300 M295.600 85.000 C 297.460 86.870,299.072 88.400,299.182 88.400 C 299.292 88.400,297.860 86.870,296.000 85.000 C 294.140 83.130,292.528 81.600,292.418 81.600 C 292.308 81.600,293.740 83.130,295.600 85.000 M104.778 89.500 L 103.400 91.000 104.900 89.622 C 105.725 88.863,106.400 88.188,106.400 88.122 C 106.400 87.816,106.062 88.104,104.778 89.500 M300.000 89.725 C 300.000 89.794,300.585 90.379,301.300 91.025 L 302.600 92.200 301.425 90.900 C 300.330 89.688,300.000 89.416,300.000 89.725 M130.975 100.100 L 129.800 101.400 131.100 100.225 C 132.312 99.130,132.584 98.800,132.275 98.800 C 132.206 98.800,131.621 99.385,130.975 100.100 M278.000 103.800 C 279.860 105.670,281.472 107.200,281.582 107.200 C 281.692 107.200,280.260 105.670,278.400 103.800 C 276.540 101.930,274.928 100.400,274.818 100.400 C 274.708 100.400,276.140 101.930,278.000 103.800 M124.175 106.900 L 123.000 108.200 124.300 107.025 C 125.512 105.930,125.784 105.600,125.475 105.600 C 125.406 105.600,124.821 106.185,124.175 106.900 M199.116 119.897 C 200.499 119.975,202.659 119.974,203.916 119.895 C 205.172 119.816,204.040 119.752,201.400 119.753 C 198.760 119.753,197.732 119.818,199.116 119.897 M194.100 120.276 C 194.485 120.376,195.115 120.376,195.500 120.276 C 195.885 120.175,195.570 120.093,194.800 120.093 C 194.030 120.093,193.715 120.175,194.100 120.276 M207.700 120.276 C 208.085 120.376,208.715 120.376,209.100 120.276 C 209.485 120.175,209.170 120.093,208.400 120.093 C 207.630 120.093,207.315 120.175,207.700 120.276 M248.200 137.200 C 249.728 138.740,251.069 140.000,251.179 140.000 C 251.289 140.000,250.128 138.740,248.600 137.200 C 247.072 135.660,245.731 134.400,245.621 134.400 C 245.511 134.400,246.672 135.660,248.200 137.200 M172.786 157.500 L 170.600 159.800 172.900 157.614 C 175.037 155.582,175.383 155.200,175.086 155.200 C 175.024 155.200,173.989 156.235,172.786 157.500 M239.216 177.780 C 238.947 178.105,237.825 178.425,236.667 178.506 L 234.600 178.652 236.638 178.726 C 238.230 178.784,238.835 178.625,239.400 178.000 C 239.798 177.560,240.028 177.200,239.911 177.200 C 239.794 177.200,239.481 177.461,239.216 177.780 M203.305 177.887 C 203.914 177.979,204.814 177.977,205.305 177.882 C 205.797 177.787,205.300 177.711,204.200 177.714 C 203.100 177.717,202.697 177.795,203.305 177.887 M225.505 177.883 C 226.002 177.979,226.722 177.975,227.105 177.875 C 227.487 177.775,227.080 177.696,226.200 177.701 C 225.320 177.705,225.007 177.787,225.505 177.883 M70.901 179.400 C 70.905 180.280,70.987 180.593,71.083 180.095 C 71.179 179.598,71.175 178.878,71.075 178.495 C 70.975 178.113,70.896 178.520,70.901 179.400 M96.901 180.600 C 96.905 181.480,96.987 181.793,97.083 181.295 C 97.179 180.798,97.175 180.078,97.075 179.695 C 96.975 179.313,96.896 179.720,96.901 180.600 M267.709 184.800 C 267.709 185.790,267.787 186.195,267.882 185.700 C 267.978 185.205,267.978 184.395,267.882 183.900 C 267.787 183.405,267.709 183.810,267.709 184.800 M70.501 185.400 C 70.505 186.280,70.587 186.593,70.683 186.095 C 70.779 185.598,70.775 184.878,70.675 184.495 C 70.575 184.113,70.496 184.520,70.501 185.400 M96.493 185.600 C 96.493 186.370,96.575 186.685,96.676 186.300 C 96.776 185.915,96.776 185.285,96.676 184.900 C 96.575 184.515,96.493 184.830,96.493 185.600 M96.140 195.600 C 96.140 197.470,96.209 198.235,96.293 197.300 C 96.377 196.365,96.377 194.835,96.293 193.900 C 96.209 192.965,96.140 193.730,96.140 195.600 M158.187 195.300 L 155.800 197.800 158.300 195.413 C 160.622 193.195,160.983 192.800,160.687 192.800 C 160.626 192.800,159.501 193.925,158.187 195.300 M70.165 200.400 C 70.165 204.250,70.225 205.825,70.298 203.900 C 70.371 201.975,70.371 198.825,70.298 196.900 C 70.225 194.975,70.165 196.550,70.165 200.400 M208.700 203.889 C 209.415 203.978,210.585 203.978,211.300 203.889 C 212.015 203.801,211.430 203.728,210.000 203.728 C 208.570 203.728,207.985 203.801,208.700 203.889 M217.107 203.890 C 217.826 203.979,218.906 203.977,219.507 203.886 C 220.108 203.795,219.520 203.722,218.200 203.724 C 216.880 203.726,216.388 203.801,217.107 203.890 M201.900 204.282 C 202.395 204.378,203.205 204.378,203.700 204.282 C 204.195 204.187,203.790 204.109,202.800 204.109 C 201.810 204.109,201.405 204.187,201.900 204.282 M224.700 204.282 C 225.195 204.378,226.005 204.378,226.500 204.282 C 226.995 204.187,226.590 204.109,225.600 204.109 C 224.610 204.109,224.205 204.187,224.700 204.282 M96.137 207.800 C 96.139 209.560,96.209 210.230,96.293 209.289 C 96.378 208.349,96.377 206.909,96.291 206.089 C 96.205 205.270,96.136 206.040,96.137 207.800 M297.600 208.125 C 297.600 208.194,298.185 208.779,298.900 209.425 L 300.200 210.600 299.025 209.300 C 297.930 208.088,297.600 207.816,297.600 208.125 M70.493 215.200 C 70.493 215.970,70.575 216.285,70.676 215.900 C 70.776 215.515,70.776 214.885,70.676 214.500 C 70.575 214.115,70.493 214.430,70.493 215.200 M96.493 217.200 C 96.493 217.970,96.575 218.285,96.676 217.900 C 96.776 217.515,96.776 216.885,96.676 216.500 C 96.575 216.115,96.493 216.430,96.493 217.200 M239.429 220.629 C 239.281 221.215,239.238 221.772,239.332 221.866 C 239.427 221.960,239.624 221.558,239.771 220.971 C 239.919 220.385,239.962 219.828,239.868 219.734 C 239.773 219.640,239.576 220.042,239.429 220.629 M70.893 221.200 C 70.893 221.970,70.975 222.285,71.076 221.900 C 71.176 221.515,71.176 220.885,71.076 220.500 C 70.975 220.115,70.893 220.430,70.893 221.200 M96.901 221.800 C 96.905 222.680,96.987 222.993,97.083 222.495 C 97.179 221.998,97.175 221.278,97.075 220.895 C 96.975 220.513,96.896 220.920,96.901 221.800 M276.200 223.600 C 277.728 225.140,279.069 226.400,279.179 226.400 C 279.289 226.400,278.128 225.140,276.600 223.600 C 275.072 222.060,273.731 220.800,273.621 220.800 C 273.511 220.800,274.672 222.060,276.200 223.600 M144.134 228.800 C 144.134 230.450,144.205 231.125,144.291 230.300 C 144.378 229.475,144.378 228.125,144.291 227.300 C 144.205 226.475,144.134 227.150,144.134 228.800 M169.728 229.600 C 169.728 231.030,169.801 231.615,169.889 230.900 C 169.978 230.185,169.978 229.015,169.889 228.300 C 169.801 227.585,169.728 228.170,169.728 229.600 M170.006 233.433 C 170.009 233.855,170.195 234.470,170.418 234.800 C 170.715 235.238,170.752 235.076,170.556 234.200 C 170.227 232.729,169.998 232.410,170.006 233.433 M99.256 238.400 C 99.256 238.730,99.411 239.360,99.600 239.800 C 99.817 240.304,99.944 240.378,99.944 240.000 C 99.944 239.670,99.789 239.040,99.600 238.600 C 99.383 238.096,99.256 238.022,99.256 238.400 M227.787 242.500 L 225.400 245.000 227.900 242.613 C 229.275 241.299,230.400 240.174,230.400 240.113 C 230.400 239.817,230.005 240.178,227.787 242.500 M192.800 251.582 C 193.130 251.805,193.745 251.991,194.167 251.994 C 195.190 252.002,194.871 251.773,193.400 251.444 C 192.524 251.248,192.362 251.285,192.800 251.582 M290.554 257.200 C 290.554 259.950,290.618 261.075,290.696 259.700 C 290.774 258.325,290.774 256.075,290.696 254.700 C 290.618 253.325,290.554 254.450,290.554 257.200 M316.551 257.600 C 316.551 260.130,316.616 261.165,316.696 259.900 C 316.775 258.635,316.775 256.565,316.696 255.300 C 316.616 254.035,316.551 255.070,316.551 257.600 M154.800 259.325 C 154.800 259.394,155.385 259.979,156.100 260.625 L 157.400 261.800 156.225 260.500 C 155.130 259.288,154.800 259.016,154.800 259.325 M245.781 262.100 L 244.200 263.800 245.900 262.219 C 246.835 261.349,247.600 260.584,247.600 260.519 C 247.600 260.216,247.252 260.519,245.781 262.100 M159.200 263.725 C 159.200 263.794,159.785 264.379,160.500 265.025 L 161.800 266.200 160.625 264.900 C 159.530 263.688,159.200 263.416,159.200 263.725 M186.800 277.600 C 187.350 277.776,188.160 277.920,188.600 277.920 C 189.233 277.920,189.192 277.854,188.400 277.600 C 187.850 277.424,187.040 277.280,186.600 277.280 C 185.967 277.280,186.008 277.346,186.800 277.600 M198.100 278.694 C 199.145 278.776,200.855 278.776,201.900 278.694 C 202.945 278.612,202.090 278.544,200.000 278.544 C 197.910 278.544,197.055 278.612,198.100 278.694 M127.000 296.000 C 128.306 297.320,129.465 298.400,129.575 298.400 C 129.685 298.400,128.706 297.320,127.400 296.000 C 126.094 294.680,124.935 293.600,124.825 293.600 C 124.715 293.600,125.694 294.680,127.000 296.000 M271.991 299.100 L 268.600 302.600 272.100 299.209 C 275.351 296.059,275.782 295.600,275.491 295.600 C 275.431 295.600,273.856 297.175,271.991 299.100 M130.400 298.925 C 130.400 298.994,130.985 299.579,131.700 300.225 L 133.000 301.400 131.825 300.100 C 130.730 298.888,130.400 298.616,130.400 298.925 M103.600 309.325 C 103.600 309.394,104.185 309.979,104.900 310.625 L 106.200 311.800 105.025 310.500 C 103.930 309.288,103.600 309.016,103.600 309.325 M294.975 312.900 L 293.800 314.200 295.100 313.025 C 295.815 312.379,296.400 311.794,296.400 311.725 C 296.400 311.416,296.070 311.688,294.975 312.900 M110.200 316.400 C 111.950 318.160,113.471 319.600,113.581 319.600 C 113.691 319.600,112.350 318.160,110.600 316.400 C 108.850 314.640,107.329 313.200,107.219 313.200 C 107.109 313.200,108.450 314.640,110.200 316.400 M291.188 317.100 L 288.600 319.800 291.300 317.212 C 292.785 315.788,294.000 314.573,294.000 314.512 C 294.000 314.217,293.593 314.592,291.188 317.100 M232.200 320.000 C 231.696 320.217,231.622 320.344,232.000 320.344 C 232.330 320.344,232.960 320.189,233.400 320.000 C 233.904 319.783,233.978 319.656,233.600 319.656 C 233.270 319.656,232.640 319.811,232.200 320.000 M285.775 322.100 L 284.600 323.400 285.900 322.225 C 286.615 321.579,287.200 320.994,287.200 320.925 C 287.200 320.616,286.870 320.888,285.775 322.100 M189.300 323.076 C 189.685 323.176,190.315 323.176,190.700 323.076 C 191.085 322.975,190.770 322.893,190.000 322.893 C 189.230 322.893,188.915 322.975,189.300 323.076 M198.518 323.498 C 200.233 323.573,202.933 323.572,204.518 323.497 C 206.103 323.421,204.700 323.359,201.400 323.360 C 198.100 323.361,196.803 323.422,198.518 323.498 M188.100 349.476 C 188.485 349.576,189.115 349.576,189.500 349.476 C 189.885 349.375,189.570 349.293,188.800 349.293 C 188.030 349.293,187.715 349.375,188.100 349.476 M215.505 349.483 C 216.002 349.579,216.722 349.575,217.105 349.475 C 217.487 349.375,217.080 349.296,216.200 349.301 C 215.320 349.305,215.007 349.387,215.505 349.483 M191.900 349.882 C 192.395 349.978,193.205 349.978,193.700 349.882 C 194.195 349.787,193.790 349.709,192.800 349.709 C 191.810 349.709,191.405 349.787,191.900 349.882 M211.100 349.882 C 211.595 349.978,212.405 349.978,212.900 349.882 C 213.395 349.787,212.990 349.709,212.000 349.709 C 211.010 349.709,210.605 349.787,211.100 349.882 " stroke="none" fill="#848484" fill-rule="evenodd"></path></g></svg>